VotoSerifGX-ExtendedLightText.ufo
<glyph name="quotesingle" format="2">
  <advance width="153"/>
  <unicode hex="0027"/>
  <outline>
    <contour>
      <point x="66" y="473" type="line"/>
      <point x="91" y="473" type="line"/>
      <point x="95" y="714" type="line"/>
      <point x="58" y="714" type="line"/>
    </contour>
  </outline>
</glyph>
<glyph name="four" format="2">
  <advance width="693"/>
  <unicode hex="0034"/>
  <outline>
    <contour>
      <point x="337" y="0" type="line"/>
      <point x="611" y="0" type="line"/>
      <point x="611" y="20" type="line"/>
      <point x="546" y="20" type="line" smooth="yes"/>
      <point x="500" y="20"/>
      <point x="496" y="33"/>
      <point x="496" y="115" type="curve" smooth="yes"/>
      <point x="496" y="208" type="line"/>
      <point x="671" y="208" type="line"/>
      <point x="671" y="233" type="line"/>
      <point x="496" y="233" type="line"/>
      <point x="496" y="714" type="line"/>
      <point x="468" y="714" type="line"/>
      <point x="25" y="224" type="line"/>
      <point x="25" y="208" type="line"/>
      <point x="469" y="208" type="line"/>
      <point x="469" y="115" type="line" smooth="yes"/>
      <point x="469" y="33"/>
      <point x="465" y="20"/>
      <point x="418" y="20" type="curve" smooth="yes"/>
      <point x="337" y="20" type="line"/>
    </contour>
    <contour>
      <point x="64" y="233" type="line"/>
      <point x="317" y="513" type="line" smooth="yes"/>
      <point x="366" y="571"/>
      <point x="453" y="668"/>
      <point x="471" y="693" type="curve"/>
      <point x="471" y="633"/>
      <point x="469" y="511"/>
      <point x="469" y="453" type="curve" smooth="yes"/>
      <point x="469" y="233" type="line"/>
    </contour>
  </outline>
</glyph>
<glyph name="five" format="2">
  <advance width="693"/>
  <unicode hex="0035"/>
  <outline>
    <contour>
      <point x="301" y="-10" type="curve" smooth="yes"/>
      <point x="494" y="-10"/>
      <point x="578" y="106"/>
      <point x="578" y="218" type="curve" smooth="yes"/>
      <point x="578" y="356"/>
      <point x="454" y="423"/>
      <point x="329" y="423" type="curve" smooth="yes"/>
      <point x="254" y="423"/>
      <point x="211" y="414"/>
      <point x="168" y="402" type="curve"/>
      <point x="198" y="686" type="line"/>
      <point x="451" y="686" type="line" smooth="yes"/>
      <point x="517" y="686"/>
      <point x="526" y="688"/>
      <point x="528" y="634" type="curve" smooth="yes"/>
      <point x="529" y="603" type="line"/>
      <point x="549" y="603" type="line"/>
      <point x="546" y="714" type="line"/>
      <point x="175" y="714" type="line"/>
      <point x="139" y="380" type="line"/>
      <point x="156" y="376" type="line"/>
      <point x="206" y="393"/>
      <point x="263" y="398"/>
      <point x="324" y="398" type="curve" smooth="yes"/>
      <point x="447" y="398"/>
      <point x="550" y="339"/>
      <point x="550" y="216" type="curve" smooth="yes"/>
      <point x="550" y="110"/>
      <point x="469" y="15"/>
      <point x="299" y="15" type="curve" smooth="yes"/>
      <point x="239" y="15"/>
      <point x="121" y="23"/>
      <point x="121" y="126" type="curve"/>
      <point x="114" y="126"/>
      <point x="98" y="123"/>
      <point x="98" y="98" type="curve" smooth="yes"/>
      <point x="98" y="21"/>
      <point x="193" y="-10"/>
    </contour>
  </outline>
</glyph>
<glyph name="H" format="2">
  <advance width="939"/>
  <unicode hex="0048"/>
  <anchor x="470" y="0" name="bottom"/>
  <anchor x="470" y="357" name="center"/>
  <anchor x="470" y="714" name="top"/>
  <anchor x="919" y="714" name="topright"/>
  <outline>
    <contour>
      <point x="63" y="0" type="line"/>
      <point x="337" y="0" type="line"/>
      <point x="337" y="20" type="line"/>
      <point x="272" y="20" type="line" smooth="yes"/>
      <point x="222" y="20"/>
      <point x="216" y="31"/>
      <point x="216" y="108" type="curve" smooth="yes"/>
      <point x="216" y="361" type="line"/>
      <point x="724" y="361" type="line"/>
      <point x="724" y="108" type="line" smooth="yes"/>
      <point x="724" y="31"/>
      <point x="718" y="20"/>
      <point x="668" y="20" type="curve" smooth="yes"/>
      <point x="603" y="20" type="line"/>
      <point x="603" y="0" type="line"/>
      <point x="875" y="0" type="line"/>
      <point x="875" y="20" type="line"/>
      <point x="808" y="20" type="line" smooth="yes"/>
      <point x="758" y="20"/>
      <point x="752" y="31"/>
      <point x="752" y="108" type="curve" smooth="yes"/>
      <point x="752" y="606" type="line" smooth="yes"/>
      <point x="752" y="683"/>
      <point x="758" y="694"/>
      <point x="808" y="694" type="curve" smooth="yes"/>
      <point x="875" y="694" type="line"/>
      <point x="875" y="714" type="line"/>
      <point x="603" y="714" type="line"/>
      <point x="603" y="694" type="line"/>
      <point x="668" y="694" type="line" smooth="yes"/>
      <point x="718" y="694"/>
      <point x="724" y="683"/>
      <point x="724" y="606" type="curve" smooth="yes"/>
      <point x="724" y="386" type="line"/>
      <point x="216" y="386" type="line"/>
      <point x="216" y="606" type="line" smooth="yes"/>
      <point x="216" y="683"/>
      <point x="222" y="694"/>
      <point x="272" y="694" type="curve" smooth="yes"/>
      <point x="337" y="694" type="line"/>
      <point x="337" y="714" type="line"/>
      <point x="63" y="714" type="line"/>
      <point x="63" y="694" type="line"/>
      <point x="132" y="694" type="line" smooth="yes"/>
      <point x="182" y="694"/>
      <point x="188" y="683"/>
      <point x="188" y="606" type="curve" smooth="yes"/>
      <point x="188" y="108" type="line" smooth="yes"/>
      <point x="188" y="31"/>
      <point x="182" y="20"/>
      <point x="132" y="20" type="curve" smooth="yes"/>
      <point x="63" y="20" type="line"/>
    </contour>
  </outline>
</glyph>
<glyph name="N" format="2">
  <advance width="903"/>
  <unicode hex="004E"/>
  <anchor x="452" y="0" name="bottom"/>
  <anchor x="452" y="714" name="top"/>
  <anchor x="883" y="714" name="topright"/>
  <outline>
    <contour>
      <point x="64" y="0" type="line"/>
      <point x="323" y="0" type="line"/>
      <point x="323" y="20" type="line"/>
      <point x="269" y="20" type="line" smooth="yes"/>
      <point x="219" y="20"/>
      <point x="213" y="31"/>
      <point x="213" y="108" type="curve" smooth="yes"/>
      <point x="213" y="667" type="line"/>
      <point x="702" y="0" type="line"/>
      <point x="727" y="0" type="line"/>
      <point x="727" y="606" type="line" smooth="yes"/>
      <point x="727" y="683"/>
      <point x="733" y="694"/>
      <point x="783" y="694" type="curve" smooth="yes"/>
      <point x="847" y="694" type="line"/>
      <point x="847" y="714" type="line"/>
      <point x="592" y="714" type="line"/>
      <point x="592" y="694" type="line"/>
      <point x="646" y="694" type="line" smooth="yes"/>
      <point x="696" y="694"/>
      <point x="702" y="683"/>
      <point x="702" y="606" type="curve" smooth="yes"/>
      <point x="702" y="43" type="line"/>
      <point x="209" y="714" type="line"/>
      <point x="64" y="714" type="line"/>
      <point x="64" y="694" type="line"/>
      <point x="132" y="694" type="line" smooth="yes"/>
      <point x="182" y="694"/>
      <point x="188" y="683"/>
      <point x="188" y="606" type="curve" smooth="yes"/>
      <point x="188" y="108" type="line" smooth="yes"/>
      <point x="188" y="31"/>
      <point x="182" y="20"/>
      <point x="132" y="20" type="curve" smooth="yes"/>
      <point x="64" y="20" type="line"/>
    </contour>
  </outline>
</glyph>
<glyph name="Q" format="2">
  <advance width="842"/>
  <unicode hex="0051"/>
  <anchor x="421" y="-216" name="bottom"/>
  <anchor x="421" y="714" name="top"/>
  <anchor x="822" y="714" name="topright"/>
  <outline>
    <contour>
      <point x="663" y="-216" type="curve" smooth="yes"/>
      <point x="665" y="-216" type="line"/>
      <point x="665" y="-191" type="line"/>
      <point x="646" y="-191" type="line" smooth="yes"/>
      <point x="507" y="-191"/>
      <point x="450" y="-98"/>
      <point x="440" y="-11" type="curve"/>
      <point x="667" y="-6"/>
      <point x="769" y="120"/>
      <point x="769" y="358" type="curve" smooth="yes"/>
      <point x="769" y="572"/>
      <point x="678" y="725"/>
      <point x="423" y="725" type="curve" smooth="yes"/>
      <point x="178" y="725"/>
      <point x="72" y="566"/>
      <point x="72" y="359" type="curve" smooth="yes"/>
      <point x="72" y="103"/>
      <point x="191" y="-3"/>
      <point x="413" y="-10" type="curve"/>
      <point x="429" y="-181"/>
      <point x="557" y="-216"/>
    </contour>
    <contour>
      <point x="422" y="15" type="curve" smooth="yes"/>
      <point x="205" y="15"/>
      <point x="100" y="135"/>
      <point x="100" y="358" type="curve" smooth="yes"/>
      <point x="100" y="538"/>
      <point x="191" y="700"/>
      <point x="423" y="700" type="curve" smooth="yes"/>
      <point x="654" y="700"/>
      <point x="741" y="572"/>
      <point x="741" y="358" type="curve" smooth="yes"/>
      <point x="741" y="138"/>
      <point x="652" y="15"/>
    </contour>
  </outline>
</glyph>
<glyph name="R" format="2">
  <advance width="727"/>
  <unicode hex="0052"/>
  <anchor x="363" y="0" name="bottom"/>
  <anchor x="363" y="714" name="top"/>
  <anchor x="707" y="714" name="topright"/>
  <outline>
    <contour>
      <point x="64" y="0" type="line"/>
      <point x="327" y="0" type="line"/>
      <point x="327" y="20" type="line"/>
      <point x="272" y="20" type="line" smooth="yes"/>
      <point x="222" y="20"/>
      <point x="216" y="31"/>
      <point x="216" y="108" type="curve" smooth="yes"/>
      <point x="216" y="321" type="line"/>
      <point x="369" y="321" type="line"/>
      <point x="565" y="87" type="line" smooth="yes"/>
      <point x="621" y="21"/>
      <point x="628" y="0"/>
      <point x="731" y="0" type="curve" smooth="yes"/>
      <point x="736" y="0" type="line"/>
      <point x="736" y="36" type="line"/>
      <point x="719" y="36" type="line" smooth="yes"/>
      <point x="669" y="36"/>
      <point x="640" y="45"/>
      <point x="588" y="106" type="curve" smooth="yes"/>
      <point x="399" y="328" type="line"/>
      <point x="523" y="353"/>
      <point x="596" y="439"/>
      <point x="596" y="538" type="curve" smooth="yes"/>
      <point x="596" y="679"/>
      <point x="511" y="714"/>
      <point x="306" y="714" type="curve" smooth="yes"/>
      <point x="64" y="714" type="line"/>
      <point x="64" y="694" type="line"/>
      <point x="132" y="694" type="line" smooth="yes"/>
      <point x="182" y="694"/>
      <point x="188" y="683"/>
      <point x="188" y="606" type="curve" smooth="yes"/>
      <point x="188" y="108" type="line" smooth="yes"/>
      <point x="188" y="31"/>
      <point x="182" y="20"/>
      <point x="132" y="20" type="curve" smooth="yes"/>
      <point x="64" y="20" type="line"/>
    </contour>
    <contour>
      <point x="216" y="346" type="line"/>
      <point x="216" y="689" type="line"/>
      <point x="322" y="689" type="line" smooth="yes"/>
      <point x="521" y="689"/>
      <point x="568" y="633"/>
      <point x="568" y="536" type="curve" smooth="yes"/>
      <point x="568" y="420"/>
      <point x="463" y="346"/>
      <point x="329" y="346" type="curve" smooth="yes"/>
    </contour>
  </outline>
</glyph>
<glyph name="bracketleft" format="2">
  <advance width="351"/>
  <unicode hex="005B"/>
  <outline>
    <contour>
      <point x="125" y="-128" type="line"/>
      <point x="306" y="-128" type="line"/>
      <point x="306" y="-108" type="line"/>
      <point x="209" y="-108" type="line" smooth="yes"/>
      <point x="159" y="-108"/>
      <point x="153" y="-97"/>
      <point x="153" y="-20" type="curve" smooth="yes"/>
      <point x="153" y="652" type="line" smooth="yes"/>
      <point x="153" y="729"/>
      <point x="159" y="740"/>
      <point x="209" y="740" type="curve" smooth="yes"/>
      <point x="306" y="740" type="line"/>
      <point x="306" y="760" type="line"/>
      <point x="125" y="760" type="line"/>
    </contour>
  </outline>
</glyph>
<glyph name="c" format="2">
  <advance width="549"/>
  <unicode hex="0063"/>
  <anchor x="317" y="0" name="bottom"/>
  <anchor x="317" y="536" name="top"/>
  <anchor x="529" y="536" name="topright"/>
  <outline>
    <contour>
      <point x="315" y="-10" type="curve" smooth="yes"/>
      <point x="440" y="-10"/>
      <point x="506" y="60"/>
      <point x="506" y="89" type="curve" smooth="yes"/>
      <point x="506" y="98"/>
      <point x="505" y="107"/>
      <point x="498" y="118" type="curve"/>
      <point x="469" y="55"/>
      <point x="424" y="17"/>
      <point x="315" y="15" type="curve" smooth="yes"/>
      <point x="216" y="13"/>
      <point x="108" y="120"/>
      <point x="108" y="264" type="curve" smooth="yes"/>
      <point x="108" y="442"/>
      <point x="195" y="517"/>
      <point x="316" y="517" type="curve" smooth="yes"/>
      <point x="420" y="517"/>
      <point x="478" y="444"/>
      <point x="478" y="406" type="curve"/>
      <point x="496" y="408"/>
      <point x="503" y="420"/>
      <point x="503" y="429" type="curve" smooth="yes"/>
      <point x="503" y="485"/>
      <point x="432" y="542"/>
      <point x="324" y="542" type="curve" smooth="yes"/>
      <point x="188" y="542"/>
      <point x="80" y="471"/>
      <point x="80" y="263" type="curve" smooth="yes"/>
      <point x="80" y="101"/>
      <point x="188" y="-10"/>
    </contour>
  </outline>
</glyph>
<glyph name="d" format="2">
  <advance width="701"/>
  <unicode hex="0064"/>
  <anchor x="350" y="0" name="bottom"/>
  <anchor x="350" y="268" name="center"/>
  <anchor x="350" y="760" name="top"/>
  <anchor x="611" y="760" name="topright"/>
  <outline>
    <contour>
      <point x="330" y="-10" type="curve" smooth="yes"/>
      <point x="446" y="-10"/>
      <point x="501" y="51"/>
      <point x="538" y="127" type="curve"/>
      <point x="540" y="127" type="line"/>
      <point x="544" y="0" type="line"/>
      <point x="681" y="0" type="line"/>
      <point x="681" y="20" type="line"/>
      <point x="659" y="20" type="line" smooth="yes"/>
      <point x="567" y="20"/>
      <point x="568" y="21"/>
      <point x="568" y="102" type="curve" smooth="yes"/>
      <point x="568" y="760" type="line"/>
      <point x="423" y="760" type="line"/>
      <point x="423" y="740" type="line"/>
      <point x="468" y="740" type="line" smooth="yes"/>
      <point x="532" y="740"/>
      <point x="540" y="737"/>
      <point x="540" y="668" type="curve" smooth="yes"/>
      <point x="540" y="542" type="line" smooth="yes"/>
      <point x="540" y="521"/>
      <point x="541" y="480"/>
      <point x="539" y="437" type="curve"/>
      <point x="535" y="437" type="line"/>
      <point x="504" y="506"/>
      <point x="424" y="542"/>
      <point x="310" y="542" type="curve" smooth="yes"/>
      <point x="140" y="542"/>
      <point x="83" y="410"/>
      <point x="83" y="267" type="curve" smooth="yes"/>
      <point x="83" y="116"/>
      <point x="176" y="-10"/>
    </contour>
    <contour>
      <point x="317" y="13" type="curve" smooth="yes"/>
      <point x="205" y="9"/>
      <point x="111" y="119"/>
      <point x="111" y="263" type="curve" smooth="yes"/>
      <point x="111" y="400"/>
      <point x="156" y="517"/>
      <point x="314" y="517" type="curve" smooth="yes"/>
      <point x="490" y="517"/>
      <point x="541" y="435"/>
      <point x="541" y="265" type="curve" smooth="yes"/>
      <point x="541" y="121"/>
      <point x="471" y="17"/>
    </contour>
  </outline>
</glyph>
<glyph name="j" format="2">
  <advance width="357"/>
  <unicode hex="006A"/>
  <anchor x="108" y="-240" name="bottom"/>
  <anchor x="193" y="738" name="top"/>
  <anchor x="292" y="738" name="topright"/>
  <outline>
    <contour>
      <point x="40" y="-240" type="line"/>
      <point x="63" y="-240" type="line" smooth="yes"/>
      <point x="159" y="-240"/>
      <point x="217" y="-173"/>
      <point x="217" y="2" type="curve" smooth="yes"/>
      <point x="217" y="536" type="line"/>
      <point x="86" y="536" type="line"/>
      <point x="86" y="516" type="line"/>
      <point x="111" y="516" type="line" smooth="yes"/>
      <point x="181" y="516"/>
      <point x="189" y="518"/>
      <point x="189" y="436" type="curve" smooth="yes"/>
      <point x="189" y="4" type="line" smooth="yes"/>
      <point x="189" y="-159"/>
      <point x="140" y="-215"/>
      <point x="57" y="-215" type="curve" smooth="yes"/>
      <point x="40" y="-215" type="line"/>
    </contour>
    <contour>
      <point x="198" y="658" type="curve" smooth="yes"/>
      <point x="215" y="658"/>
      <point x="221" y="666"/>
      <point x="221" y="698" type="curve" smooth="yes"/>
      <point x="221" y="729"/>
      <point x="215" y="738"/>
      <point x="198" y="738" type="curve" smooth="yes"/>
      <point x="182" y="738"/>
      <point x="175" y="729"/>
      <point x="175" y="698" type="curve" smooth="yes"/>
      <point x="175" y="666"/>
      <point x="182" y="658"/>
    </contour>
  </outline>
</glyph>
<glyph name="x" format="2">
  <advance width="598"/>
  <unicode hex="0078"/>
  <anchor x="299" y="0" name="bottom"/>
  <anchor x="299" y="536" name="top"/>
  <anchor x="578" y="536" name="topright"/>
  <outline>
    <contour>
      <point x="-5" y="0" type="line"/>
      <point x="255" y="0" type="line"/>
      <point x="255" y="20" type="line"/>
      <point x="183" y="20" type="line" smooth="yes"/>
      <point x="137" y="20"/>
      <point x="134" y="27"/>
      <point x="134" y="34" type="curve" smooth="yes"/>
      <point x="134" y="44"/>
      <point x="151" y="67"/>
      <point x="173" y="94" type="curve" smooth="yes"/>
      <point x="308" y="272" type="line"/>
      <point x="446" y="89" type="line" smooth="yes"/>
      <point x="467" y="63"/>
      <point x="480" y="44"/>
      <point x="480" y="34" type="curve" smooth="yes"/>
      <point x="480" y="25"/>
      <point x="476" y="20"/>
      <point x="438" y="20" type="curve" smooth="yes"/>
      <point x="380" y="20" type="line"/>
      <point x="380" y="0" type="line"/>
      <point x="610" y="0" type="line"/>
      <point x="610" y="20" type="line"/>
      <point x="583" y="20" type="line" smooth="yes"/>
      <point x="529" y="20"/>
      <point x="528" y="26"/>
      <point x="497" y="68" type="curve" smooth="yes"/>
      <point x="328" y="290" type="line"/>
      <point x="466" y="468" type="line" smooth="yes"/>
      <point x="499" y="508"/>
      <point x="498" y="516"/>
      <point x="541" y="516" type="curve" smooth="yes"/>
      <point x="572" y="516" type="line"/>
      <point x="572" y="536" type="line"/>
      <point x="343" y="536" type="line"/>
      <point x="343" y="516" type="line"/>
      <point x="410" y="516" type="line" smooth="yes"/>
      <point x="448" y="516"/>
      <point x="453" y="511"/>
      <point x="453" y="503" type="curve" smooth="yes"/>
      <point x="453" y="493"/>
      <point x="437" y="475"/>
      <point x="415" y="448" type="curve" smooth="yes"/>
      <point x="310" y="308" type="line"/>
      <point x="210" y="446" type="line" smooth="yes"/>
      <point x="190" y="474"/>
      <point x="175" y="492"/>
      <point x="175" y="502" type="curve" smooth="yes"/>
      <point x="175" y="511"/>
      <point x="180" y="516"/>
      <point x="218" y="516" type="curve" smooth="yes"/>
      <point x="239" y="516" type="line"/>
      <point x="239" y="536" type="line"/>
      <point x="31" y="536" type="line"/>
      <point x="31" y="516" type="line"/>
      <point x="77" y="516" type="line" smooth="yes"/>
      <point x="127" y="516"/>
      <point x="128" y="510"/>
      <point x="159" y="468" type="curve" smooth="yes"/>
      <point x="292" y="289" type="line"/>
      <point x="119" y="65" type="line" smooth="yes"/>
      <point x="87" y="26"/>
      <point x="88" y="20"/>
      <point x="46" y="20" type="curve" smooth="yes"/>
      <point x="-5" y="20" type="line"/>
    </contour>
  </outline>
</glyph>
<glyph name="exclamdown" format="2">
  <advance width="328"/>
  <unicode hex="00A1"/>
  <outline>
    <contour>
      <point x="180" y="369" type="line"/>
      <point x="154" y="369" type="line"/>
      <point x="154" y="-178" type="line"/>
      <point x="184" y="-178" type="line"/>
    </contour>
    <contour>
      <point x="165" y="541" type="curve" smooth="yes"/>
      <point x="147" y="541"/>
      <point x="135" y="533"/>
      <point x="135" y="500" type="curve" smooth="yes"/>
      <point x="135" y="470"/>
      <point x="147" y="464"/>
      <point x="165" y="464" type="curve" smooth="yes"/>
      <point x="178" y="464"/>
      <point x="193" y="470"/>
      <point x="193" y="500" type="curve" smooth="yes"/>
      <point x="193" y="533"/>
      <point x="178" y="541"/>
    </contour>
  </outline>
</glyph>
<glyph name="onesuperior" format="2">
  <advance width="497"/>
  <unicode hex="00B9"/>
  <outline>
    <contour>
      <point x="100" y="388" type="line"/>
      <point x="397" y="388" type="line"/>
      <point x="397" y="408" type="line"/>
      <point x="296" y="408" type="line" smooth="yes"/>
      <point x="285" y="408"/>
      <point x="257" y="416"/>
      <point x="257" y="427" type="curve" smooth="yes"/>
      <point x="257" y="820" type="line"/>
      <point x="252" y="820" type="line"/>
      <point x="240" y="807" type="line" smooth="yes"/>
      <point x="259" y="831"/>
      <point x="163" y="734"/>
      <point x="84" y="738" type="curve"/>
      <point x="84" y="718"/>
      <point x="96" y="713"/>
      <point x="99" y="713" type="curve" smooth="yes"/>
      <point x="153" y="713"/>
      <point x="206" y="767"/>
      <point x="233" y="779" type="curve"/>
      <point x="233" y="427" type="line" smooth="yes"/>
      <point x="233" y="416"/>
      <point x="207" y="408"/>
      <point x="193" y="408" type="curve" smooth="yes"/>
      <point x="100" y="408" type="line"/>
    </contour>
  </outline>
</glyph>
<glyph name="Oslash" format="2">
  <advance width="843"/>
  <unicode hex="00D8"/>
  <anchor x="421" y="0" name="bottom"/>
  <anchor x="421" y="714" name="top"/>
  <outline>
    <contour>
      <point x="125" y="-40" type="line"/>
      <point x="156" y="-40" type="line"/>
      <point x="213" y="41" type="line"/>
      <point x="266" y="7"/>
      <point x="337" y="-10"/>
      <point x="422" y="-10" type="curve" smooth="yes"/>
      <point x="686" y="-10"/>
      <point x="769" y="145"/>
      <point x="769" y="358" type="curve" smooth="yes"/>
      <point x="769" y="491"/>
      <point x="735" y="599"/>
      <point x="649" y="663" type="curve"/>
      <point x="714" y="755" type="line"/>
      <point x="682" y="755" type="line"/>
      <point x="628" y="677" type="line"/>
      <point x="576" y="707"/>
      <point x="509" y="725"/>
      <point x="423" y="725" type="curve" smooth="yes"/>
      <point x="196" y="725"/>
      <point x="72" y="588"/>
      <point x="72" y="359" type="curve" smooth="yes"/>
      <point x="72" y="214"/>
      <point x="111" y="113"/>
      <point x="192" y="53" type="curve"/>
    </contour>
    <contour>
      <point x="422" y="15" type="curve" smooth="yes"/>
      <point x="342" y="15"/>
      <point x="278" y="31"/>
      <point x="229" y="62" type="curve"/>
      <point x="634" y="643" type="line"/>
      <point x="710" y="585"/>
      <point x="741" y="487"/>
      <point x="741" y="358" type="curve" smooth="yes"/>
      <point x="741" y="144"/>
      <point x="656" y="15"/>
    </contour>
    <contour>
      <point x="207" y="74" type="line"/>
      <point x="135" y="132"/>
      <point x="100" y="225"/>
      <point x="100" y="358" type="curve" smooth="yes"/>
      <point x="100" y="572"/>
      <point x="213" y="700"/>
      <point x="423" y="700" type="curve" smooth="yes"/>
      <point x="501" y="700"/>
      <point x="565" y="684"/>
      <point x="612" y="655" type="curve"/>
    </contour>
  </outline>
</glyph>
<glyph name="eth" format="2">
  <advance width="652"/>
  <unicode hex="00F0"/>
  <anchor x="327" y="0" name="bottom"/>
  <anchor x="327" y="760" name="top"/>
  <outline>
    <contour>
      <point x="324" y="-10" type="curve" smooth="yes"/>
      <point x="496" y="-10"/>
      <point x="570" y="119"/>
      <point x="570" y="238" type="curve" smooth="yes"/>
      <point x="570" y="409"/>
      <point x="509" y="559"/>
      <point x="391" y="654" type="curve"/>
      <point x="519" y="724" type="line"/>
      <point x="519" y="752" type="line"/>
      <point x="370" y="670" type="line"/>
      <point x="326" y="706"/>
      <point x="260" y="741"/>
      <point x="200" y="761" type="curve"/>
      <point x="200" y="733" type="line"/>
      <point x="257" y="707"/>
      <point x="310" y="679"/>
      <point x="343" y="657" type="curve"/>
      <point x="218" y="587" type="line"/>
      <point x="218" y="560" type="line"/>
      <point x="365" y="641" type="line"/>
      <point x="437" y="580"/>
      <point x="490" y="498"/>
      <point x="535" y="373" type="curve"/>
      <point x="498" y="454"/>
      <point x="395" y="489"/>
      <point x="338" y="489" type="curve" smooth="yes"/>
      <point x="176" y="489"/>
      <point x="82" y="406"/>
      <point x="82" y="268" type="curve" smooth="yes"/>
      <point x="82" y="153"/>
      <point x="137" y="-10"/>
    </contour>
    <contour>
      <point x="324" y="15" type="curve" smooth="yes"/>
      <point x="185" y="15"/>
      <point x="109" y="121"/>
      <point x="109" y="265" type="curve" smooth="yes"/>
      <point x="109" y="367"/>
      <point x="159" y="464"/>
      <point x="323" y="464" type="curve" smooth="yes"/>
      <point x="488" y="464"/>
      <point x="543" y="331"/>
      <point x="543" y="265" type="curve" smooth="yes"/>
      <point x="543" y="109"/>
      <point x="465" y="15"/>
    </contour>
  </outline>
</glyph>
<glyph name="eogonek" format="2">
  <advance width="599"/>
  <unicode hex="0119"/>
  <anchor x="300" y="-194" name="bottom"/>
  <anchor x="300" y="536" name="top"/>
  <outline>
    <contour>
      <point x="413" y="-194" type="curve" smooth="yes"/>
      <point x="432" y="-194"/>
      <point x="460" y="-186"/>
      <point x="484" y="-177" type="curve"/>
      <point x="484" y="-161" type="line"/>
      <point x="448" y="-166"/>
      <point x="436" y="-171"/>
      <point x="412" y="-171" type="curve" smooth="yes"/>
      <point x="368" y="-171"/>
      <point x="312" y="-156"/>
      <point x="312" y="-77" type="curve" smooth="yes"/>
      <point x="312" y="-48"/>
      <point x="349" y="-16"/>
      <point x="398" y="-12" type="curve" smooth="yes"/>
      <point x="480" y="14"/>
      <point x="519" y="63"/>
      <point x="519" y="93" type="curve" smooth="yes"/>
      <point x="519" y="98"/>
      <point x="517" y="102"/>
      <point x="510" y="107" type="curve"/>
      <point x="480" y="51"/>
      <point x="423" y="15"/>
      <point x="329" y="15" type="curve" smooth="yes"/>
      <point x="201" y="15"/>
      <point x="106" y="109"/>
      <point x="110" y="282" type="curve"/>
      <point x="534" y="282" type="line"/>
      <point x="534" y="289" type="line" smooth="yes"/>
      <point x="534" y="451"/>
      <point x="445" y="542"/>
      <point x="317" y="542" type="curve" smooth="yes"/>
      <point x="164" y="542"/>
      <point x="80" y="452"/>
      <point x="80" y="262" type="curve" smooth="yes"/>
      <point x="80" y="86"/>
      <point x="175" y="-10"/>
      <point x="327" y="-10" type="curve" smooth="yes"/>
      <point x="332" y="-10"/>
      <point x="340" y="-10"/>
      <point x="345" y="-11" type="curve"/>
      <point x="310" y="-36"/>
      <point x="288" y="-70"/>
      <point x="288" y="-86" type="curve" smooth="yes"/>
      <point x="288" y="-142"/>
      <point x="325" y="-194"/>
    </contour>
    <contour>
      <point x="114" y="305" type="line"/>
      <point x="124" y="433"/>
      <point x="169" y="517"/>
      <point x="315" y="517" type="curve" smooth="yes"/>
      <point x="432" y="517"/>
      <point x="506" y="431"/>
      <point x="506" y="305" type="curve"/>
    </contour>
  </outline>
</glyph>
<glyph name="eng" format="2">
  <advance width="751"/>
  <unicode hex="014B"/>
  <anchor x="375" y="-240" name="bottom"/>
  <anchor x="375" y="536" name="top"/>
  <outline>
    <contour>
      <point x="428" y="-240" type="line"/>
      <point x="452" y="-240" type="line" smooth="yes"/>
      <point x="550" y="-240"/>
      <point x="615" y="-169"/>
      <point x="615" y="4" type="curve" smooth="yes"/>
      <point x="615" y="351" type="line" smooth="yes"/>
      <point x="615" y="478"/>
      <point x="549" y="542"/>
      <point x="414" y="542" type="curve" smooth="yes"/>
      <point x="317" y="542"/>
      <point x="259" y="524"/>
      <point x="206" y="439" type="curve"/>
      <point x="200" y="439" type="line"/>
      <point x="197" y="536" type="line"/>
      <point x="55" y="536" type="line"/>
      <point x="55" y="516" type="line"/>
      <point x="110" y="516" type="line" smooth="yes"/>
      <point x="163" y="516"/>
      <point x="173" y="511"/>
      <point x="173" y="443" type="curve" smooth="yes"/>
      <point x="173" y="92" type="line" smooth="yes"/>
      <point x="173" y="22"/>
      <point x="169" y="20"/>
      <point x="92" y="20" type="curve" smooth="yes"/>
      <point x="48" y="20" type="line"/>
      <point x="48" y="0" type="line"/>
      <point x="315" y="0" type="line"/>
      <point x="315" y="20" type="line"/>
      <point x="287" y="20" type="line" smooth="yes"/>
      <point x="203" y="20"/>
      <point x="201" y="22"/>
      <point x="201" y="92" type="curve" smooth="yes"/>
      <point x="201" y="335" type="line" smooth="yes"/>
      <point x="201" y="379"/>
      <point x="218" y="517"/>
      <point x="412" y="517" type="curve" smooth="yes"/>
      <point x="542" y="517"/>
      <point x="587" y="451"/>
      <point x="587" y="366" type="curve" smooth="yes"/>
      <point x="587" y="4" type="line" smooth="yes"/>
      <point x="587" y="-159"/>
      <point x="532" y="-215"/>
      <point x="445" y="-215" type="curve" smooth="yes"/>
      <point x="428" y="-215" type="line"/>
    </contour>
  </outline>
</glyph>
<glyph name="oe" format="2">
  <advance width="1061"/>
  <unicode hex="0153"/>
  <anchor x="531" y="0" name="bottom"/>
  <anchor x="531" y="536" name="top"/>
  <outline>
    <contour>
      <point x="325" y="-10" type="curve" smooth="yes"/>
      <point x="454" y="-10"/>
      <point x="531" y="52"/>
      <point x="557" y="169" type="curve"/>
      <point x="584" y="54"/>
      <point x="667" y="-10"/>
      <point x="791" y="-10" type="curve" smooth="yes"/>
      <point x="916" y="-10"/>
      <point x="981" y="56"/>
      <point x="981" y="93" type="curve" smooth="yes"/>
      <point x="981" y="98"/>
      <point x="980" y="102"/>
      <point x="971" y="107" type="curve"/>
      <point x="944" y="56"/>
      <point x="890" y="15"/>
      <point x="791" y="15" type="curve" smooth="yes"/>
      <point x="658" y="15"/>
      <point x="570" y="113"/>
      <point x="573" y="282" type="curve"/>
      <point x="996" y="282" type="line"/>
      <point x="996" y="286" type="line" smooth="yes"/>
      <point x="996" y="438"/>
      <point x="914" y="542"/>
      <point x="779" y="542" type="curve" smooth="yes"/>
      <point x="655" y="542"/>
      <point x="584" y="479"/>
      <point x="558" y="371" type="curve"/>
      <point x="531" y="485"/>
      <point x="456" y="542"/>
      <point x="333" y="542" type="curve" smooth="yes"/>
      <point x="170" y="542"/>
      <point x="82" y="452"/>
      <point x="82" y="267" type="curve" smooth="yes"/>
      <point x="82" y="78"/>
      <point x="179" y="-10"/>
    </contour>
    <contour>
      <point x="324" y="16" type="curve" smooth="yes"/>
      <point x="180" y="16"/>
      <point x="112" y="115"/>
      <point x="110" y="267" type="curve" smooth="yes"/>
      <point x="108" y="434"/>
      <point x="177" y="517"/>
      <point x="335" y="517" type="curve" smooth="yes"/>
      <point x="473" y="517"/>
      <point x="542" y="442"/>
      <point x="542" y="267" type="curve" smooth="yes"/>
      <point x="542" y="129"/>
      <point x="487" y="16"/>
    </contour>
    <contour>
      <point x="576" y="305" type="line"/>
      <point x="587" y="427"/>
      <point x="627" y="517"/>
      <point x="779" y="517" type="curve" smooth="yes"/>
      <point x="891" y="517"/>
      <point x="968" y="437"/>
      <point x="968" y="305" type="curve"/>
    </contour>
  </outline>
</glyph>
<glyph name="uni0180" format="2">
  <advance width="701"/>
  <unicode hex="0180"/>
  <anchor x="350" y="0" name="bottom"/>
  <anchor x="350" y="760" name="top"/>
  <outline>
    <contour>
      <point x="377" y="-10" type="curve" smooth="yes"/>
      <point x="526" y="-10"/>
      <point x="621" y="100"/>
      <point x="621" y="257" type="curve" smooth="yes"/>
      <point x="621" y="444"/>
      <point x="553" y="524"/>
      <point x="392" y="524" type="curve" smooth="yes"/>
      <point x="280" y="524"/>
      <point x="206" y="476"/>
      <point x="174" y="376" type="curve"/>
      <point x="169" y="376" type="line"/>
      <point x="175" y="423"/>
      <point x="176" y="498"/>
      <point x="176" y="539" type="curve" smooth="yes"/>
      <point x="176" y="614" type="line"/>
      <point x="405" y="614" type="line"/>
      <point x="405" y="639" type="line"/>
      <point x="176" y="639" type="line"/>
      <point x="176" y="760" type="line"/>
      <point x="26" y="760" type="line"/>
      <point x="26" y="740" type="line"/>
      <point x="79" y="740" type="line" smooth="yes"/>
      <point x="141" y="740"/>
      <point x="148" y="737"/>
      <point x="148" y="663" type="curve" smooth="yes"/>
      <point x="148" y="639" type="line"/>
      <point x="31" y="639" type="line"/>
      <point x="31" y="614" type="line"/>
      <point x="148" y="614" type="line"/>
      <point x="148" y="101" type="line" smooth="yes"/>
      <point x="148" y="20"/>
      <point x="147" y="20"/>
      <point x="58" y="20" type="curve" smooth="yes"/>
      <point x="26" y="20" type="line"/>
      <point x="26" y="0" type="line"/>
      <point x="171" y="0" type="line"/>
      <point x="175" y="107" type="line"/>
      <point x="177" y="107" type="line"/>
      <point x="210" y="25"/>
      <point x="296" y="-10"/>
    </contour>
    <contour>
      <point x="385" y="15" type="curve" smooth="yes"/>
      <point x="212" y="15"/>
      <point x="175" y="119"/>
      <point x="175" y="260" type="curve" smooth="yes"/>
      <point x="175" y="393"/>
      <point x="234" y="499"/>
      <point x="383" y="499" type="curve" smooth="yes"/>
      <point x="536" y="499"/>
      <point x="593" y="435"/>
      <point x="593" y="261" type="curve" smooth="yes"/>
      <point x="593" y="120"/>
      <point x="518" y="15"/>
    </contour>
  </outline>
</glyph>
<glyph name="ohorn" format="2">
  <advance width="710"/>
  <unicode hex="01A1"/>
  <anchor x="356" y="0" name="bottom"/>
  <anchor x="356" y="536" name="top"/>
  <outline>
    <contour>
      <point x="325" y="-10" type="curve" smooth="yes"/>
      <point x="486" y="-10"/>
      <point x="570" y="85"/>
      <point x="570" y="267" type="curve" smooth="yes"/>
      <point x="570" y="326"/>
      <point x="561" y="374"/>
      <point x="545" y="412" type="curve"/>
      <point x="608" y="409"/>
      <point x="679" y="455"/>
      <point x="679" y="558" type="curve" smooth="yes"/>
      <point x="679" y="600"/>
      <point x="667" y="626"/>
      <point x="647" y="626" type="curve" smooth="yes"/>
      <point x="635" y="626"/>
      <point x="619" y="622"/>
      <point x="619" y="607" type="curve" smooth="yes"/>
      <point x="619" y="566"/>
      <point x="660" y="574"/>
      <point x="660" y="536" type="curve" smooth="yes"/>
      <point x="660" y="480"/>
      <point x="589" y="420"/>
      <point x="535" y="431" type="curve"/>
      <point x="496" y="507"/>
      <point x="427" y="542"/>
      <point x="333" y="542" type="curve" smooth="yes"/>
      <point x="173" y="542"/>
      <point x="82" y="457"/>
      <point x="82" y="267" type="curve" smooth="yes"/>
      <point x="82" y="82"/>
      <point x="177" y="-10"/>
    </contour>
    <contour>
      <point x="324" y="15" type="curve" smooth="yes"/>
      <point x="175" y="15"/>
      <point x="112" y="114"/>
      <point x="110" y="267" type="curve" smooth="yes"/>
      <point x="108" y="434"/>
      <point x="178" y="517"/>
      <point x="335" y="517" type="curve" smooth="yes"/>
      <point x="471" y="517"/>
      <point x="542" y="442"/>
      <point x="542" y="267" type="curve" smooth="yes"/>
      <point x="542" y="127"/>
      <point x="485" y="15"/>
    </contour>
  </outline>
</glyph>
<glyph name="uni01B5" format="2">
  <advance width="605"/>
  <unicode hex="01B5"/>
  <anchor x="302" y="0" name="bottom"/>
  <anchor x="302" y="714" name="top"/>
  <outline>
    <contour>
      <point x="34" y="0" type="line"/>
      <point x="548" y="0" type="line"/>
      <point x="555" y="131" type="line"/>
      <point x="535" y="131" type="line"/>
      <point x="529" y="55" type="line" smooth="yes"/>
      <point x="525" y="25"/>
      <point x="498" y="25"/>
      <point x="476" y="25" type="curve" smooth="yes"/>
      <point x="70" y="25" type="line"/>
      <point x="313" y="360" type="line"/>
      <point x="489" y="360" type="line"/>
      <point x="489" y="385" type="line"/>
      <point x="331" y="385" type="line"/>
      <point x="546" y="677" type="line"/>
      <point x="546" y="714" type="line"/>
      <point x="63" y="714" type="line"/>
      <point x="57" y="582" type="line"/>
      <point x="77" y="582" type="line"/>
      <point x="84" y="668" type="line" smooth="yes"/>
      <point x="87" y="679"/>
      <point x="97" y="689"/>
      <point x="145" y="689" type="curve" smooth="yes"/>
      <point x="518" y="689" type="line"/>
      <point x="296" y="385" type="line"/>
      <point x="122" y="385" type="line"/>
      <point x="122" y="360" type="line"/>
      <point x="279" y="360" type="line"/>
      <point x="34" y="22" type="line"/>
    </contour>
  </outline>
</glyph>
<glyph name="uni01BE" format="2">
  <advance width="503"/>
  <unicode hex="01BE"/>
  <anchor x="251" y="0" name="bottom"/>
  <anchor x="251" y="657" name="top"/>
  <outline>
    <contour>
      <point x="262" y="-10" type="curve" smooth="yes"/>
      <point x="373" y="-10"/>
      <point x="444" y="60"/>
      <point x="444" y="136" type="curve" smooth="yes"/>
      <point x="444" y="245"/>
      <point x="373" y="258"/>
      <point x="342" y="265" type="curve" smooth="yes"/>
      <point x="308" y="276"/>
      <point x="243" y="291"/>
      <point x="241" y="353" type="curve" smooth="yes"/>
      <point x="241" y="511" type="line"/>
      <point x="395" y="511" type="line"/>
      <point x="395" y="536" type="line"/>
      <point x="241" y="536" type="line"/>
      <point x="241" y="657" type="line"/>
      <point x="221" y="657" type="line"/>
      <point x="222" y="574"/>
      <point x="200" y="551"/>
      <point x="191" y="549" type="curve" smooth="yes"/>
      <point x="174" y="538"/>
      <point x="148" y="530"/>
      <point x="117" y="532" type="curve"/>
      <point x="117" y="511" type="line"/>
      <point x="213" y="511" type="line"/>
      <point x="213" y="351" type="line" smooth="yes"/>
      <point x="219" y="258"/>
      <point x="305" y="251"/>
      <point x="337" y="242" type="curve" smooth="yes"/>
      <point x="372" y="231"/>
      <point x="416" y="214"/>
      <point x="416" y="138" type="curve" smooth="yes"/>
      <point x="416" y="85"/>
      <point x="367" y="15"/>
      <point x="261" y="15" type="curve" smooth="yes"/>
      <point x="178" y="15"/>
      <point x="118" y="49"/>
      <point x="118" y="130" type="curve"/>
      <point x="106" y="130"/>
      <point x="92" y="119"/>
      <point x="92" y="92" type="curve" smooth="yes"/>
      <point x="92" y="45"/>
      <point x="157" y="-10"/>
    </contour>
  </outline>
</glyph>
<glyph name="uni01E4" format="2">
  <advance width="789"/>
  <unicode hex="01E4"/>
  <anchor x="394" y="0" name="bottom"/>
  <anchor x="394" y="714" name="top"/>
  <outline>
    <contour>
      <point x="458" y="-10" type="curve" smooth="yes"/>
      <point x="556" y="-10"/>
      <point x="625" y="1"/>
      <point x="688" y="25" type="curve"/>
      <point x="688" y="174" type="line"/>
      <point x="813" y="174" type="line"/>
      <point x="813" y="199" type="line"/>
      <point x="688" y="199" type="line"/>
      <point x="688" y="247" type="line" smooth="yes"/>
      <point x="688" y="303"/>
      <point x="694" y="301"/>
      <point x="697" y="301" type="curve" smooth="yes"/>
      <point x="781" y="301" type="line"/>
      <point x="781" y="321" type="line"/>
      <point x="555" y="321" type="line"/>
      <point x="555" y="301" type="line"/>
      <point x="640" y="301" type="line" smooth="yes"/>
      <point x="650" y="301"/>
      <point x="660" y="303"/>
      <point x="660" y="254" type="curve" smooth="yes"/>
      <point x="660" y="199" type="line"/>
      <point x="518" y="199" type="line"/>
      <point x="518" y="174" type="line"/>
      <point x="660" y="174" type="line"/>
      <point x="660" y="42" type="line"/>
      <point x="615" y="25"/>
      <point x="539" y="15"/>
      <point x="478" y="15" type="curve" smooth="yes"/>
      <point x="217" y="15"/>
      <point x="102" y="163"/>
      <point x="102" y="358" type="curve" smooth="yes"/>
      <point x="102" y="622"/>
      <point x="239" y="699"/>
      <point x="457" y="699" type="curve" smooth="yes"/>
      <point x="627" y="699"/>
      <point x="665" y="669"/>
      <point x="665" y="567" type="curve"/>
      <point x="676" y="567"/>
      <point x="690" y="580"/>
      <point x="690" y="605" type="curve" smooth="yes"/>
      <point x="690" y="663"/>
      <point x="635" y="724"/>
      <point x="465" y="724" type="curve" smooth="yes"/>
      <point x="249" y="724"/>
      <point x="74" y="656"/>
      <point x="74" y="358" type="curve" smooth="yes"/>
      <point x="74" y="153"/>
      <point x="202" y="-10"/>
    </contour>
  </outline>
</glyph>
<glyph name="uni0221" format="2">
  <advance width="844"/>
  <unicode hex="0221"/>
  <anchor x="423" y="0" name="bottom"/>
  <anchor x="423" y="760" name="top"/>
  <outline>
    <contour>
      <point x="522" y="-72" type="line"/>
      <point x="536" y="-15"/>
      <point x="546" y="43"/>
      <point x="559" y="54" type="curve"/>
      <point x="583" y="26"/>
      <point x="618" y="-18"/>
      <point x="724" y="-18" type="curve" smooth="yes"/>
      <point x="821" y="-18"/>
      <point x="874" y="16"/>
      <point x="874" y="68" type="curve" smooth="yes"/>
      <point x="874" y="127"/>
      <point x="833" y="151"/>
      <point x="742" y="151" type="curve" smooth="yes"/>
      <point x="672" y="151"/>
      <point x="612" y="128"/>
      <point x="568" y="92" type="curve"/>
      <point x="568" y="760" type="line"/>
      <point x="423" y="760" type="line"/>
      <point x="423" y="740" type="line"/>
      <point x="480" y="740" type="line" smooth="yes"/>
      <point x="528" y="740"/>
      <point x="540" y="737"/>
      <point x="540" y="668" type="curve" smooth="yes"/>
      <point x="540" y="542" type="line" smooth="yes"/>
      <point x="540" y="521"/>
      <point x="541" y="480"/>
      <point x="539" y="437" type="curve"/>
      <point x="535" y="437" type="line"/>
      <point x="504" y="506"/>
      <point x="424" y="542"/>
      <point x="310" y="542" type="curve" smooth="yes"/>
      <point x="140" y="542"/>
      <point x="83" y="410"/>
      <point x="83" y="267" type="curve" smooth="yes"/>
      <point x="83" y="116"/>
      <point x="170" y="-10"/>
      <point x="324" y="-10" type="curve" smooth="yes"/>
      <point x="440" y="-10"/>
      <point x="511" y="67"/>
      <point x="538" y="149" type="curve"/>
      <point x="539" y="149" type="line"/>
      <point x="539" y="116"/>
      <point x="542" y="81"/>
      <point x="541" y="77" type="curve"/>
      <point x="516" y="39"/>
      <point x="504" y="20"/>
      <point x="489" y="-64" type="curve"/>
    </contour>
    <contour>
      <point x="317" y="13" type="curve" smooth="yes"/>
      <point x="205" y="9"/>
      <point x="111" y="119"/>
      <point x="111" y="263" type="curve" smooth="yes"/>
      <point x="111" y="400"/>
      <point x="156" y="517"/>
      <point x="314" y="517" type="curve" smooth="yes"/>
      <point x="490" y="517"/>
      <point x="541" y="435"/>
      <point x="541" y="265" type="curve" smooth="yes"/>
      <point x="541" y="135"/>
      <point x="471" y="17"/>
    </contour>
    <contour>
      <point x="731" y="7" type="curve" smooth="yes"/>
      <point x="653" y="7"/>
      <point x="627" y="18"/>
      <point x="573" y="66" type="curve"/>
      <point x="610" y="102"/>
      <point x="680" y="126"/>
      <point x="733" y="126" type="curve" smooth="yes"/>
      <point x="804" y="126"/>
      <point x="846" y="108"/>
      <point x="846" y="71" type="curve" smooth="yes"/>
      <point x="846" y="28"/>
      <point x="793" y="7"/>
    </contour>
  </outline>
</glyph>
<glyph name="uni0234" format="2">
  <advance width="409"/>
  <unicode hex="0234"/>
  <anchor x="204" y="0" name="bottom"/>
  <anchor x="204" y="760" name="top"/>
  <outline>
    <contour>
      <point x="15" y="46" type="line"/>
      <point x="43" y="83"/>
      <point x="85" y="138"/>
      <point x="141" y="182" type="curve"/>
      <point x="144" y="69"/>
      <point x="185" y="-10"/>
      <point x="263" y="-10" type="curve" smooth="yes"/>
      <point x="345" y="-10"/>
      <point x="389" y="37"/>
      <point x="389" y="111" type="curve" smooth="yes"/>
      <point x="389" y="191"/>
      <point x="340" y="229"/>
      <point x="256" y="229" type="curve" smooth="yes"/>
      <point x="226" y="229"/>
      <point x="188" y="219"/>
      <point x="169" y="214" type="curve"/>
      <point x="169" y="760" type="line"/>
      <point x="7" y="760" type="line"/>
      <point x="7" y="740" type="line"/>
      <point x="68" y="740" type="line" smooth="yes"/>
      <point x="136" y="740"/>
      <point x="141" y="736"/>
      <point x="141" y="662" type="curve" smooth="yes"/>
      <point x="141" y="247" type="line" smooth="yes"/>
      <point x="141" y="236"/>
      <point x="141" y="225"/>
      <point x="141" y="214" type="curve"/>
      <point x="90" y="172"/>
      <point x="31" y="114"/>
      <point x="-4" y="59" type="curve"/>
    </contour>
    <contour>
      <point x="260" y="15" type="curve" smooth="yes"/>
      <point x="217" y="15"/>
      <point x="169" y="45"/>
      <point x="169" y="192" type="curve"/>
      <point x="190" y="199"/>
      <point x="213" y="204"/>
      <point x="251" y="204" type="curve" smooth="yes"/>
      <point x="311" y="204"/>
      <point x="361" y="174"/>
      <point x="361" y="110" type="curve" smooth="yes"/>
      <point x="361" y="23"/>
      <point x="309" y="15"/>
    </contour>
  </outline>
</glyph>
<glyph name="uni0240" format="2">
  <advance width="621"/>
  <unicode hex="0240"/>
  <anchor x="311" y="-238" name="bottom"/>
  <anchor x="311" y="536" name="top"/>
  <outline>
    <contour>
      <point x="510" y="-238" type="curve" smooth="yes"/>
      <point x="567" y="-238"/>
      <point x="621" y="-220"/>
      <point x="621" y="-180" type="curve" smooth="yes"/>
      <point x="621" y="-167"/>
      <point x="614" y="-156"/>
      <point x="599" y="-157" type="curve"/>
      <point x="599" y="-183"/>
      <point x="565" y="-213"/>
      <point x="515" y="-213" type="curve" smooth="yes"/>
      <point x="431" y="-213"/>
      <point x="393" y="-176"/>
      <point x="349" y="-112" type="curve" smooth="yes"/>
      <point x="305" y="-50"/>
      <point x="244" y="36"/>
      <point x="124" y="25" type="curve"/>
      <point x="512" y="514" type="line"/>
      <point x="512" y="536" type="line"/>
      <point x="97" y="536" type="line"/>
      <point x="89" y="420" type="line"/>
      <point x="109" y="420" type="line"/>
      <point x="113" y="448" type="line" smooth="yes"/>
      <point x="120" y="497"/>
      <point x="136" y="511"/>
      <point x="250" y="511" type="curve" smooth="yes"/>
      <point x="474" y="511" type="line"/>
      <point x="88" y="22" type="line"/>
      <point x="88" y="0" type="line"/>
      <point x="141" y="0" type="line" smooth="yes"/>
      <point x="246" y="0"/>
      <point x="291" y="-78"/>
      <point x="322" y="-106" type="curve" smooth="yes"/>
      <point x="357" y="-142"/>
      <point x="395" y="-238"/>
    </contour>
  </outline>
</glyph>
<glyph name="uni0255" format="2">
  <advance width="563"/>
  <unicode hex="0255"/>
  <anchor x="281" y="0" name="bottom"/>
  <anchor x="281" y="536" name="top"/>
  <outline>
    <contour>
      <point x="119" y="-10" type="line"/>
      <point x="130" y="6"/>
      <point x="147" y="32"/>
      <point x="157" y="51" type="curve"/>
      <point x="196" y="14"/>
      <point x="250" y="-10"/>
      <point x="324" y="-10" type="curve" smooth="yes"/>
      <point x="443" y="-10"/>
      <point x="512" y="48"/>
      <point x="512" y="123" type="curve" smooth="yes"/>
      <point x="512" y="248"/>
      <point x="405" y="245"/>
      <point x="361" y="245" type="curve" smooth="yes"/>
      <point x="262" y="245"/>
      <point x="204" y="176"/>
      <point x="156" y="96" type="curve"/>
      <point x="126" y="140"/>
      <point x="108" y="195"/>
      <point x="108" y="264" type="curve" smooth="yes"/>
      <point x="108" y="442"/>
      <point x="195" y="517"/>
      <point x="316" y="517" type="curve" smooth="yes"/>
      <point x="420" y="517"/>
      <point x="478" y="444"/>
      <point x="478" y="406" type="curve"/>
      <point x="496" y="408"/>
      <point x="503" y="420"/>
      <point x="503" y="429" type="curve" smooth="yes"/>
      <point x="503" y="485"/>
      <point x="432" y="542"/>
      <point x="324" y="542" type="curve" smooth="yes"/>
      <point x="188" y="542"/>
      <point x="80" y="471"/>
      <point x="80" y="263" type="curve" smooth="yes"/>
      <point x="80" y="176"/>
      <point x="102" y="106"/>
      <point x="137" y="67" type="curve"/>
      <point x="121" y="39"/>
      <point x="105" y="11"/>
      <point x="94" y="-6" type="curve"/>
    </contour>
    <contour>
      <point x="323" y="15" type="curve" smooth="yes"/>
      <point x="254" y="15"/>
      <point x="204" y="56"/>
      <point x="174" y="81" type="curve"/>
      <point x="216" y="149"/>
      <point x="254" y="220"/>
      <point x="371" y="220" type="curve" smooth="yes"/>
      <point x="439" y="220"/>
      <point x="484" y="190"/>
      <point x="484" y="125" type="curve" smooth="yes"/>
      <point x="484" y="29"/>
      <point x="385" y="15"/>
    </contour>
  </outline>
</glyph>
<glyph name="uni0265" format="2">
  <advance width="733"/>
  <unicode hex="0265"/>
  <anchor x="367" y="-240" name="bottom"/>
  <anchor x="367" y="536" name="top"/>
  <outline>
    <contour>
      <point x="559" y="-240" type="line"/>
      <point x="709" y="-240" type="line"/>
      <point x="709" y="-220" type="line"/>
      <point x="650" y="-220" type="line" smooth="yes"/>
      <point x="596" y="-220"/>
      <point x="587" y="-216"/>
      <point x="587" y="-145" type="curve" smooth="yes"/>
      <point x="587" y="444" type="line" smooth="yes"/>
      <point x="587" y="514"/>
      <point x="589" y="516"/>
      <point x="674" y="516" type="curve" smooth="yes"/>
      <point x="715" y="516" type="line"/>
      <point x="715" y="536" type="line"/>
      <point x="440" y="536" type="line"/>
      <point x="440" y="516" type="line"/>
      <point x="475" y="516" type="line" smooth="yes"/>
      <point x="551" y="516"/>
      <point x="559" y="514"/>
      <point x="559" y="458" type="curve" smooth="yes"/>
      <point x="559" y="201" type="line" smooth="yes"/>
      <point x="559" y="46"/>
      <point x="463" y="23"/>
      <point x="345" y="23" type="curve" smooth="yes"/>
      <point x="229" y="23"/>
      <point x="181" y="66"/>
      <point x="181" y="169" type="curve" smooth="yes"/>
      <point x="181" y="536" type="line"/>
      <point x="40" y="536" type="line"/>
      <point x="40" y="516" type="line"/>
      <point x="70" y="516" type="line" smooth="yes"/>
      <point x="151" y="516"/>
      <point x="153" y="513"/>
      <point x="153" y="441" type="curve" smooth="yes"/>
      <point x="153" y="164" type="line" smooth="yes"/>
      <point x="153" y="50"/>
      <point x="219" y="-2"/>
      <point x="347" y="-2" type="curve" smooth="yes"/>
      <point x="496" y="-2"/>
      <point x="551" y="72"/>
      <point x="563" y="125" type="curve"/>
      <point x="563" y="125" type="line"/>
      <point x="560" y="116"/>
      <point x="559" y="93"/>
      <point x="559" y="74" type="curve" smooth="yes"/>
    </contour>
  </outline>
</glyph>
<glyph name="uni027E" format="2">
  <advance width="467"/>
  <unicode hex="027E"/>
  <anchor x="234" y="0" name="bottom"/>
  <anchor x="234" y="536" name="top"/>
  <outline>
    <contour>
      <point x="10" y="0" type="line"/>
      <point x="326" y="0" type="line"/>
      <point x="326" y="20" type="line"/>
      <point x="239" y="20" type="line" smooth="yes"/>
      <point x="176" y="20"/>
      <point x="168" y="23"/>
      <point x="168" y="92" type="curve" smooth="yes"/>
      <point x="168" y="416" type="line" smooth="yes"/>
      <point x="168" y="487"/>
      <point x="201" y="523"/>
      <point x="294" y="523" type="curve" smooth="yes"/>
      <point x="357" y="523"/>
      <point x="421" y="502"/>
      <point x="421" y="423" type="curve"/>
      <point x="437" y="423"/>
      <point x="448" y="436"/>
      <point x="448" y="454" type="curve" smooth="yes"/>
      <point x="448" y="495"/>
      <point x="389" y="548"/>
      <point x="302" y="548" type="curve" smooth="yes"/>
      <point x="193" y="548"/>
      <point x="140" y="515"/>
      <point x="140" y="410" type="curve" smooth="yes"/>
      <point x="140" y="92" type="line" smooth="yes"/>
      <point x="140" y="23"/>
      <point x="130" y="20"/>
      <point x="71" y="20" type="curve" smooth="yes"/>
      <point x="10" y="20" type="line"/>
    </contour>
  </outline>
</glyph>
<glyph name="uni0280" format="2">
  <advance width="721"/>
  <unicode hex="0280"/>
  <anchor x="361" y="0" name="bottom"/>
  <anchor x="361" y="536" name="top"/>
  <outline>
    <contour>
      <point x="77" y="0" type="line"/>
      <point x="313" y="0" type="line"/>
      <point x="313" y="20" type="line"/>
      <point x="287" y="20" type="line" smooth="yes"/>
      <point x="213" y="20"/>
      <point x="209" y="22"/>
      <point x="209" y="92" type="curve" smooth="yes"/>
      <point x="209" y="234" type="line"/>
      <point x="401" y="234" type="line"/>
      <point x="539" y="64" type="line" smooth="yes"/>
      <point x="591" y="-4"/>
      <point x="601" y="0"/>
      <point x="678" y="0" type="curve" smooth="yes"/>
      <point x="688" y="0" type="line"/>
      <point x="688" y="30" type="line"/>
      <point x="667" y="30" type="line" smooth="yes"/>
      <point x="592" y="30"/>
      <point x="585" y="62"/>
      <point x="557" y="86" type="curve" smooth="yes"/>
      <point x="436" y="238" type="line"/>
      <point x="567" y="261"/>
      <point x="597" y="317"/>
      <point x="597" y="394" type="curve" smooth="yes"/>
      <point x="597" y="500"/>
      <point x="527" y="536"/>
      <point x="381" y="536" type="curve" smooth="yes"/>
      <point x="74" y="536" type="line"/>
      <point x="74" y="516" type="line"/>
      <point x="117" y="516" type="line" smooth="yes"/>
      <point x="172" y="516"/>
      <point x="181" y="511"/>
      <point x="181" y="444" type="curve" smooth="yes"/>
      <point x="181" y="92" type="line" smooth="yes"/>
      <point x="181" y="22"/>
      <point x="175" y="20"/>
      <point x="104" y="20" type="curve" smooth="yes"/>
      <point x="77" y="20" type="line"/>
    </contour>
    <contour>
      <point x="209" y="259" type="line"/>
      <point x="209" y="511" type="line"/>
      <point x="380" y="511" type="line" smooth="yes"/>
      <point x="495" y="511"/>
      <point x="569" y="472"/>
      <point x="569" y="388" type="curve" smooth="yes"/>
      <point x="569" y="289"/>
      <point x="496" y="259"/>
      <point x="373" y="259" type="curve" smooth="yes"/>
    </contour>
  </outline>
</glyph>
<glyph name="uni0283" format="2">
  <advance width="381"/>
  <unicode hex="0283"/>
  <anchor x="190" y="-238" name="bottom"/>
  <anchor x="190" y="766" name="top"/>
  <outline>
    <contour>
      <point x="76" y="-238" type="curve" smooth="yes"/>
      <point x="146" y="-238"/>
      <point x="209" y="-223"/>
      <point x="209" y="-101" type="curve" smooth="yes"/>
      <point x="209" y="566" type="line" smooth="yes"/>
      <point x="209" y="660"/>
      <point x="210" y="741"/>
      <point x="305" y="741" type="curve" smooth="yes"/>
      <point x="357" y="741"/>
      <point x="385" y="718"/>
      <point x="385" y="642" type="curve"/>
      <point x="403" y="642"/>
      <point x="406" y="666"/>
      <point x="406" y="683" type="curve" smooth="yes"/>
      <point x="406" y="716"/>
      <point x="391" y="766"/>
      <point x="311" y="766" type="curve" smooth="yes"/>
      <point x="247" y="766"/>
      <point x="181" y="749"/>
      <point x="181" y="617" type="curve" smooth="yes"/>
      <point x="181" y="-53" type="line" smooth="yes"/>
      <point x="181" y="-141"/>
      <point x="176" y="-213"/>
      <point x="80" y="-213" type="curve" smooth="yes"/>
      <point x="32" y="-213"/>
      <point x="1" y="-189"/>
      <point x="1" y="-118" type="curve"/>
      <point x="-17" y="-118"/>
      <point x="-20" y="-142"/>
      <point x="-20" y="-159" type="curve" smooth="yes"/>
      <point x="-20" y="-190"/>
      <point x="-3" y="-238"/>
    </contour>
  </outline>
</glyph>
<glyph name="uni0290" format="2">
  <advance width="603"/>
  <unicode hex="0290"/>
  <anchor x="302" y="-197" name="bottom"/>
  <anchor x="302" y="536" name="top"/>
  <outline>
    <contour>
      <point x="552" y="-197" type="curve" smooth="yes"/>
      <point x="590" y="-197"/>
      <point x="623" y="-185"/>
      <point x="623" y="-174" type="curve" smooth="yes"/>
      <point x="623" y="-165"/>
      <point x="618" y="-158"/>
      <point x="604" y="-159" type="curve"/>
      <point x="592" y="-157"/>
      <point x="584" y="-174"/>
      <point x="556" y="-174" type="curve" smooth="yes"/>
      <point x="511" y="-174"/>
      <point x="486" y="-160"/>
      <point x="486" y="-110" type="curve" smooth="yes"/>
      <point x="486" y="0" type="line"/>
      <point x="491" y="138" type="line"/>
      <point x="471" y="138" type="line"/>
      <point x="469" y="125" type="line" smooth="yes"/>
      <point x="460" y="39"/>
      <point x="482" y="25"/>
      <point x="424" y="25" type="curve" smooth="yes"/>
      <point x="124" y="25" type="line"/>
      <point x="512" y="514" type="line"/>
      <point x="512" y="536" type="line"/>
      <point x="97" y="536" type="line"/>
      <point x="89" y="420" type="line"/>
      <point x="109" y="420" type="line"/>
      <point x="113" y="448" type="line" smooth="yes"/>
      <point x="120" y="497"/>
      <point x="136" y="511"/>
      <point x="250" y="511" type="curve" smooth="yes"/>
      <point x="474" y="511" type="line"/>
      <point x="88" y="22" type="line"/>
      <point x="88" y="0" type="line"/>
      <point x="462" y="0" type="line"/>
      <point x="462" y="-122" type="line" smooth="yes"/>
      <point x="462" y="-129"/>
      <point x="472" y="-197"/>
    </contour>
  </outline>
</glyph>
<glyph name="uni02A2" format="2">
  <advance width="561"/>
  <unicode hex="02A2"/>
  <anchor x="281" y="0" name="bottom"/>
  <anchor x="281" y="762" name="top"/>
  <outline>
    <contour>
      <point x="188" y="0" type="line"/>
      <point x="486" y="0" type="line"/>
      <point x="486" y="20" type="line"/>
      <point x="455" y="20" type="line" smooth="yes"/>
      <point x="364" y="20"/>
      <point x="352" y="32"/>
      <point x="352" y="101" type="curve" smooth="yes"/>
      <point x="352" y="197" type="line"/>
      <point x="500" y="197" type="line"/>
      <point x="500" y="218" type="line"/>
      <point x="352" y="218" type="line"/>
      <point x="352" y="354" type="line"/>
      <point x="99" y="445"/>
      <point x="85" y="488"/>
      <point x="85" y="582" type="curve" smooth="yes"/>
      <point x="85" y="709"/>
      <point x="181" y="735"/>
      <point x="282" y="735" type="curve" smooth="yes"/>
      <point x="395" y="735"/>
      <point x="478" y="688"/>
      <point x="479" y="611" type="curve"/>
      <point x="486" y="611"/>
      <point x="494" y="613"/>
      <point x="494" y="642" type="curve" smooth="yes"/>
      <point x="494" y="713"/>
      <point x="397" y="762"/>
      <point x="272" y="762" type="curve" smooth="yes"/>
      <point x="130" y="762"/>
      <point x="57" y="688"/>
      <point x="57" y="566" type="curve" smooth="yes"/>
      <point x="57" y="472"/>
      <point x="93" y="416"/>
      <point x="324" y="333" type="curve"/>
      <point x="324" y="218" type="line"/>
      <point x="201" y="218" type="line"/>
      <point x="201" y="197" type="line"/>
      <point x="324" y="197" type="line"/>
      <point x="324" y="101" type="line" smooth="yes"/>
      <point x="324" y="32"/>
      <point x="314" y="20"/>
      <point x="226" y="20" type="curve" smooth="yes"/>
      <point x="188" y="20" type="line"/>
    </contour>
  </outline>
</glyph>
<glyph name="uni02A4" format="2">
  <advance width="1094"/>
  <unicode hex="02A4"/>
  <anchor x="548" y="-238" name="bottom"/>
  <anchor x="548" y="760" name="top"/>
  <outline>
    <contour>
      <point x="817" y="-238" type="curve" smooth="yes"/>
      <point x="970" y="-238"/>
      <point x="1075" y="-129"/>
      <point x="1075" y="-13" type="curve" smooth="yes"/>
      <point x="1075" y="79"/>
      <point x="1039" y="201"/>
      <point x="789" y="205" type="curve"/>
      <point x="1067" y="522" type="line"/>
      <point x="1067" y="536" type="line"/>
      <point x="568" y="536" type="line"/>
      <point x="568" y="760" type="line"/>
      <point x="423" y="760" type="line"/>
      <point x="423" y="740" type="line"/>
      <point x="474" y="740" type="line" smooth="yes"/>
      <point x="530" y="740"/>
      <point x="540" y="737"/>
      <point x="540" y="668" type="curve" smooth="yes"/>
      <point x="540" y="542" type="line" smooth="yes"/>
      <point x="540" y="521"/>
      <point x="541" y="480"/>
      <point x="539" y="437" type="curve"/>
      <point x="535" y="437" type="line"/>
      <point x="504" y="506"/>
      <point x="424" y="542"/>
      <point x="310" y="542" type="curve" smooth="yes"/>
      <point x="140" y="542"/>
      <point x="83" y="410"/>
      <point x="83" y="267" type="curve" smooth="yes"/>
      <point x="83" y="116"/>
      <point x="170" y="-10"/>
      <point x="324" y="-10" type="curve" smooth="yes"/>
      <point x="440" y="-10"/>
      <point x="493" y="39"/>
      <point x="538" y="125" type="curve"/>
      <point x="540" y="125" type="line"/>
      <point x="544" y="0" type="line"/>
      <point x="681" y="0" type="line"/>
      <point x="681" y="20" type="line"/>
      <point x="645" y="20" type="line" smooth="yes"/>
      <point x="571" y="20"/>
      <point x="568" y="21"/>
      <point x="568" y="102" type="curve" smooth="yes"/>
      <point x="568" y="514" type="line"/>
      <point x="1021" y="514" type="line"/>
      <point x="755" y="210" type="line"/>
      <point x="755" y="178" type="line"/>
      <point x="782" y="178" type="line" smooth="yes"/>
      <point x="969" y="178"/>
      <point x="1047" y="95"/>
      <point x="1047" y="-5" type="curve" smooth="yes"/>
      <point x="1047" y="-110"/>
      <point x="944" y="-213"/>
      <point x="817" y="-213" type="curve" smooth="yes"/>
      <point x="704" y="-213"/>
      <point x="625" y="-162"/>
      <point x="624" y="-69" type="curve"/>
      <point x="602" y="-69"/>
      <point x="592" y="-72"/>
      <point x="592" y="-93" type="curve" smooth="yes"/>
      <point x="592" y="-184"/>
      <point x="688" y="-238"/>
    </contour>
    <contour>
      <point x="317" y="13" type="curve" smooth="yes"/>
      <point x="205" y="9"/>
      <point x="111" y="119"/>
      <point x="111" y="263" type="curve" smooth="yes"/>
      <point x="111" y="400"/>
      <point x="156" y="517"/>
      <point x="314" y="517" type="curve" smooth="yes"/>
      <point x="490" y="517"/>
      <point x="541" y="435"/>
      <point x="541" y="265" type="curve" smooth="yes"/>
      <point x="541" y="121"/>
      <point x="471" y="17"/>
    </contour>
  </outline>
</glyph>
<glyph name="uni02AC" format="2">
  <advance width="647"/>
  <unicode hex="02AC"/>
  <anchor x="323" y="0" name="bottom"/>
  <anchor x="323" y="714" name="top"/>
  <outline>
    <contour>
      <point x="183" y="380" type="line"/>
      <point x="199" y="380" type="line"/>
      <point x="326" y="681" type="line"/>
      <point x="331" y="681" type="line"/>
      <point x="348" y="636"/>
      <point x="359" y="615"/>
      <point x="375" y="572" type="curve" smooth="yes"/>
      <point x="457" y="380" type="line"/>
      <point x="470" y="380" type="line"/>
      <point x="573" y="680" type="line" smooth="yes"/>
      <point x="575" y="681"/>
      <point x="588" y="698"/>
      <point x="623" y="698" type="curve" smooth="yes"/>
      <point x="625" y="698" type="line"/>
      <point x="625" y="714" type="line"/>
      <point x="472" y="714" type="line"/>
      <point x="472" y="698" type="line"/>
      <point x="491" y="698" type="line" smooth="yes"/>
      <point x="533" y="698"/>
      <point x="548" y="690"/>
      <point x="548" y="672" type="curve" smooth="yes"/>
      <point x="548" y="667"/>
      <point x="547" y="676"/>
      <point x="546" y="674" type="curve" smooth="yes"/>
      <point x="512" y="579" type="line" smooth="yes"/>
      <point x="494" y="522"/>
      <point x="472" y="467"/>
      <point x="460" y="423" type="curve"/>
      <point x="455" y="423" type="line"/>
      <point x="454" y="423"/>
      <point x="443" y="443"/>
      <point x="430" y="476" type="curve" smooth="yes"/>
      <point x="341" y="709" type="line"/>
      <point x="310" y="709" type="line"/>
      <point x="230" y="503" type="line" smooth="yes"/>
      <point x="218" y="473"/>
      <point x="204" y="442"/>
      <point x="196" y="422" type="curve"/>
      <point x="191" y="422" type="line"/>
      <point x="179" y="459"/>
      <point x="161" y="498"/>
      <point x="143" y="552" type="curve" smooth="yes"/>
      <point x="101" y="684" type="line" smooth="yes"/>
      <point x="101" y="681"/>
      <point x="102" y="674"/>
      <point x="102" y="672" type="curve" smooth="yes"/>
      <point x="102" y="691"/>
      <point x="116" y="698"/>
      <point x="161" y="698" type="curve" smooth="yes"/>
      <point x="176" y="698" type="line"/>
      <point x="176" y="714" type="line"/>
      <point x="21" y="714" type="line"/>
      <point x="21" y="698" type="line"/>
      <point x="54" y="698"/>
      <point x="76" y="689"/>
      <point x="80" y="684" type="curve" smooth="yes"/>
    </contour>
    <contour>
      <point x="183" y="0" type="line"/>
      <point x="199" y="0" type="line"/>
      <point x="326" y="301" type="line"/>
      <point x="331" y="301" type="line"/>
      <point x="348" y="256"/>
      <point x="359" y="235"/>
      <point x="375" y="192" type="curve" smooth="yes"/>
      <point x="457" y="0" type="line"/>
      <point x="470" y="0" type="line"/>
      <point x="572" y="300" type="line" smooth="yes"/>
      <point x="574" y="299"/>
      <point x="590" y="318"/>
      <point x="621" y="318" type="curve" smooth="yes"/>
      <point x="625" y="318" type="line"/>
      <point x="625" y="334" type="line"/>
      <point x="472" y="334" type="line"/>
      <point x="472" y="318" type="line"/>
      <point x="491" y="318" type="line" smooth="yes"/>
      <point x="533" y="318"/>
      <point x="548" y="310"/>
      <point x="548" y="292" type="curve" smooth="yes"/>
      <point x="548" y="287"/>
      <point x="547" y="296"/>
      <point x="546" y="294" type="curve" smooth="yes"/>
      <point x="512" y="199" type="line" smooth="yes"/>
      <point x="494" y="142"/>
      <point x="472" y="87"/>
      <point x="460" y="43" type="curve"/>
      <point x="455" y="43" type="line"/>
      <point x="454" y="43"/>
      <point x="443" y="63"/>
      <point x="430" y="96" type="curve" smooth="yes"/>
      <point x="341" y="329" type="line"/>
      <point x="310" y="329" type="line"/>
      <point x="230" y="123" type="line" smooth="yes"/>
      <point x="218" y="93"/>
      <point x="204" y="62"/>
      <point x="196" y="42" type="curve"/>
      <point x="191" y="42" type="line"/>
      <point x="179" y="79"/>
      <point x="161" y="118"/>
      <point x="143" y="172" type="curve" smooth="yes"/>
      <point x="101" y="304" type="line" smooth="yes"/>
      <point x="101" y="301"/>
      <point x="102" y="294"/>
      <point x="102" y="292" type="curve" smooth="yes"/>
      <point x="102" y="311"/>
      <point x="116" y="318"/>
      <point x="161" y="318" type="curve" smooth="yes"/>
      <point x="176" y="318" type="line"/>
      <point x="176" y="334" type="line"/>
      <point x="21" y="334" type="line"/>
      <point x="21" y="318" type="line"/>
      <point x="54" y="318"/>
      <point x="76" y="309"/>
      <point x="80" y="304" type="curve" smooth="yes"/>
    </contour>
  </outline>
</glyph>
<glyph name="uni02D0" format="2">
  <advance width="401"/>
  <unicode hex="02D0"/>
  <outline>
    <contour>
      <point x="195" y="405" type="line"/>
      <point x="295" y="536" type="line"/>
      <point x="98" y="536" type="line"/>
    </contour>
    <contour>
      <point x="98" y="0" type="line"/>
      <point x="295" y="0" type="line"/>
      <point x="195" y="131" type="line"/>
    </contour>
  </outline>
</glyph>
<glyph name="plusbelowcomb" format="2">
  <unicode hex="031F"/>
  <anchor x="0" y="0" name="_bottom"/>
  <anchor x="0" y="-230" name="bottom"/>
  <outline>
    <contour>
      <point x="-33" y="-230" type="line"/>
      <point x="33" y="-230" type="line"/>
      <point x="33" y="-160" type="line"/>
      <point x="120" y="-160" type="line"/>
      <point x="120" y="-107" type="line"/>
      <point x="34" y="-107" type="line"/>
      <point x="34" y="-37" type="line"/>
      <point x="-32" y="-37" type="line"/>
      <point x="-32" y="-107" type="line"/>
      <point x="-120" y="-107" type="line"/>
      <point x="-120" y="-160" type="line"/>
      <point x="-33" y="-160" type="line"/>
    </contour>
  </outline>
</glyph>
<glyph name="arrowleftrightbelowcomb" format="2">
  <unicode hex="034D"/>
  <anchor x="0" y="0" name="_bottom"/>
  <anchor x="0" y="-218" name="bottom"/>
  <outline>
    <contour>
      <point x="-68" y="-218" type="line"/>
      <point x="-68" y="-163" type="line"/>
      <point x="69" y="-163" type="line"/>
      <point x="69" y="-218" type="line"/>
      <point x="180" y="-127" type="line"/>
      <point x="69" y="-36" type="line"/>
      <point x="69" y="-91" type="line"/>
      <point x="-68" y="-91" type="line"/>
      <point x="-68" y="-36" type="line"/>
      <point x="-180" y="-127" type="line"/>
    </contour>
  </outline>
</glyph>
<glyph name="fermatacomb" format="2">
  <unicode hex="0352"/>
  <anchor x="3" y="536" name="_top"/>
  <anchor x="3" y="808" name="top"/>
  <outline>
    <contour>
      <point x="-120" y="681" type="curve"/>
      <point x="-108" y="681" type="line"/>
      <point x="-95" y="759"/>
      <point x="-59" y="792"/>
      <point x="0" y="792" type="curve" smooth="yes"/>
      <point x="61" y="792"/>
      <point x="101" y="757"/>
      <point x="113" y="681" type="curve"/>
      <point x="126" y="681" type="line"/>
      <point x="123" y="738"/>
      <point x="101" y="808"/>
      <point x="0" y="808" type="curve" smooth="yes"/>
      <point x="-100" y="808"/>
      <point x="-117" y="737"/>
    </contour>
    <contour>
      <point x="-1" y="631" type="curve" smooth="yes"/>
      <point x="13" y="631"/>
      <point x="18" y="641"/>
      <point x="18" y="675" type="curve" smooth="yes"/>
      <point x="18" y="709"/>
      <point x="13" y="717"/>
      <point x="-1" y="717" type="curve" smooth="yes"/>
      <point x="-12" y="717"/>
      <point x="-21" y="709"/>
      <point x="-21" y="675" type="curve" smooth="yes"/>
      <point x="-21" y="641"/>
      <point x="-12" y="631"/>
    </contour>
  </outline>
</glyph>
<glyph name="tildedoublecomb" format="2">
  <unicode hex="0360"/>
  <anchor x="0" y="536" name="_top"/>
  <anchor x="0" y="711" name="top"/>
  <outline>
    <contour>
      <point x="-432" y="620" type="curve"/>
      <point x="-421" y="620" type="line"/>
      <point x="-382" y="652"/>
      <point x="-352" y="676"/>
      <point x="-228" y="676" type="curve" smooth="yes"/>
      <point x="-31" y="676"/>
      <point x="82" y="630"/>
      <point x="207" y="630" type="curve" smooth="yes"/>
      <point x="337" y="630"/>
      <point x="425" y="657"/>
      <point x="432" y="711" type="curve"/>
      <point x="421" y="711" type="line"/>
      <point x="404" y="689"/>
      <point x="354" y="655"/>
      <point x="204" y="655" type="curve" smooth="yes"/>
      <point x="87" y="655"/>
      <point x="-94" y="701"/>
      <point x="-230" y="701" type="curve" smooth="yes"/>
      <point x="-308" y="701"/>
      <point x="-408" y="683"/>
    </contour>
  </outline>
</glyph>
<glyph name="archaicsampi" format="2">
  <advance width="609"/>
  <unicode hex="0373"/>
  <anchor x="305" y="-240" name="bottom"/>
  <anchor x="305" y="536" name="top"/>
  <outline>
    <contour>
      <point x="300" y="-240" type="curve"/>
      <point x="335" y="-240" type="line"/>
      <point x="330" y="-238"/>
      <point x="315" y="-150"/>
      <point x="314" y="-73" type="curve" smooth="yes"/>
      <point x="314" y="514" type="line"/>
      <point x="537" y="514" type="line" smooth="yes"/>
      <point x="547" y="514"/>
      <point x="547" y="486"/>
      <point x="547" y="494" type="curve" smooth="yes"/>
      <point x="550" y="440" type="line"/>
      <point x="570" y="440" type="line"/>
      <point x="570" y="536" type="line"/>
      <point x="160" y="536" type="line" smooth="yes"/>
      <point x="30" y="536"/>
      <point x="24" y="494"/>
      <point x="24" y="460" type="curve" smooth="yes"/>
      <point x="24" y="446" type="line"/>
      <point x="53" y="446" type="line"/>
      <point x="53" y="487"/>
      <point x="49" y="514"/>
      <point x="168" y="514" type="curve" smooth="yes"/>
      <point x="286" y="514" type="line"/>
      <point x="286" y="-49" type="line" smooth="yes"/>
      <point x="287" y="-150"/>
      <point x="294" y="-206"/>
    </contour>
  </outline>
</glyph>
<glyph name="anoteleia" format="2">
  <advance width="205"/>
  <unicode hex="0387"/>
  <outline>
    <contour>
      <point x="101" y="437" type="curve" smooth="yes"/>
      <point x="119" y="437"/>
      <point x="132" y="445"/>
      <point x="132" y="478" type="curve" smooth="yes"/>
      <point x="132" y="508"/>
      <point x="119" y="514"/>
      <point x="101" y="514" type="curve" smooth="yes"/>
      <point x="88" y="514"/>
      <point x="73" y="508"/>
      <point x="73" y="478" type="curve" smooth="yes"/>
      <point x="73" y="445"/>
      <point x="88" y="437"/>
    </contour>
  </outline>
</glyph>
<glyph name="Theta" format="2">
  <advance width="842"/>
  <unicode hex="0398"/>
  <anchor x="421" y="0" name="bottom"/>
  <anchor x="421" y="714" name="top"/>
  <outline>
    <contour>
      <point x="422" y="-10" type="curve" smooth="yes"/>
      <point x="686" y="-10"/>
      <point x="769" y="145"/>
      <point x="769" y="358" type="curve" smooth="yes"/>
      <point x="769" y="570"/>
      <point x="680" y="725"/>
      <point x="423" y="725" type="curve" smooth="yes"/>
      <point x="196" y="725"/>
      <point x="72" y="588"/>
      <point x="72" y="359" type="curve" smooth="yes"/>
      <point x="72" y="113"/>
      <point x="190" y="-10"/>
    </contour>
    <contour>
      <point x="422" y="15" type="curve" smooth="yes"/>
      <point x="207" y="15"/>
      <point x="100" y="133"/>
      <point x="100" y="358" type="curve" smooth="yes"/>
      <point x="100" y="572"/>
      <point x="213" y="700"/>
      <point x="423" y="700" type="curve" smooth="yes"/>
      <point x="654" y="700"/>
      <point x="741" y="572"/>
      <point x="741" y="358" type="curve" smooth="yes"/>
      <point x="741" y="144"/>
      <point x="656" y="15"/>
    </contour>
    <contour>
      <point x="222" y="292" type="line"/>
      <point x="242" y="292" type="line"/>
      <point x="242" y="307" type="line" smooth="yes"/>
      <point x="242" y="324"/>
      <point x="246" y="351"/>
      <point x="231" y="351" type="curve" smooth="yes"/>
      <point x="609" y="351" type="line" smooth="yes"/>
      <point x="591" y="351"/>
      <point x="595" y="324"/>
      <point x="595" y="307" type="curve" smooth="yes"/>
      <point x="595" y="292" type="line"/>
      <point x="615" y="292" type="line"/>
      <point x="615" y="435" type="line"/>
      <point x="595" y="435" type="line"/>
      <point x="595" y="419" type="line" smooth="yes"/>
      <point x="595" y="403"/>
      <point x="593" y="376"/>
      <point x="608" y="376" type="curve" smooth="yes"/>
      <point x="231" y="376" type="line" smooth="yes"/>
      <point x="245" y="376"/>
      <point x="242" y="404"/>
      <point x="242" y="414" type="curve" smooth="yes"/>
      <point x="242" y="435" type="line"/>
      <point x="222" y="435" type="line"/>
    </contour>
  </outline>
</glyph>
<glyph name="Xi" format="2">
  <advance width="758"/>
  <unicode hex="039E"/>
  <anchor x="380" y="0" name="bottom"/>
  <anchor x="380" y="714" name="top"/>
  <outline>
    <contour>
      <point x="67" y="0" type="line"/>
      <point x="691" y="0" type="line"/>
      <point x="701" y="153" type="line"/>
      <point x="678" y="153" type="line"/>
      <point x="671" y="73" type="line" smooth="yes"/>
      <point x="669" y="53"/>
      <point x="681" y="22"/>
      <point x="607" y="22" type="curve" smooth="yes"/>
      <point x="129" y="22" type="line" smooth="yes"/>
      <point x="84" y="22"/>
      <point x="86" y="54"/>
      <point x="84" y="71" type="curve" smooth="yes"/>
      <point x="77" y="153" type="line"/>
      <point x="57" y="153" type="line"/>
    </contour>
    <contour>
      <point x="186" y="286" type="line"/>
      <point x="206" y="286" type="line"/>
      <point x="206" y="298" type="line" smooth="yes"/>
      <point x="206" y="320"/>
      <point x="211" y="344"/>
      <point x="196" y="344" type="curve" smooth="yes"/>
      <point x="562" y="344" type="line" smooth="yes"/>
      <point x="548" y="344"/>
      <point x="552" y="320"/>
      <point x="552" y="298" type="curve" smooth="yes"/>
      <point x="552" y="286" type="line"/>
      <point x="572" y="286" type="line"/>
      <point x="572" y="428" type="line"/>
      <point x="552" y="428" type="line"/>
      <point x="552" y="415" type="line" smooth="yes"/>
      <point x="552" y="393"/>
      <point x="549" y="369"/>
      <point x="562" y="369" type="curve" smooth="yes"/>
      <point x="196" y="369" type="line" smooth="yes"/>
      <point x="211" y="369"/>
      <point x="206" y="393"/>
      <point x="206" y="415" type="curve" smooth="yes"/>
      <point x="206" y="428" type="line"/>
      <point x="186" y="428" type="line"/>
    </contour>
    <contour>
      <point x="102" y="548" type="line"/>
      <point x="117" y="548" type="line"/>
      <point x="124" y="616" type="line" smooth="yes"/>
      <point x="129" y="662"/>
      <point x="124" y="689"/>
      <point x="203" y="689" type="curve" smooth="yes"/>
      <point x="545" y="689" type="line" smooth="yes"/>
      <point x="622" y="689"/>
      <point x="623" y="660"/>
      <point x="628" y="616" type="curve" smooth="yes"/>
      <point x="635" y="548" type="line"/>
      <point x="655" y="548" type="line"/>
      <point x="645" y="714" type="line"/>
      <point x="111" y="714" type="line"/>
    </contour>
  </outline>
</glyph>
<glyph name="nu" format="2">
  <advance width="719"/>
  <unicode hex="03BD"/>
  <anchor x="360" y="0" name="bottom"/>
  <anchor x="360" y="536" name="top"/>
  <outline>
    <contour>
      <point x="343" y="0" type="curve"/>
      <point x="352" y="0" type="line"/>
      <point x="550" y="165"/>
      <point x="621" y="348"/>
      <point x="621" y="434" type="curve" smooth="yes"/>
      <point x="621" y="516"/>
      <point x="588" y="546"/>
      <point x="546" y="546" type="curve" smooth="yes"/>
      <point x="532" y="546"/>
      <point x="527" y="549"/>
      <point x="505" y="542" type="curve"/>
      <point x="548" y="519"/>
      <point x="589" y="516"/>
      <point x="589" y="395" type="curve" smooth="yes"/>
      <point x="589" y="298"/>
      <point x="467" y="105"/>
      <point x="360" y="40" type="curve"/>
      <point x="295" y="271"/>
      <point x="243" y="539"/>
      <point x="136" y="539" type="curve" smooth="yes"/>
      <point x="86" y="539"/>
      <point x="55" y="518"/>
      <point x="47" y="502" type="curve"/>
      <point x="63" y="491" type="line"/>
      <point x="73" y="507"/>
      <point x="106" y="509"/>
      <point x="117" y="509" type="curve" smooth="yes"/>
      <point x="175" y="509"/>
      <point x="233" y="495"/>
    </contour>
  </outline>
</glyph>
<glyph name="pi" format="2">
  <advance width="742"/>
  <unicode hex="03C0"/>
  <anchor x="371" y="0" name="bottom"/>
  <anchor x="371" y="536" name="top"/>
  <outline>
    <contour>
      <point x="575" y="-8" type="curve" smooth="yes"/>
      <point x="603" y="-8"/>
      <point x="615" y="-7"/>
      <point x="654" y="8" type="curve"/>
      <point x="654" y="35" type="line"/>
      <point x="642" y="26"/>
      <point x="616" y="17"/>
      <point x="580" y="17" type="curve" smooth="yes"/>
      <point x="527" y="17"/>
      <point x="524" y="72"/>
      <point x="524" y="88" type="curve" smooth="yes"/>
      <point x="524" y="147"/>
      <point x="552" y="421"/>
      <point x="562" y="514" type="curve"/>
      <point x="691" y="514" type="line"/>
      <point x="691" y="536" type="line"/>
      <point x="128" y="536" type="line" smooth="yes"/>
      <point x="77" y="536"/>
      <point x="41" y="516"/>
      <point x="41" y="450" type="curve"/>
      <point x="62" y="450" type="line"/>
      <point x="74" y="509"/>
      <point x="85" y="514"/>
      <point x="130" y="514" type="curve" smooth="yes"/>
      <point x="232" y="514" type="line"/>
      <point x="211" y="194" type="line" smooth="yes"/>
      <point x="205" y="41"/>
      <point x="190" y="26"/>
      <point x="115" y="23" type="curve"/>
      <point x="115" y="0" type="line"/>
      <point x="124" y="0" type="line"/>
      <point x="198" y="0"/>
      <point x="226" y="48"/>
      <point x="235" y="153" type="curve" smooth="yes"/>
      <point x="263" y="514" type="line"/>
      <point x="533" y="514" type="line"/>
      <point x="513" y="397"/>
      <point x="496" y="79"/>
      <point x="496" y="77" type="curve" smooth="yes"/>
      <point x="496" y="31"/>
      <point x="516" y="-8"/>
    </contour>
  </outline>
</glyph>
<glyph name="sigma" format="2">
  <advance width="673"/>
  <unicode hex="03C3"/>
  <anchor x="336" y="0" name="bottom"/>
  <anchor x="336" y="536" name="top"/>
  <outline>
    <contour>
      <point x="323" y="-10" type="curve" smooth="yes"/>
      <point x="457" y="-10"/>
      <point x="584" y="88"/>
      <point x="584" y="226" type="curve" smooth="yes"/>
      <point x="584" y="359"/>
      <point x="563" y="409"/>
      <point x="501" y="514" type="curve"/>
      <point x="656" y="514" type="line"/>
      <point x="656" y="536" type="line"/>
      <point x="402" y="536" type="line" smooth="yes"/>
      <point x="204" y="536"/>
      <point x="82" y="460"/>
      <point x="82" y="226" type="curve" smooth="yes"/>
      <point x="82" y="83"/>
      <point x="171" y="-10"/>
    </contour>
    <contour>
      <point x="322" y="15" type="curve" smooth="yes"/>
      <point x="187" y="15"/>
      <point x="110" y="102"/>
      <point x="110" y="234" type="curve" smooth="yes"/>
      <point x="110" y="427"/>
      <point x="223" y="514"/>
      <point x="386" y="514" type="curve" smooth="yes"/>
      <point x="460" y="514" type="line"/>
      <point x="534" y="400"/>
      <point x="556" y="349"/>
      <point x="556" y="249" type="curve" smooth="yes"/>
      <point x="556" y="88"/>
      <point x="440" y="15"/>
    </contour>
  </outline>
</glyph>
<glyph name="uni03DA" format="2">
  <advance width="694"/>
  <unicode hex="03DA"/>
  <anchor x="347" y="0" name="bottom"/>
  <anchor x="347" y="714" name="top"/>
  <outline>
    <contour>
      <point x="253" y="0" type="line"/>
      <point x="528" y="0" type="line"/>
      <point x="528" y="20" type="line"/>
      <point x="419" y="20" type="line" smooth="yes"/>
      <point x="399" y="20"/>
      <point x="399" y="31"/>
      <point x="399" y="108" type="curve" smooth="yes"/>
      <point x="399" y="128" type="line"/>
      <point x="392" y="128" type="line" smooth="yes"/>
      <point x="193" y="128"/>
      <point x="98" y="207"/>
      <point x="98" y="412" type="curve" smooth="yes"/>
      <point x="98" y="613"/>
      <point x="202" y="699"/>
      <point x="373" y="699" type="curve" smooth="yes"/>
      <point x="569" y="699"/>
      <point x="602" y="650"/>
      <point x="602" y="570" type="curve"/>
      <point x="607" y="570"/>
      <point x="629" y="584"/>
      <point x="629" y="608" type="curve" smooth="yes"/>
      <point x="629" y="643"/>
      <point x="580" y="724"/>
      <point x="384" y="724" type="curve" smooth="yes"/>
      <point x="180" y="724"/>
      <point x="70" y="635"/>
      <point x="70" y="412" type="curve" smooth="yes"/>
      <point x="70" y="210"/>
      <point x="159" y="112"/>
      <point x="371" y="102" type="curve"/>
      <point x="371" y="68" type="line" smooth="yes"/>
      <point x="371" y="31"/>
      <point x="367" y="20"/>
      <point x="347" y="20" type="curve" smooth="yes"/>
      <point x="253" y="20" type="line"/>
    </contour>
  </outline>
</glyph>
<glyph name="uni03E1" format="2">
  <advance width="472"/>
  <unicode hex="03E1"/>
  <anchor x="237" y="-240" name="bottom"/>
  <anchor x="237" y="545" name="top"/>
  <outline>
    <contour>
      <point x="255" y="-240" type="line"/>
      <point x="312" y="-155"/>
      <point x="391" y="-53"/>
      <point x="391" y="89" type="curve" smooth="yes"/>
      <point x="391" y="385"/>
      <point x="232" y="516"/>
      <point x="29" y="545" type="curve"/>
      <point x="29" y="519" type="line"/>
      <point x="181" y="482"/>
      <point x="266" y="402"/>
      <point x="314" y="314" type="curve"/>
      <point x="77" y="252" type="line"/>
      <point x="81" y="227" type="line"/>
      <point x="324" y="292" type="line"/>
      <point x="339" y="252"/>
      <point x="351" y="208"/>
      <point x="357" y="164" type="curve"/>
      <point x="124" y="112" type="line"/>
      <point x="128" y="87" type="line"/>
      <point x="359" y="142" type="line"/>
      <point x="362" y="124"/>
      <point x="363" y="104"/>
      <point x="363" y="87" type="curve" smooth="yes"/>
      <point x="363" y="-50"/>
      <point x="280" y="-133"/>
      <point x="223" y="-233" type="curve"/>
    </contour>
  </outline>
</glyph>
<glyph name="uni03F0" format="2">
  <advance width="685"/>
  <unicode hex="03F0"/>
  <anchor x="343" y="0" name="bottom"/>
  <anchor x="343" y="536" name="top"/>
  <outline>
    <contour>
      <point x="528" y="-1" type="curve" smooth="yes"/>
      <point x="553" y="-1"/>
      <point x="566" y="5"/>
      <point x="574" y="28" type="curve"/>
      <point x="547" y="27"/>
      <point x="514" y="3"/>
      <point x="514" y="86" type="curve" smooth="yes"/>
      <point x="514" y="246"/>
      <point x="612" y="458"/>
      <point x="653" y="536" type="curve"/>
      <point x="619" y="536" type="line"/>
      <point x="75" y="18" type="line"/>
      <point x="131" y="169"/>
      <point x="194" y="375"/>
      <point x="194" y="539" type="curve" smooth="yes"/>
      <point x="194" y="521"/>
      <point x="188" y="546"/>
      <point x="150" y="546" type="curve" smooth="yes"/>
      <point x="121" y="546"/>
      <point x="98" y="544"/>
      <point x="98" y="517" type="curve"/>
      <point x="151" y="518"/>
      <point x="166" y="506"/>
      <point x="166" y="517" type="curve" smooth="yes"/>
      <point x="166" y="386"/>
      <point x="115" y="244"/>
      <point x="46" y="0" type="curve"/>
      <point x="78" y="0" type="line"/>
      <point x="586" y="471" type="line"/>
      <point x="544" y="399"/>
      <point x="486" y="225"/>
      <point x="486" y="62" type="curve" smooth="yes"/>
      <point x="486" y="-2"/>
      <point x="510" y="-1"/>
    </contour>
  </outline>
</glyph>
<glyph name="afii10060" format="2">
  <advance width="914"/>
  <unicode hex="040B"/>
  <anchor x="457" y="0" name="bottom"/>
  <anchor x="457" y="714" name="top"/>
  <outline>
    <contour>
      <point x="152" y="0" type="line"/>
      <point x="481" y="0" type="line"/>
      <point x="481" y="20" type="line"/>
      <point x="384" y="20" type="line" smooth="yes"/>
      <point x="340" y="20"/>
      <point x="332" y="31"/>
      <point x="332" y="108" type="curve" smooth="yes"/>
      <point x="332" y="389" type="line"/>
      <point x="406" y="410"/>
      <point x="466" y="413"/>
      <point x="526" y="413" type="curve" smooth="yes"/>
      <point x="643" y="413"/>
      <point x="734" y="385"/>
      <point x="734" y="220" type="curve" smooth="yes"/>
      <point x="734" y="108" type="line" smooth="yes"/>
      <point x="734" y="31"/>
      <point x="728" y="20"/>
      <point x="676" y="20" type="curve" smooth="yes"/>
      <point x="615" y="20" type="line"/>
      <point x="615" y="0" type="line"/>
      <point x="873" y="0" type="line"/>
      <point x="873" y="20" type="line"/>
      <point x="820" y="20" type="line" smooth="yes"/>
      <point x="768" y="20"/>
      <point x="762" y="31"/>
      <point x="762" y="108" type="curve" smooth="yes"/>
      <point x="762" y="204" type="line" smooth="yes"/>
      <point x="762" y="386"/>
      <point x="688" y="438"/>
      <point x="526" y="438" type="curve" smooth="yes"/>
      <point x="459" y="438"/>
      <point x="381" y="429"/>
      <point x="332" y="411" type="curve"/>
      <point x="332" y="689" type="line"/>
      <point x="533" y="689" type="line" smooth="yes"/>
      <point x="561" y="689"/>
      <point x="565" y="689"/>
      <point x="569" y="624" type="curve" smooth="yes"/>
      <point x="573" y="563" type="line"/>
      <point x="593" y="563" type="line"/>
      <point x="587" y="714" type="line"/>
      <point x="49" y="714" type="line"/>
      <point x="43" y="563" type="line"/>
      <point x="67" y="563" type="line"/>
      <point x="71" y="634" type="line" smooth="yes"/>
      <point x="73" y="677"/>
      <point x="73" y="689"/>
      <point x="105" y="689" type="curve" smooth="yes"/>
      <point x="304" y="689" type="line"/>
      <point x="304" y="108" type="line" smooth="yes"/>
      <point x="304" y="31"/>
      <point x="298" y="20"/>
      <point x="248" y="20" type="curve" smooth="yes"/>
      <point x="152" y="20" type="line"/>
    </contour>
  </outline>
</glyph>
<glyph name="afii10021" format="2">
  <advance width="818"/>
  <unicode hex="0414"/>
  <anchor x="409" y="0" name="bottom"/>
  <anchor x="409" y="714" name="top"/>
  <outline>
    <contour>
      <point x="28" y="-210" type="line"/>
      <point x="48" y="-210" type="line"/>
      <point x="48" y="-50"/>
      <point x="49" y="0"/>
      <point x="30" y="0" type="curve" smooth="yes"/>
      <point x="775" y="0" type="line" smooth="yes"/>
      <point x="747" y="0"/>
      <point x="748" y="-72"/>
      <point x="748" y="-210" type="curve"/>
      <point x="768" y="-210" type="line"/>
      <point x="768" y="30" type="line"/>
      <point x="736" y="30" type="line" smooth="yes"/>
      <point x="646" y="30"/>
      <point x="630" y="39"/>
      <point x="630" y="98" type="curve" smooth="yes"/>
      <point x="630" y="597" type="line" smooth="yes"/>
      <point x="630" y="683"/>
      <point x="624" y="694"/>
      <point x="708" y="694" type="curve" smooth="yes"/>
      <point x="758" y="694" type="line"/>
      <point x="758" y="714" type="line"/>
      <point x="236" y="714" type="line"/>
      <point x="236" y="694" type="line"/>
      <point x="295" y="694" type="line" smooth="yes"/>
      <point x="358" y="694"/>
      <point x="352" y="678"/>
      <point x="352" y="621" type="curve" smooth="yes"/>
      <point x="352" y="496"/>
      <point x="158" y="61"/>
      <point x="103" y="25" type="curve"/>
      <point x="28" y="25" type="line"/>
    </contour>
    <contour>
      <point x="143" y="25" type="line"/>
      <point x="216" y="148"/>
      <point x="379" y="439"/>
      <point x="387" y="689" type="curve"/>
      <point x="602" y="689" type="line"/>
      <point x="602" y="25" type="line"/>
    </contour>
  </outline>
</glyph>
<glyph name="afii10044" format="2">
  <advance width="809"/>
  <unicode hex="042A"/>
  <anchor x="404" y="0" name="bottom"/>
  <anchor x="404" y="714" name="top"/>
  <outline>
    <contour>
      <point x="183" y="0" type="line"/>
      <point x="434" y="0" type="line" smooth="yes"/>
      <point x="621" y="0"/>
      <point x="746" y="45"/>
      <point x="746" y="191" type="curve" smooth="yes"/>
      <point x="746" y="333"/>
      <point x="656" y="388"/>
      <point x="489" y="388" type="curve" smooth="yes"/>
      <point x="328" y="388" type="line"/>
      <point x="328" y="604" type="line" smooth="yes"/>
      <point x="328" y="682"/>
      <point x="344" y="694"/>
      <point x="382" y="694" type="curve" smooth="yes"/>
      <point x="486" y="694" type="line"/>
      <point x="486" y="714" type="line"/>
      <point x="47" y="714" type="line"/>
      <point x="41" y="554" type="line"/>
      <point x="61" y="554" type="line"/>
      <point x="63" y="592" type="line" smooth="yes"/>
      <point x="67" y="671"/>
      <point x="77" y="689"/>
      <point x="113" y="689" type="curve" smooth="yes"/>
      <point x="300" y="689" type="line"/>
      <point x="300" y="108" type="line" smooth="yes"/>
      <point x="300" y="31"/>
      <point x="290" y="20"/>
      <point x="244" y="20" type="curve" smooth="yes"/>
      <point x="183" y="20" type="line"/>
    </contour>
    <contour>
      <point x="328" y="25" type="line"/>
      <point x="328" y="363" type="line"/>
      <point x="472" y="363" type="line" smooth="yes"/>
      <point x="634" y="363"/>
      <point x="718" y="322"/>
      <point x="718" y="191" type="curve" smooth="yes"/>
      <point x="718" y="73"/>
      <point x="629" y="25"/>
      <point x="444" y="25" type="curve" smooth="yes"/>
    </contour>
  </outline>
</glyph>
<glyph name="afii10067" format="2">
  <advance width="666"/>
  <unicode hex="0432"/>
  <anchor x="334" y="0" name="bottom"/>
  <anchor x="334" y="536" name="top"/>
  <outline>
    <contour>
      <point x="41" y="0" type="line"/>
      <point x="376" y="0" type="line" smooth="yes"/>
      <point x="523" y="0"/>
      <point x="594" y="60"/>
      <point x="594" y="155" type="curve" smooth="yes"/>
      <point x="594" y="219"/>
      <point x="553" y="260"/>
      <point x="448" y="271" type="curve"/>
      <point x="448" y="278" type="line"/>
      <point x="520" y="294"/>
      <point x="569" y="347"/>
      <point x="569" y="401" type="curve" smooth="yes"/>
      <point x="569" y="492"/>
      <point x="518" y="536"/>
      <point x="375" y="536" type="curve" smooth="yes"/>
      <point x="41" y="536" type="line"/>
      <point x="41" y="516" type="line"/>
      <point x="96" y="516" type="line" smooth="yes"/>
      <point x="167" y="516"/>
      <point x="173" y="512"/>
      <point x="173" y="444" type="curve" smooth="yes"/>
      <point x="173" y="92" type="line" smooth="yes"/>
      <point x="173" y="23"/>
      <point x="167" y="20"/>
      <point x="94" y="20" type="curve" smooth="yes"/>
      <point x="41" y="20" type="line"/>
    </contour>
    <contour>
      <point x="201" y="25" type="line"/>
      <point x="201" y="260" type="line"/>
      <point x="360" y="260" type="line" smooth="yes"/>
      <point x="495" y="260"/>
      <point x="566" y="224"/>
      <point x="566" y="155" type="curve" smooth="yes"/>
      <point x="566" y="79"/>
      <point x="520" y="25"/>
      <point x="362" y="25" type="curve" smooth="yes"/>
    </contour>
    <contour>
      <point x="201" y="285" type="line"/>
      <point x="201" y="511" type="line"/>
      <point x="371" y="511" type="line" smooth="yes"/>
      <point x="510" y="511"/>
      <point x="541" y="451"/>
      <point x="541" y="403" type="curve" smooth="yes"/>
      <point x="541" y="320"/>
      <point x="450" y="285"/>
      <point x="339" y="285" type="curve" smooth="yes"/>
    </contour>
  </outline>
</glyph>
<glyph name="afii10079" format="2">
  <advance width="858"/>
  <unicode hex="043D"/>
  <anchor x="429" y="0" name="bottom"/>
  <anchor x="429" y="536" name="top"/>
  <outline>
    <contour>
      <point x="41" y="0" type="line"/>
      <point x="328" y="0" type="line"/>
      <point x="328" y="20" type="line"/>
      <point x="278" y="20" type="line" smooth="yes"/>
      <point x="208" y="20"/>
      <point x="201" y="23"/>
      <point x="201" y="92" type="curve" smooth="yes"/>
      <point x="201" y="262" type="line"/>
      <point x="656" y="262" type="line"/>
      <point x="656" y="92" type="line" smooth="yes"/>
      <point x="656" y="22"/>
      <point x="652" y="20"/>
      <point x="571" y="20" type="curve" smooth="yes"/>
      <point x="530" y="20" type="line"/>
      <point x="530" y="0" type="line"/>
      <point x="817" y="0" type="line"/>
      <point x="817" y="20" type="line"/>
      <point x="760" y="20" type="line" smooth="yes"/>
      <point x="689" y="20"/>
      <point x="684" y="22"/>
      <point x="684" y="92" type="curve" smooth="yes"/>
      <point x="684" y="444" type="line" smooth="yes"/>
      <point x="684" y="512"/>
      <point x="686" y="516"/>
      <point x="764" y="516" type="curve" smooth="yes"/>
      <point x="817" y="516" type="line"/>
      <point x="817" y="536" type="line"/>
      <point x="530" y="536" type="line"/>
      <point x="530" y="516" type="line"/>
      <point x="579" y="516" type="line" smooth="yes"/>
      <point x="650" y="516"/>
      <point x="656" y="512"/>
      <point x="656" y="444" type="curve" smooth="yes"/>
      <point x="656" y="287" type="line"/>
      <point x="201" y="287" type="line"/>
      <point x="201" y="444" type="line" smooth="yes"/>
      <point x="201" y="512"/>
      <point x="205" y="516"/>
      <point x="281" y="516" type="curve" smooth="yes"/>
      <point x="328" y="516" type="line"/>
      <point x="328" y="536" type="line"/>
      <point x="41" y="536" type="line"/>
      <point x="41" y="516" type="line"/>
      <point x="104" y="516" type="line" smooth="yes"/>
      <point x="167" y="516"/>
      <point x="173" y="512"/>
      <point x="173" y="444" type="curve" smooth="yes"/>
      <point x="173" y="92" type="line" smooth="yes"/>
      <point x="173" y="23"/>
      <point x="171" y="20"/>
      <point x="88" y="20" type="curve" smooth="yes"/>
      <point x="41" y="20" type="line"/>
    </contour>
  </outline>
</glyph>
<glyph name="afii10086" format="2">
  <advance width="702"/>
  <unicode hex="0444"/>
  <anchor x="352" y="-240" name="bottom"/>
  <anchor x="352" y="760" name="top"/>
  <outline>
    <contour>
      <point x="203" y="-240" type="line"/>
      <point x="500" y="-240" type="line"/>
      <point x="500" y="-220" type="line"/>
      <point x="414" y="-220" type="line" smooth="yes"/>
      <point x="376" y="-220"/>
      <point x="366" y="-218"/>
      <point x="366" y="-140" type="curve" smooth="yes"/>
      <point x="366" y="-14" type="line"/>
      <point x="500" y="-25"/>
      <point x="620" y="69"/>
      <point x="620" y="265" type="curve" smooth="yes"/>
      <point x="620" y="467"/>
      <point x="490" y="558"/>
      <point x="366" y="546" type="curve"/>
      <point x="366" y="760" type="line"/>
      <point x="203" y="760" type="line"/>
      <point x="203" y="740" type="line"/>
      <point x="265" y="740" type="line" smooth="yes"/>
      <point x="332" y="740"/>
      <point x="338" y="738"/>
      <point x="338" y="660" type="curve" smooth="yes"/>
      <point x="338" y="546" type="line"/>
      <point x="190" y="556"/>
      <point x="82" y="455"/>
      <point x="82" y="265" type="curve" smooth="yes"/>
      <point x="82" y="75"/>
      <point x="217" y="-21"/>
      <point x="338" y="-14" type="curve"/>
      <point x="338" y="-140" type="line" smooth="yes"/>
      <point x="338" y="-218"/>
      <point x="330" y="-220"/>
      <point x="293" y="-220" type="curve" smooth="yes"/>
      <point x="203" y="-220" type="line"/>
    </contour>
    <contour>
      <point x="338" y="11" type="line"/>
      <point x="218" y="4"/>
      <point x="112" y="107"/>
      <point x="110" y="265" type="curve" smooth="yes"/>
      <point x="108" y="444"/>
      <point x="198" y="533"/>
      <point x="338" y="521" type="curve"/>
    </contour>
    <contour>
      <point x="366" y="11" type="curve"/>
      <point x="366" y="521" type="line"/>
      <point x="484" y="531"/>
      <point x="592" y="449"/>
      <point x="592" y="265" type="curve" smooth="yes"/>
      <point x="592" y="119"/>
      <point x="509" y="-2"/>
    </contour>
  </outline>
</glyph>
<glyph name="afii10090" format="2">
  <advance width="1106"/>
  <unicode hex="0448"/>
  <anchor x="553" y="0" name="bottom"/>
  <anchor x="553" y="536" name="top"/>
  <outline>
    <contour>
      <point x="41" y="0" type="line"/>
      <point x="1063" y="0" type="line"/>
      <point x="1063" y="22" type="line"/>
      <point x="1049" y="22" type="line" smooth="yes"/>
      <point x="965" y="22"/>
      <point x="931" y="32"/>
      <point x="931" y="80" type="curve" smooth="yes"/>
      <point x="931" y="444" type="line" smooth="yes"/>
      <point x="931" y="512"/>
      <point x="936" y="516"/>
      <point x="1001" y="516" type="curve" smooth="yes"/>
      <point x="1063" y="516" type="line"/>
      <point x="1063" y="536" type="line"/>
      <point x="777" y="536" type="line"/>
      <point x="777" y="516" type="line"/>
      <point x="826" y="516" type="line" smooth="yes"/>
      <point x="897" y="516"/>
      <point x="903" y="512"/>
      <point x="903" y="444" type="curve" smooth="yes"/>
      <point x="903" y="25" type="line"/>
      <point x="566" y="25" type="line"/>
      <point x="566" y="444" type="line" smooth="yes"/>
      <point x="566" y="512"/>
      <point x="569" y="516"/>
      <point x="642" y="516" type="curve" smooth="yes"/>
      <point x="692" y="516" type="line"/>
      <point x="692" y="536" type="line"/>
      <point x="401" y="536" type="line"/>
      <point x="401" y="516" type="line"/>
      <point x="455" y="516" type="line" smooth="yes"/>
      <point x="536" y="516"/>
      <point x="538" y="512"/>
      <point x="538" y="444" type="curve" smooth="yes"/>
      <point x="538" y="25" type="line"/>
      <point x="201" y="25" type="line"/>
      <point x="201" y="444" type="line" smooth="yes"/>
      <point x="201" y="511"/>
      <point x="210" y="516"/>
      <point x="268" y="516" type="curve" smooth="yes"/>
      <point x="327" y="516" type="line"/>
      <point x="327" y="536" type="line"/>
      <point x="41" y="536" type="line"/>
      <point x="41" y="516" type="line"/>
      <point x="100" y="516" type="line" smooth="yes"/>
      <point x="169" y="516"/>
      <point x="173" y="511"/>
      <point x="173" y="444" type="curve" smooth="yes"/>
      <point x="173" y="92" type="line" smooth="yes"/>
      <point x="173" y="22"/>
      <point x="169" y="20"/>
      <point x="94" y="20" type="curve" smooth="yes"/>
      <point x="41" y="20" type="line"/>
    </contour>
  </outline>
</glyph>
<glyph name="afii10094" format="2">
  <advance width="659"/>
  <unicode hex="044C"/>
  <anchor x="330" y="0" name="bottom"/>
  <anchor x="330" y="536" name="top"/>
  <outline>
    <contour>
      <point x="41" y="0" type="line"/>
      <point x="387" y="0" type="line" smooth="yes"/>
      <point x="535" y="0"/>
      <point x="594" y="69"/>
      <point x="594" y="163" type="curve" smooth="yes"/>
      <point x="594" y="267"/>
      <point x="503" y="293"/>
      <point x="388" y="293" type="curve" smooth="yes"/>
      <point x="201" y="293" type="line"/>
      <point x="201" y="444" type="line" smooth="yes"/>
      <point x="201" y="511"/>
      <point x="207" y="516"/>
      <point x="278" y="516" type="curve" smooth="yes"/>
      <point x="313" y="516" type="line"/>
      <point x="313" y="536" type="line"/>
      <point x="41" y="536" type="line"/>
      <point x="41" y="516" type="line"/>
      <point x="96" y="516" type="line" smooth="yes"/>
      <point x="171" y="516"/>
      <point x="173" y="511"/>
      <point x="173" y="444" type="curve" smooth="yes"/>
      <point x="173" y="92" type="line" smooth="yes"/>
      <point x="173" y="22"/>
      <point x="169" y="20"/>
      <point x="92" y="20" type="curve" smooth="yes"/>
      <point x="41" y="20" type="line"/>
    </contour>
    <contour>
      <point x="201" y="25" type="line"/>
      <point x="201" y="268" type="line"/>
      <point x="372" y="268" type="line" smooth="yes"/>
      <point x="509" y="268"/>
      <point x="566" y="231"/>
      <point x="566" y="163" type="curve" smooth="yes"/>
      <point x="566" y="70"/>
      <point x="517" y="25"/>
      <point x="332" y="25" type="curve" smooth="yes"/>
    </contour>
  </outline>
</glyph>
<glyph name="afii10099" format="2">
  <advance width="690"/>
  <unicode hex="0452"/>
  <anchor x="345" y="-240" name="bottom"/>
  <anchor x="345" y="760" name="top"/>
  <outline>
    <contour>
      <point x="397" y="-240" type="line"/>
      <point x="421" y="-240" type="line" smooth="yes"/>
      <point x="519" y="-240"/>
      <point x="584" y="-169"/>
      <point x="584" y="4" type="curve" smooth="yes"/>
      <point x="584" y="350" type="line" smooth="yes"/>
      <point x="584" y="486"/>
      <point x="518" y="532"/>
      <point x="389" y="532" type="curve" smooth="yes"/>
      <point x="247" y="532"/>
      <point x="193" y="466"/>
      <point x="175" y="409" type="curve"/>
      <point x="173" y="409" type="line"/>
      <point x="175" y="415"/>
      <point x="176" y="437"/>
      <point x="176" y="459" type="curve" smooth="yes"/>
      <point x="176" y="612" type="line"/>
      <point x="405" y="612" type="line"/>
      <point x="405" y="637" type="line"/>
      <point x="176" y="637" type="line"/>
      <point x="176" y="760" type="line"/>
      <point x="25" y="760" type="line"/>
      <point x="25" y="740" type="line"/>
      <point x="73" y="740" type="line" smooth="yes"/>
      <point x="141" y="740"/>
      <point x="148" y="741"/>
      <point x="148" y="660" type="curve" smooth="yes"/>
      <point x="148" y="637" type="line"/>
      <point x="30" y="637" type="line"/>
      <point x="30" y="612" type="line"/>
      <point x="148" y="612" type="line"/>
      <point x="148" y="92" type="line" smooth="yes"/>
      <point x="148" y="22"/>
      <point x="144" y="20"/>
      <point x="67" y="20" type="curve" smooth="yes"/>
      <point x="20" y="20" type="line"/>
      <point x="20" y="0" type="line"/>
      <point x="297" y="0" type="line"/>
      <point x="297" y="20" type="line"/>
      <point x="260" y="20" type="line" smooth="yes"/>
      <point x="180" y="20"/>
      <point x="176" y="22"/>
      <point x="176" y="92" type="curve" smooth="yes"/>
      <point x="176" y="325" type="line" smooth="yes"/>
      <point x="176" y="453"/>
      <point x="269" y="507"/>
      <point x="395" y="507" type="curve" smooth="yes"/>
      <point x="503" y="507"/>
      <point x="556" y="464"/>
      <point x="556" y="346" type="curve" smooth="yes"/>
      <point x="556" y="4" type="line" smooth="yes"/>
      <point x="556" y="-159"/>
      <point x="501" y="-215"/>
      <point x="414" y="-215" type="curve" smooth="yes"/>
      <point x="397" y="-215" type="line"/>
    </contour>
  </outline>
</glyph>
<glyph name="uni046D" format="2">
  <advance width="946"/>
  <unicode hex="046D"/>
  <anchor x="473" y="0" name="bottom"/>
  <anchor x="473" y="536" name="top"/>
  <outline>
    <contour>
      <point x="49" y="0" type="line"/>
      <point x="207" y="0" type="line"/>
      <point x="207" y="290" type="line"/>
      <point x="425" y="290" type="line"/>
      <point x="400" y="272"/>
      <point x="376" y="245"/>
      <point x="357" y="202" type="curve" smooth="yes"/>
      <point x="313" y="115" type="line" smooth="yes"/>
      <point x="267" y="23"/>
      <point x="253" y="30"/>
      <point x="232" y="30" type="curve" smooth="yes"/>
      <point x="223" y="30" type="line"/>
      <point x="223" y="0" type="line"/>
      <point x="232" y="0" type="line" smooth="yes"/>
      <point x="280" y="0"/>
      <point x="295" y="35"/>
      <point x="344" y="125" type="curve" smooth="yes"/>
      <point x="383" y="190" type="line" smooth="yes"/>
      <point x="432" y="286"/>
      <point x="455" y="292"/>
      <point x="551" y="292" type="curve"/>
      <point x="551" y="92" type="line" smooth="yes"/>
      <point x="551" y="22"/>
      <point x="556" y="20"/>
      <point x="528" y="20" type="curve" smooth="yes"/>
      <point x="464" y="20" type="line"/>
      <point x="464" y="0" type="line"/>
      <point x="668" y="0" type="line"/>
      <point x="668" y="20" type="line"/>
      <point x="596" y="20" type="line" smooth="yes"/>
      <point x="580" y="20"/>
      <point x="579" y="22"/>
      <point x="579" y="92" type="curve" smooth="yes"/>
      <point x="579" y="292" type="line"/>
      <point x="680" y="292"/>
      <point x="706" y="282"/>
      <point x="752" y="195" type="curve" smooth="yes"/>
      <point x="791" y="123" type="line" smooth="yes"/>
      <point x="840" y="34"/>
      <point x="854" y="0"/>
      <point x="906" y="0" type="curve" smooth="yes"/>
      <point x="924" y="0" type="line"/>
      <point x="924" y="30" type="line"/>
      <point x="905" y="30" type="line" smooth="yes"/>
      <point x="886" y="30"/>
      <point x="872" y="17"/>
      <point x="824" y="115" type="curve" smooth="yes"/>
      <point x="780" y="202" type="line" smooth="yes"/>
      <point x="737" y="296"/>
      <point x="668" y="316"/>
      <point x="621" y="315" type="curve"/>
      <point x="812" y="512" type="line"/>
      <point x="812" y="536" type="line"/>
      <point x="321" y="536" type="line"/>
      <point x="321" y="512" type="line"/>
      <point x="521" y="315" type="line"/>
      <point x="207" y="315" type="line"/>
      <point x="207" y="444" type="line" smooth="yes"/>
      <point x="207" y="512"/>
      <point x="211" y="516"/>
      <point x="281" y="516" type="curve" smooth="yes"/>
      <point x="307" y="516" type="line"/>
      <point x="307" y="536" type="line"/>
      <point x="49" y="536" type="line"/>
      <point x="49" y="516" type="line"/>
      <point x="98" y="516" type="line" smooth="yes"/>
      <point x="175" y="516"/>
      <point x="179" y="512"/>
      <point x="179" y="444" type="curve" smooth="yes"/>
      <point x="179" y="92" type="line" smooth="yes"/>
      <point x="179" y="23"/>
      <point x="179" y="20"/>
      <point x="88" y="20" type="curve" smooth="yes"/>
      <point x="49" y="20" type="line"/>
    </contour>
    <contour>
      <point x="566" y="297" type="line"/>
      <point x="354" y="514" type="line"/>
      <point x="777" y="514" type="line"/>
      <point x="567" y="297" type="line"/>
    </contour>
  </outline>
</glyph>
<glyph name="uni047A" format="2">
  <advance width="924"/>
  <unicode hex="047A"/>
  <outline>
    <contour>
      <point x="461" y="-34" type="curve" smooth="yes"/>
      <point x="477" y="-34"/>
      <point x="485" y="-29"/>
      <point x="487" y="-9" type="curve"/>
      <point x="762" y="-5"/>
      <point x="852" y="148"/>
      <point x="852" y="358" type="curve" smooth="yes"/>
      <point x="852" y="566"/>
      <point x="756" y="717"/>
      <point x="487" y="724" type="curve"/>
      <point x="485" y="745"/>
      <point x="477" y="752"/>
      <point x="461" y="752" type="curve" smooth="yes"/>
      <point x="447" y="752"/>
      <point x="439" y="747"/>
      <point x="435" y="724" type="curve"/>
      <point x="199" y="714"/>
      <point x="73" y="580"/>
      <point x="73" y="359" type="curve" smooth="yes"/>
      <point x="73" y="121"/>
      <point x="194" y="-1"/>
      <point x="437" y="-9" type="curve"/>
      <point x="439" y="-29"/>
      <point x="447" y="-34"/>
    </contour>
    <contour>
      <point x="435" y="14" type="curve"/>
      <point x="212" y="25"/>
      <point x="101" y="142"/>
      <point x="101" y="358" type="curve" smooth="yes"/>
      <point x="101" y="564"/>
      <point x="217" y="689"/>
      <point x="435" y="699" type="curve"/>
      <point x="437" y="668"/>
      <point x="445" y="663"/>
      <point x="461" y="663" type="curve" smooth="yes"/>
      <point x="480" y="663"/>
      <point x="487" y="668"/>
      <point x="489" y="699" type="curve"/>
      <point x="732" y="693"/>
      <point x="824" y="567"/>
      <point x="824" y="358" type="curve" smooth="yes"/>
      <point x="824" y="147"/>
      <point x="733" y="19"/>
      <point x="489" y="14" type="curve"/>
      <point x="487" y="46"/>
      <point x="480" y="55"/>
      <point x="461" y="55" type="curve" smooth="yes"/>
      <point x="445" y="55"/>
      <point x="435" y="46"/>
    </contour>
  </outline>
</glyph>
<glyph name="dasiapneumatacomb.cy" format="2">
  <unicode hex="0485"/>
  <anchor x="0" y="536" name="_top"/>
  <anchor x="0" y="789" name="top"/>
  <outline>
    <contour>
      <point x="53" y="591" type="curve"/>
      <point x="53" y="616" type="line"/>
      <point x="-4" y="622"/>
      <point x="-31" y="662"/>
      <point x="-31" y="685" type="curve" smooth="yes"/>
      <point x="-31" y="707"/>
      <point x="33" y="697"/>
      <point x="33" y="750" type="curve" smooth="yes"/>
      <point x="33" y="773"/>
      <point x="15" y="789"/>
      <point x="-7" y="789" type="curve" smooth="yes"/>
      <point x="-34" y="789"/>
      <point x="-53" y="754"/>
      <point x="-53" y="713" type="curve" smooth="yes"/>
      <point x="-53" y="648"/>
      <point x="-39" y="621"/>
    </contour>
  </outline>
</glyph>
<glyph name="uni048A" format="2">
  <advance width="972"/>
  <unicode hex="048A"/>
  <anchor x="487" y="0" name="bottom"/>
  <anchor x="487" y="876" name="top"/>
  <outline>
    <contour>
      <point x="756" y="-210" type="line"/>
      <point x="797" y="-210" type="line"/>
      <point x="886" y="-5" type="line"/>
      <point x="886" y="20" type="line"/>
      <point x="861" y="20" type="line"/>
      <point x="861" y="0" type="line"/>
    </contour>
    <component base="afii10026"/>
    <component base="cyrillicbreve" xOffset="127" yOffset="165"/>
  </outline>
</glyph>
<glyph name="afii10098" format="2">
  <advance width="561"/>
  <unicode hex="0491"/>
  <anchor x="281" y="0" name="bottom"/>
  <anchor x="281" y="622" name="top"/>
  <outline>
    <contour>
      <point x="41" y="0" type="line"/>
      <point x="355" y="0" type="line"/>
      <point x="355" y="20" type="line"/>
      <point x="278" y="20" type="line" smooth="yes"/>
      <point x="205" y="20"/>
      <point x="201" y="24"/>
      <point x="201" y="92" type="curve" smooth="yes"/>
      <point x="201" y="511" type="line"/>
      <point x="544" y="511" type="line"/>
      <point x="554" y="622" type="line"/>
      <point x="534" y="622" type="line"/>
      <point x="520" y="504" type="line" smooth="yes"/>
      <point x="514" y="538"/>
      <point x="502" y="536"/>
      <point x="492" y="536" type="curve" smooth="yes"/>
      <point x="41" y="536" type="line"/>
      <point x="41" y="516" type="line"/>
      <point x="112" y="516" type="line" smooth="yes"/>
      <point x="165" y="516"/>
      <point x="173" y="512"/>
      <point x="173" y="444" type="curve" smooth="yes"/>
      <point x="173" y="92" type="line" smooth="yes"/>
      <point x="173" y="22"/>
      <point x="167" y="20"/>
      <point x="100" y="20" type="curve" smooth="yes"/>
      <point x="41" y="20" type="line"/>
    </contour>
  </outline>
</glyph>
<glyph name="uni04A1" format="2">
  <advance width="714"/>
  <unicode hex="04A1"/>
  <anchor x="357" y="0" name="bottom"/>
  <anchor x="357" y="536" name="top"/>
  <outline>
    <contour>
      <point x="80" y="0" type="line"/>
      <point x="365" y="0" type="line"/>
      <point x="365" y="20" type="line"/>
      <point x="334" y="20" type="line" smooth="yes"/>
      <point x="249" y="20"/>
      <point x="247" y="22"/>
      <point x="247" y="92" type="curve" smooth="yes"/>
      <point x="247" y="257" type="line"/>
      <point x="413" y="257"/>
      <point x="464" y="256"/>
      <point x="497" y="194" type="curve" smooth="yes"/>
      <point x="569" y="50" type="line" smooth="yes"/>
      <point x="571" y="52"/>
      <point x="603" y="0"/>
      <point x="689" y="0" type="curve" smooth="yes"/>
      <point x="704" y="0" type="line"/>
      <point x="704" y="30" type="line"/>
      <point x="683" y="30" type="line" smooth="yes"/>
      <point x="636" y="30"/>
      <point x="613" y="23"/>
      <point x="576" y="94" type="curve" smooth="yes"/>
      <point x="520" y="203" type="line" smooth="yes"/>
      <point x="495" y="254"/>
      <point x="469" y="271"/>
      <point x="388" y="279" type="curve"/>
      <point x="426" y="297"/>
      <point x="451" y="342"/>
      <point x="487" y="396" type="curve" smooth="yes"/>
      <point x="527" y="455"/>
      <point x="564" y="517"/>
      <point x="615" y="517" type="curve" smooth="yes"/>
      <point x="668" y="517"/>
      <point x="685" y="496"/>
      <point x="684" y="433" type="curve"/>
      <point x="710" y="438"/>
      <point x="707" y="461"/>
      <point x="707" y="475" type="curve" smooth="yes"/>
      <point x="707" y="515"/>
      <point x="664" y="542"/>
      <point x="627" y="542" type="curve" smooth="yes"/>
      <point x="547" y="542"/>
      <point x="533" y="520"/>
      <point x="477" y="429" type="curve" smooth="yes"/>
      <point x="444" y="378"/>
      <point x="408" y="334"/>
      <point x="392" y="317" type="curve" smooth="yes"/>
      <point x="363" y="285"/>
      <point x="336" y="282"/>
      <point x="247" y="282" type="curve"/>
      <point x="247" y="444" type="line" smooth="yes"/>
      <point x="247" y="512"/>
      <point x="249" y="516"/>
      <point x="322" y="516" type="curve" smooth="yes"/>
      <point x="365" y="516" type="line"/>
      <point x="365" y="536" type="line"/>
      <point x="27" y="536" type="line"/>
      <point x="21" y="416" type="line"/>
      <point x="41" y="416" type="line"/>
      <point x="48" y="478" type="line" smooth="yes"/>
      <point x="48" y="494"/>
      <point x="51" y="511"/>
      <point x="105" y="511" type="curve" smooth="yes"/>
      <point x="219" y="511" type="line"/>
      <point x="219" y="93" type="line" smooth="yes"/>
      <point x="219" y="22"/>
      <point x="215" y="20"/>
      <point x="140" y="20" type="curve" smooth="yes"/>
      <point x="80" y="20" type="line"/>
    </contour>
  </outline>
</glyph>
<glyph name="uni04A7" format="2">
  <advance width="1045"/>
  <unicode hex="04A7"/>
  <anchor x="522" y="-240" name="bottom"/>
  <anchor x="522" y="536" name="top"/>
  <outline>
    <contour>
      <point x="739" y="-240" type="curve" smooth="yes"/>
      <point x="886" y="-240"/>
      <point x="978" y="-138"/>
      <point x="978" y="38" type="curve" smooth="yes"/>
      <point x="978" y="191"/>
      <point x="953" y="295"/>
      <point x="741" y="295" type="curve" smooth="yes"/>
      <point x="688" y="295"/>
      <point x="657" y="283"/>
      <point x="635" y="279" type="curve"/>
      <point x="635" y="442" type="line" smooth="yes"/>
      <point x="635" y="510"/>
      <point x="635" y="514"/>
      <point x="719" y="514" type="curve" smooth="yes"/>
      <point x="768" y="514" type="line"/>
      <point x="768" y="536" type="line"/>
      <point x="41" y="536" type="line"/>
      <point x="41" y="516" type="line"/>
      <point x="96" y="516" type="line" smooth="yes"/>
      <point x="171" y="516"/>
      <point x="173" y="512"/>
      <point x="173" y="444" type="curve" smooth="yes"/>
      <point x="173" y="92" type="line" smooth="yes"/>
      <point x="173" y="23"/>
      <point x="171" y="20"/>
      <point x="88" y="20" type="curve" smooth="yes"/>
      <point x="41" y="20" type="line"/>
      <point x="41" y="0" type="line"/>
      <point x="328" y="0" type="line"/>
      <point x="328" y="20" type="line"/>
      <point x="284" y="20" type="line" smooth="yes"/>
      <point x="206" y="20"/>
      <point x="201" y="23"/>
      <point x="201" y="92" type="curve" smooth="yes"/>
      <point x="201" y="511" type="line"/>
      <point x="607" y="511" type="line"/>
      <point x="607" y="92" type="line" smooth="yes"/>
      <point x="607" y="22"/>
      <point x="603" y="20"/>
      <point x="520" y="20" type="curve" smooth="yes"/>
      <point x="481" y="20" type="line"/>
      <point x="481" y="0" type="line"/>
      <point x="768" y="0" type="line"/>
      <point x="768" y="20" type="line"/>
      <point x="717" y="20" type="line" smooth="yes"/>
      <point x="638" y="20"/>
      <point x="635" y="22"/>
      <point x="635" y="92" type="curve" smooth="yes"/>
      <point x="635" y="255" type="line"/>
      <point x="657" y="258"/>
      <point x="694" y="270"/>
      <point x="741" y="270" type="curve" smooth="yes"/>
      <point x="936" y="270"/>
      <point x="950" y="158"/>
      <point x="950" y="45" type="curve" smooth="yes"/>
      <point x="950" y="-108"/>
      <point x="879" y="-217"/>
      <point x="742" y="-217" type="curve" smooth="yes"/>
      <point x="682" y="-217"/>
      <point x="625" y="-205"/>
      <point x="625" y="-107" type="curve"/>
      <point x="620" y="-107"/>
      <point x="602" y="-123"/>
      <point x="602" y="-156" type="curve" smooth="yes"/>
      <point x="602" y="-234"/>
      <point x="678" y="-240"/>
    </contour>
  </outline>
</glyph>
<glyph name="uni04A9" format="2">
  <advance width="638"/>
  <unicode hex="04A9"/>
  <anchor x="320" y="0" name="bottom"/>
  <anchor x="320" y="536" name="top"/>
  <outline>
    <contour>
      <point x="467" y="-30" type="curve" smooth="yes"/>
      <point x="560" y="-30"/>
      <point x="570" y="-2"/>
      <point x="570" y="11" type="curve" smooth="yes"/>
      <point x="570" y="18"/>
      <point x="567" y="25"/>
      <point x="564" y="31" type="curve"/>
      <point x="546" y="18"/>
      <point x="525" y="-5"/>
      <point x="479" y="-5" type="curve" smooth="yes"/>
      <point x="454" y="-5"/>
      <point x="433" y="-2"/>
      <point x="415" y="5" type="curve"/>
      <point x="522" y="53"/>
      <point x="560" y="180"/>
      <point x="560" y="230" type="curve" smooth="yes"/>
      <point x="560" y="388"/>
      <point x="524" y="434"/>
      <point x="435" y="434" type="curve" smooth="yes"/>
      <point x="349" y="434"/>
      <point x="289" y="366"/>
      <point x="289" y="216" type="curve" smooth="yes"/>
      <point x="289" y="157"/>
      <point x="313" y="71"/>
      <point x="362" y="17" type="curve"/>
      <point x="351" y="15"/>
      <point x="339" y="15"/>
      <point x="328" y="15" type="curve" smooth="yes"/>
      <point x="158" y="15"/>
      <point x="110" y="136"/>
      <point x="110" y="266" type="curve" smooth="yes"/>
      <point x="110" y="445"/>
      <point x="186" y="516"/>
      <point x="334" y="516" type="curve" smooth="yes"/>
      <point x="367" y="516"/>
      <point x="379" y="505"/>
      <point x="402" y="498" type="curve"/>
      <point x="402" y="498"/>
      <point x="407" y="503"/>
      <point x="407" y="508" type="curve" smooth="yes"/>
      <point x="407" y="539"/>
      <point x="370" y="541"/>
      <point x="330" y="541" type="curve" smooth="yes"/>
      <point x="185" y="541"/>
      <point x="82" y="461"/>
      <point x="82" y="265" type="curve" smooth="yes"/>
      <point x="82" y="84"/>
      <point x="176" y="-10"/>
      <point x="326" y="-10" type="curve" smooth="yes"/>
      <point x="347" y="-10"/>
      <point x="367" y="-6"/>
      <point x="385" y="-3" type="curve"/>
      <point x="409" y="-19"/>
      <point x="435" y="-30"/>
    </contour>
    <contour>
      <point x="389" y="17" type="curve"/>
      <point x="335" y="62"/>
      <point x="315" y="154"/>
      <point x="315" y="218" type="curve" smooth="yes"/>
      <point x="315" y="369"/>
      <point x="363" y="409"/>
      <point x="435" y="409" type="curve" smooth="yes"/>
      <point x="489" y="409"/>
      <point x="534" y="392"/>
      <point x="534" y="230" type="curve" smooth="yes"/>
      <point x="534" y="163"/>
      <point x="484" y="51"/>
    </contour>
  </outline>
</glyph>
<glyph name="uni04B6" format="2">
  <advance width="900"/>
  <unicode hex="04B6"/>
  <anchor x="450" y="0" name="bottom"/>
  <anchor x="450" y="714" name="top"/>
  <outline>
    <contour>
      <point x="831" y="-210" type="curve"/>
      <point x="851" y="-210" type="line"/>
      <point x="851" y="30" type="line"/>
      <point x="774" y="30" type="line" smooth="yes"/>
      <point x="716" y="30"/>
      <point x="712" y="31"/>
      <point x="712" y="110" type="curve" smooth="yes"/>
      <point x="712" y="604" type="line" smooth="yes"/>
      <point x="712" y="683"/>
      <point x="716" y="694"/>
      <point x="770" y="694" type="curve" smooth="yes"/>
      <point x="832" y="694" type="line"/>
      <point x="832" y="714" type="line"/>
      <point x="561" y="714" type="line"/>
      <point x="561" y="694" type="line"/>
      <point x="626" y="694" type="line" smooth="yes"/>
      <point x="678" y="694"/>
      <point x="684" y="683"/>
      <point x="684" y="604" type="curve" smooth="yes"/>
      <point x="684" y="365" type="line"/>
      <point x="567" y="294"/>
      <point x="470" y="279"/>
      <point x="332" y="279" type="curve" smooth="yes"/>
      <point x="257" y="279"/>
      <point x="200" y="308"/>
      <point x="200" y="402" type="curve" smooth="yes"/>
      <point x="200" y="604" type="line" smooth="yes"/>
      <point x="200" y="683"/>
      <point x="202" y="694"/>
      <point x="260" y="694" type="curve" smooth="yes"/>
      <point x="311" y="694" type="line"/>
      <point x="311" y="714" type="line"/>
      <point x="49" y="714" type="line"/>
      <point x="49" y="694" type="line"/>
      <point x="116" y="694" type="line" smooth="yes"/>
      <point x="164" y="694"/>
      <point x="172" y="683"/>
      <point x="172" y="604" type="curve" smooth="yes"/>
      <point x="172" y="386" type="line" smooth="yes"/>
      <point x="172" y="303"/>
      <point x="227" y="252"/>
      <point x="322" y="252" type="curve" smooth="yes"/>
      <point x="469" y="252"/>
      <point x="567" y="265"/>
      <point x="684" y="333" type="curve"/>
      <point x="684" y="108" type="line" smooth="yes"/>
      <point x="684" y="31"/>
      <point x="678" y="20"/>
      <point x="630" y="20" type="curve" smooth="yes"/>
      <point x="537" y="20" type="line"/>
      <point x="537" y="0" type="line"/>
      <point x="848" y="0" type="line" smooth="yes"/>
      <point x="842" y="0"/>
      <point x="831" y="-34"/>
    </contour>
  </outline>
</glyph>
<glyph name="uni04B7" format="2">
  <advance width="733"/>
  <unicode hex="04B7"/>
  <anchor x="366" y="0" name="bottom"/>
  <anchor x="366" y="536" name="top"/>
  <outline>
    <contour>
      <point x="676" y="-210" type="line"/>
      <point x="696" y="-210" type="line"/>
      <point x="696" y="30" type="line"/>
      <point x="562" y="30" type="line" smooth="yes"/>
      <point x="570" y="30"/>
      <point x="562" y="36"/>
      <point x="562" y="92" type="curve" smooth="yes"/>
      <point x="562" y="444" type="line" smooth="yes"/>
      <point x="562" y="512"/>
      <point x="562" y="516"/>
      <point x="646" y="516" type="curve" smooth="yes"/>
      <point x="695" y="516" type="line"/>
      <point x="695" y="536" type="line"/>
      <point x="410" y="536" type="line"/>
      <point x="410" y="516" type="line"/>
      <point x="449" y="516" type="line" smooth="yes"/>
      <point x="532" y="516"/>
      <point x="534" y="512"/>
      <point x="534" y="444" type="curve" smooth="yes"/>
      <point x="534" y="257" type="line"/>
      <point x="450" y="234"/>
      <point x="402" y="216"/>
      <point x="329" y="216" type="curve" smooth="yes"/>
      <point x="227" y="216"/>
      <point x="176" y="244"/>
      <point x="176" y="316" type="curve" smooth="yes"/>
      <point x="176" y="458" type="line" smooth="yes"/>
      <point x="176" y="506"/>
      <point x="188" y="516"/>
      <point x="234" y="516" type="curve" smooth="yes"/>
      <point x="296" y="516" type="line"/>
      <point x="296" y="536" type="line"/>
      <point x="10" y="536" type="line"/>
      <point x="10" y="516" type="line"/>
      <point x="89" y="516" type="line" smooth="yes"/>
      <point x="140" y="516"/>
      <point x="148" y="506"/>
      <point x="148" y="458" type="curve" smooth="yes"/>
      <point x="148" y="312" type="line" smooth="yes"/>
      <point x="148" y="234"/>
      <point x="211" y="191"/>
      <point x="313" y="191" type="curve" smooth="yes"/>
      <point x="392" y="191"/>
      <point x="470" y="212"/>
      <point x="534" y="239" type="curve"/>
      <point x="534" y="92" type="line" smooth="yes"/>
      <point x="534" y="22"/>
      <point x="530" y="20"/>
      <point x="447" y="20" type="curve" smooth="yes"/>
      <point x="402" y="20" type="line"/>
      <point x="402" y="0" type="line"/>
      <point x="701" y="0" type="line" smooth="yes"/>
      <point x="660" y="0"/>
      <point x="660" y="26"/>
      <point x="661" y="90" type="curve" smooth="yes"/>
    </contour>
  </outline>
</glyph>
<glyph name="uni04C5" format="2">
  <advance width="829"/>
  <unicode hex="04C5"/>
  <anchor x="414" y="0" name="bottom"/>
  <anchor x="414" y="714" name="top"/>
  <outline>
    <contour>
      <point x="619" y="-210" type="line"/>
      <point x="661" y="-210" type="line"/>
      <point x="751" y="0" type="line"/>
      <point x="751" y="20" type="line"/>
      <point x="728" y="20" type="line"/>
      <point x="728" y="0" type="line"/>
    </contour>
    <component base="afii10029"/>
  </outline>
</glyph>
<glyph name="uni04CE" format="2">
  <advance width="847"/>
  <unicode hex="04CE"/>
  <anchor x="424" y="0" name="bottom"/>
  <anchor x="424" y="536" name="top"/>
  <outline>
    <contour>
      <point x="648" y="-210" type="line"/>
      <point x="688" y="-210" type="line"/>
      <point x="778" y="0" type="line"/>
      <point x="778" y="20" type="line"/>
      <point x="759" y="20" type="line"/>
      <point x="752" y="0" type="line"/>
    </contour>
    <component base="afii10078"/>
  </outline>
</glyph>
<glyph name="uni04E0" format="2">
  <advance width="674"/>
  <unicode hex="04E0"/>
  <anchor x="338" y="0" name="bottom"/>
  <anchor x="338" y="714" name="top"/>
  <outline>
    <contour>
      <point x="308" y="-8" type="curve" smooth="yes"/>
      <point x="461" y="-8"/>
      <point x="567" y="98"/>
      <point x="567" y="211" type="curve" smooth="yes"/>
      <point x="567" y="295"/>
      <point x="534" y="399"/>
      <point x="278" y="399" type="curve"/>
      <point x="578" y="699" type="line"/>
      <point x="578" y="714" type="line"/>
      <point x="122" y="714" type="line"/>
      <point x="115" y="564" type="line"/>
      <point x="135" y="564" type="line"/>
      <point x="142" y="632" type="line" smooth="yes"/>
      <point x="148" y="678"/>
      <point x="156" y="692"/>
      <point x="184" y="692" type="curve" smooth="yes"/>
      <point x="534" y="692" type="line"/>
      <point x="245" y="400" type="line"/>
      <point x="244" y="372" type="line"/>
      <point x="285" y="372" type="line" smooth="yes"/>
      <point x="479" y="372"/>
      <point x="539" y="308"/>
      <point x="539" y="217" type="curve" smooth="yes"/>
      <point x="539" y="115"/>
      <point x="436" y="17"/>
      <point x="306" y="17" type="curve" smooth="yes"/>
      <point x="192" y="17"/>
      <point x="104" y="62"/>
      <point x="102" y="154" type="curve"/>
      <point x="81" y="154"/>
      <point x="72" y="151"/>
      <point x="72" y="130" type="curve" smooth="yes"/>
      <point x="72" y="40"/>
      <point x="177" y="-8"/>
    </contour>
  </outline>
</glyph>
<glyph name="uni0502" format="2">
  <advance width="917"/>
  <unicode hex="0502"/>
  <anchor x="459" y="0" name="bottom"/>
  <anchor x="459" y="714" name="top"/>
  <outline>
    <contour>
      <point x="282" y="-10" type="curve" smooth="yes"/>
      <point x="397" y="-10"/>
      <point x="460" y="19"/>
      <point x="487" y="71" type="curve"/>
      <point x="491" y="71" type="line"/>
      <point x="513" y="3"/>
      <point x="570" y="-10"/>
      <point x="623" y="-10" type="curve" smooth="yes"/>
      <point x="707" y="-10"/>
      <point x="776" y="33"/>
      <point x="776" y="73" type="curve" smooth="yes"/>
      <point x="776" y="318" type="line" smooth="yes"/>
      <point x="776" y="359"/>
      <point x="786" y="364"/>
      <point x="826" y="364" type="curve" smooth="yes"/>
      <point x="899" y="364" type="line"/>
      <point x="899" y="384" type="line"/>
      <point x="640" y="384" type="line"/>
      <point x="640" y="364" type="line"/>
      <point x="692" y="364" type="line" smooth="yes"/>
      <point x="740" y="364"/>
      <point x="748" y="359"/>
      <point x="748" y="318" type="curve" smooth="yes"/>
      <point x="748" y="82" type="line" smooth="yes"/>
      <point x="748" y="45"/>
      <point x="706" y="15"/>
      <point x="623" y="15" type="curve" smooth="yes"/>
      <point x="562" y="15"/>
      <point x="509" y="34"/>
      <point x="509" y="125" type="curve" smooth="yes"/>
      <point x="507" y="604" type="line" smooth="yes"/>
      <point x="507" y="683"/>
      <point x="515" y="694"/>
      <point x="557" y="694" type="curve" smooth="yes"/>
      <point x="629" y="694" type="line"/>
      <point x="629" y="714" type="line"/>
      <point x="345" y="714" type="line"/>
      <point x="345" y="694" type="line"/>
      <point x="421" y="694" type="line" smooth="yes"/>
      <point x="477" y="694"/>
      <point x="479" y="683"/>
      <point x="479" y="604" type="curve" smooth="yes"/>
      <point x="479" y="391" type="line"/>
      <point x="331" y="391" type="line" smooth="yes"/>
      <point x="146" y="391"/>
      <point x="63" y="341"/>
      <point x="63" y="203" type="curve" smooth="yes"/>
      <point x="63" y="82"/>
      <point x="113" y="-10"/>
    </contour>
    <contour>
      <point x="292" y="15" type="curve" smooth="yes"/>
      <point x="105" y="15"/>
      <point x="91" y="121"/>
      <point x="91" y="203" type="curve" smooth="yes"/>
      <point x="91" y="329"/>
      <point x="169" y="366"/>
      <point x="343" y="366" type="curve" smooth="yes"/>
      <point x="479" y="366" type="line"/>
      <point x="479" y="161" type="line"/>
      <point x="479" y="7"/>
      <point x="369" y="15"/>
    </contour>
  </outline>
</glyph>
<glyph name="uni0507" format="2">
  <advance width="558"/>
  <unicode hex="0507"/>
  <anchor x="279" y="0" name="bottom"/>
  <anchor x="279" y="536" name="top"/>
  <outline>
    <contour>
      <point x="502" y="-210" type="line"/>
      <point x="520" y="-210" type="line"/>
      <point x="520" y="30" type="line"/>
      <point x="422" y="30" type="line" smooth="yes"/>
      <point x="424" y="30"/>
      <point x="424" y="30"/>
      <point x="424" y="92" type="curve" smooth="yes"/>
      <point x="424" y="142" type="line" smooth="yes"/>
      <point x="424" y="230"/>
      <point x="399" y="276"/>
      <point x="319" y="288" type="curve"/>
      <point x="319" y="293" type="line"/>
      <point x="366" y="304"/>
      <point x="415" y="330"/>
      <point x="415" y="413" type="curve" smooth="yes"/>
      <point x="415" y="489"/>
      <point x="356" y="545"/>
      <point x="235" y="545" type="curve" smooth="yes"/>
      <point x="150" y="545"/>
      <point x="43" y="516"/>
      <point x="43" y="440" type="curve" smooth="yes"/>
      <point x="43" y="421"/>
      <point x="47" y="410"/>
      <point x="56" y="410" type="curve"/>
      <point x="56" y="479"/>
      <point x="153" y="520"/>
      <point x="239" y="520" type="curve" smooth="yes"/>
      <point x="344" y="520"/>
      <point x="387" y="457"/>
      <point x="387" y="419" type="curve" smooth="yes"/>
      <point x="387" y="329"/>
      <point x="324" y="302"/>
      <point x="249" y="302" type="curve" smooth="yes"/>
      <point x="205" y="302" type="line"/>
      <point x="205" y="277" type="line"/>
      <point x="243" y="277" type="line" smooth="yes"/>
      <point x="358" y="277"/>
      <point x="396" y="217"/>
      <point x="396" y="139" type="curve" smooth="yes"/>
      <point x="396" y="0" type="line"/>
      <point x="527" y="0" type="line" smooth="yes"/>
      <point x="498" y="0"/>
      <point x="484" y="12"/>
      <point x="483" y="116" type="curve" smooth="yes"/>
    </contour>
  </outline>
</glyph>
<glyph name="uni050B" format="2">
  <advance width="1079"/>
  <unicode hex="050B"/>
  <anchor x="539" y="0" name="bottom"/>
  <anchor x="539" y="536" name="top"/>
  <outline>
    <contour>
      <point x="795" y="-10" type="curve" smooth="yes"/>
      <point x="892" y="-10"/>
      <point x="946" y="37"/>
      <point x="946" y="88" type="curve" smooth="yes"/>
      <point x="946" y="257" type="line" smooth="yes"/>
      <point x="946" y="305"/>
      <point x="960" y="315"/>
      <point x="973" y="315" type="curve" smooth="yes"/>
      <point x="1066" y="315" type="line"/>
      <point x="1066" y="335" type="line"/>
      <point x="791" y="335" type="line"/>
      <point x="791" y="315" type="line"/>
      <point x="891" y="315" type="line" smooth="yes"/>
      <point x="914" y="315"/>
      <point x="918" y="304"/>
      <point x="918" y="257" type="curve" smooth="yes"/>
      <point x="918" y="82" type="line" smooth="yes"/>
      <point x="918" y="35"/>
      <point x="877" y="15"/>
      <point x="795" y="15" type="curve" smooth="yes"/>
      <point x="722" y="15"/>
      <point x="684" y="32"/>
      <point x="684" y="137" type="curve" smooth="yes"/>
      <point x="684" y="444" type="line" smooth="yes"/>
      <point x="684" y="512"/>
      <point x="686" y="516"/>
      <point x="770" y="516" type="curve" smooth="yes"/>
      <point x="817" y="516" type="line"/>
      <point x="817" y="536" type="line"/>
      <point x="530" y="536" type="line"/>
      <point x="530" y="516" type="line"/>
      <point x="569" y="516" type="line" smooth="yes"/>
      <point x="652" y="516"/>
      <point x="656" y="512"/>
      <point x="656" y="444" type="curve" smooth="yes"/>
      <point x="656" y="287" type="line"/>
      <point x="201" y="287" type="line"/>
      <point x="201" y="444" type="line" smooth="yes"/>
      <point x="201" y="512"/>
      <point x="203" y="516"/>
      <point x="287" y="516" type="curve" smooth="yes"/>
      <point x="328" y="516" type="line"/>
      <point x="328" y="536" type="line"/>
      <point x="41" y="536" type="line"/>
      <point x="41" y="516" type="line"/>
      <point x="96" y="516" type="line" smooth="yes"/>
      <point x="171" y="516"/>
      <point x="173" y="512"/>
      <point x="173" y="444" type="curve" smooth="yes"/>
      <point x="173" y="92" type="line" smooth="yes"/>
      <point x="173" y="23"/>
      <point x="171" y="20"/>
      <point x="88" y="20" type="curve" smooth="yes"/>
      <point x="41" y="20" type="line"/>
      <point x="41" y="0" type="line"/>
      <point x="328" y="0" type="line"/>
      <point x="328" y="20" type="line"/>
      <point x="284" y="20" type="line" smooth="yes"/>
      <point x="206" y="20"/>
      <point x="201" y="23"/>
      <point x="201" y="92" type="curve" smooth="yes"/>
      <point x="201" y="262" type="line"/>
      <point x="656" y="262" type="line"/>
      <point x="656" y="160" type="line" smooth="yes"/>
      <point x="656" y="-8"/>
      <point x="724" y="-10"/>
    </contour>
  </outline>
</glyph>
<glyph name="uni0522" format="2">
  <advance width="1165"/>
  <unicode hex="0522"/>
  <anchor x="583" y="-242" name="bottom"/>
  <anchor x="583" y="714" name="top"/>
  <outline>
    <contour>
      <point x="793" y="-242" type="curve" smooth="yes"/>
      <point x="1024" y="-242"/>
      <point x="1098" y="-67"/>
      <point x="1098" y="115" type="curve" smooth="yes"/>
      <point x="1098" y="274"/>
      <point x="1064" y="396"/>
      <point x="803" y="396" type="curve" smooth="yes"/>
      <point x="749" y="396"/>
      <point x="688" y="380"/>
      <point x="648" y="364" type="curve"/>
      <point x="648" y="604" type="line" smooth="yes"/>
      <point x="648" y="683"/>
      <point x="654" y="694"/>
      <point x="704" y="694" type="curve" smooth="yes"/>
      <point x="767" y="694" type="line"/>
      <point x="767" y="714" type="line"/>
      <point x="495" y="714" type="line"/>
      <point x="495" y="694" type="line"/>
      <point x="566" y="694" type="line" smooth="yes"/>
      <point x="614" y="694"/>
      <point x="620" y="683"/>
      <point x="620" y="604" type="curve" smooth="yes"/>
      <point x="620" y="386" type="line"/>
      <point x="216" y="386" type="line"/>
      <point x="216" y="604" type="line" smooth="yes"/>
      <point x="216" y="683"/>
      <point x="220" y="694"/>
      <point x="274" y="694" type="curve" smooth="yes"/>
      <point x="337" y="694" type="line"/>
      <point x="337" y="714" type="line"/>
      <point x="63" y="714" type="line"/>
      <point x="63" y="694" type="line"/>
      <point x="130" y="694" type="line" smooth="yes"/>
      <point x="182" y="694"/>
      <point x="188" y="683"/>
      <point x="188" y="604" type="curve" smooth="yes"/>
      <point x="188" y="108" type="line" smooth="yes"/>
      <point x="188" y="31"/>
      <point x="184" y="20"/>
      <point x="128" y="20" type="curve" smooth="yes"/>
      <point x="63" y="20" type="line"/>
      <point x="63" y="0" type="line"/>
      <point x="337" y="0" type="line"/>
      <point x="337" y="20" type="line"/>
      <point x="272" y="20" type="line" smooth="yes"/>
      <point x="222" y="20"/>
      <point x="216" y="31"/>
      <point x="216" y="108" type="curve" smooth="yes"/>
      <point x="216" y="361" type="line"/>
      <point x="620" y="361" type="line"/>
      <point x="620" y="108" type="line" smooth="yes"/>
      <point x="620" y="31"/>
      <point x="614" y="20"/>
      <point x="564" y="20" type="curve" smooth="yes"/>
      <point x="503" y="20" type="line"/>
      <point x="503" y="0" type="line"/>
      <point x="767" y="0" type="line"/>
      <point x="767" y="20" type="line"/>
      <point x="704" y="20" type="line" smooth="yes"/>
      <point x="654" y="20"/>
      <point x="648" y="31"/>
      <point x="648" y="108" type="curve" smooth="yes"/>
      <point x="648" y="338" type="line"/>
      <point x="686" y="354"/>
      <point x="751" y="371"/>
      <point x="805" y="371" type="curve" smooth="yes"/>
      <point x="1042" y="371"/>
      <point x="1070" y="249"/>
      <point x="1070" y="117" type="curve" smooth="yes"/>
      <point x="1070" y="-39"/>
      <point x="1007" y="-217"/>
      <point x="795" y="-217" type="curve" smooth="yes"/>
      <point x="724" y="-217"/>
      <point x="638" y="-192"/>
      <point x="638" y="-98" type="curve"/>
      <point x="632" y="-98"/>
      <point x="611" y="-114"/>
      <point x="611" y="-136" type="curve" smooth="yes"/>
      <point x="611" y="-216"/>
      <point x="694" y="-242"/>
    </contour>
  </outline>
</glyph>
<glyph name="uni0526" format="2">
  <advance width="900"/>
  <unicode hex="0526"/>
  <anchor x="450" y="0" name="bottom"/>
  <anchor x="450" y="714" name="top"/>
  <outline>
    <contour>
      <point x="848" y="-210" type="curve"/>
      <point x="868" y="-210" type="line"/>
      <point x="868" y="30" type="line"/>
      <point x="803" y="30" type="line" smooth="yes"/>
      <point x="731" y="30"/>
      <point x="729" y="31"/>
      <point x="729" y="110" type="curve" smooth="yes"/>
      <point x="729" y="328" type="line" smooth="yes"/>
      <point x="729" y="411"/>
      <point x="674" y="462"/>
      <point x="579" y="462" type="curve" smooth="yes"/>
      <point x="432" y="462"/>
      <point x="334" y="449"/>
      <point x="217" y="381" type="curve"/>
      <point x="217" y="604" type="line" smooth="yes"/>
      <point x="217" y="683"/>
      <point x="221" y="694"/>
      <point x="275" y="694" type="curve" smooth="yes"/>
      <point x="362" y="694" type="line"/>
      <point x="362" y="714" type="line"/>
      <point x="63" y="714" type="line"/>
      <point x="63" y="694" type="line"/>
      <point x="131" y="694" type="line" smooth="yes"/>
      <point x="185" y="694"/>
      <point x="189" y="683"/>
      <point x="189" y="604" type="curve" smooth="yes"/>
      <point x="189" y="108" type="line" smooth="yes"/>
      <point x="189" y="31"/>
      <point x="183" y="20"/>
      <point x="133" y="20" type="curve" smooth="yes"/>
      <point x="81" y="20" type="line"/>
      <point x="81" y="0" type="line"/>
      <point x="340" y="0" type="line"/>
      <point x="340" y="20" type="line"/>
      <point x="273" y="20" type="line" smooth="yes"/>
      <point x="223" y="20"/>
      <point x="217" y="31"/>
      <point x="217" y="108" type="curve" smooth="yes"/>
      <point x="217" y="349" type="line"/>
      <point x="334" y="420"/>
      <point x="431" y="435"/>
      <point x="569" y="435" type="curve" smooth="yes"/>
      <point x="644" y="435"/>
      <point x="701" y="406"/>
      <point x="701" y="312" type="curve" smooth="yes"/>
      <point x="701" y="108" type="line" smooth="yes"/>
      <point x="701" y="31"/>
      <point x="695" y="20"/>
      <point x="645" y="20" type="curve" smooth="yes"/>
      <point x="590" y="20" type="line"/>
      <point x="590" y="0" type="line"/>
      <point x="875" y="0" type="line" smooth="yes"/>
      <point x="847" y="0"/>
      <point x="848" y="-26"/>
    </contour>
  </outline>
</glyph>
<glyph name="uni052C" format="2">
  <advance width="897"/>
  <unicode hex="052C"/>
  <anchor x="448" y="-210" name="bottom"/>
  <anchor x="448" y="714" name="top"/>
  <outline>
    <contour>
      <point x="43" y="-210" type="line"/>
      <point x="63" y="-210" type="line"/>
      <point x="65" y="-34"/>
      <point x="62" y="0"/>
      <point x="41" y="0" type="curve" smooth="yes"/>
      <point x="845" y="0" type="line" smooth="yes"/>
      <point x="807" y="0"/>
      <point x="812" y="-26"/>
      <point x="812" y="-210" type="curve"/>
      <point x="832" y="-210" type="line"/>
      <point x="832" y="30" type="line"/>
      <point x="722" y="30" type="line" smooth="yes"/>
      <point x="702" y="30"/>
      <point x="694" y="31"/>
      <point x="694" y="108" type="curve" smooth="yes"/>
      <point x="694" y="601" type="line" smooth="yes"/>
      <point x="694" y="683"/>
      <point x="702" y="694"/>
      <point x="746" y="694" type="curve" smooth="yes"/>
      <point x="822" y="694" type="line"/>
      <point x="822" y="714" type="line"/>
      <point x="645" y="714" type="line"/>
      <point x="118" y="25" type="line"/>
      <point x="43" y="25" type="line"/>
    </contour>
    <contour>
      <point x="157" y="25" type="line"/>
      <point x="666" y="695" type="line"/>
      <point x="666" y="25" type="line"/>
    </contour>
    <contour>
      <point x="352" y="254" type="curve" smooth="yes"/>
      <point x="473" y="254"/>
      <point x="533" y="245"/>
      <point x="710" y="339" type="curve"/>
      <point x="710" y="371" type="line"/>
      <point x="549" y="278"/>
      <point x="472" y="279"/>
      <point x="356" y="279" type="curve" smooth="yes"/>
      <point x="253" y="279"/>
      <point x="176" y="294"/>
      <point x="176" y="352" type="curve" smooth="yes"/>
      <point x="176" y="604" type="line" smooth="yes"/>
      <point x="176" y="683"/>
      <point x="184" y="694"/>
      <point x="226" y="694" type="curve" smooth="yes"/>
      <point x="297" y="694" type="line"/>
      <point x="297" y="714" type="line"/>
      <point x="25" y="714" type="line"/>
      <point x="25" y="694" type="line"/>
      <point x="98" y="694" type="line" smooth="yes"/>
      <point x="140" y="694"/>
      <point x="148" y="683"/>
      <point x="148" y="604" type="curve" smooth="yes"/>
      <point x="148" y="360" type="line" smooth="yes"/>
      <point x="148" y="343"/>
      <point x="179" y="254"/>
    </contour>
  </outline>
</glyph>
<glyph name="uni1AB1" format="2">
  <unicode hex="1AB1"/>
  <anchor x="-1" y="536" name="_top"/>
  <anchor x="-1" y="814" name="top"/>
  <outline>
    <contour>
      <point x="0" y="596" type="curve" smooth="yes"/>
      <point x="73" y="596"/>
      <point x="135" y="634"/>
      <point x="135" y="705" type="curve" smooth="yes"/>
      <point x="135" y="776"/>
      <point x="73" y="814"/>
      <point x="0" y="814" type="curve" smooth="yes"/>
      <point x="-73" y="814"/>
      <point x="-135" y="776"/>
      <point x="-135" y="705" type="curve" smooth="yes"/>
      <point x="-135" y="634"/>
      <point x="-73" y="596"/>
    </contour>
    <contour>
      <point x="-208" y="642" type="curve" smooth="yes"/>
      <point x="-190" y="642"/>
      <point x="-173" y="660"/>
      <point x="-173" y="678" type="curve" smooth="yes"/>
      <point x="-173" y="690"/>
      <point x="-190" y="708"/>
      <point x="-208" y="708" type="curve" smooth="yes"/>
      <point x="-233" y="708"/>
      <point x="-244" y="690"/>
      <point x="-244" y="678" type="curve" smooth="yes"/>
      <point x="-244" y="660"/>
      <point x="-233" y="642"/>
    </contour>
    <contour>
      <point x="-1" y="621" type="curve" smooth="yes"/>
      <point x="-61" y="621"/>
      <point x="-109" y="657"/>
      <point x="-109" y="705" type="curve" smooth="yes"/>
      <point x="-109" y="752"/>
      <point x="-61" y="787"/>
      <point x="-1" y="787" type="curve" smooth="yes"/>
      <point x="62" y="787"/>
      <point x="109" y="752"/>
      <point x="109" y="705" type="curve" smooth="yes"/>
      <point x="109" y="657"/>
      <point x="62" y="621"/>
    </contour>
    <contour>
      <point x="208" y="642" type="curve" smooth="yes"/>
      <point x="230" y="642"/>
      <point x="243" y="660"/>
      <point x="243" y="678" type="curve" smooth="yes"/>
      <point x="243" y="690"/>
      <point x="230" y="708"/>
      <point x="208" y="708" type="curve" smooth="yes"/>
      <point x="188" y="708"/>
      <point x="173" y="690"/>
      <point x="173" y="678" type="curve" smooth="yes"/>
      <point x="173" y="660"/>
      <point x="188" y="642"/>
    </contour>
  </outline>
</glyph>
<glyph name="uni1D07" format="2">
  <advance width="597"/>
  <unicode hex="1D07"/>
  <anchor x="299" y="0" name="bottom"/>
  <anchor x="299" y="536" name="top"/>
  <outline>
    <contour>
      <point x="52" y="0" type="line"/>
      <point x="539" y="0" type="line"/>
      <point x="545" y="128" type="line"/>
      <point x="525" y="128" type="line"/>
      <point x="520" y="41" type="line" smooth="yes"/>
      <point x="523" y="44"/>
      <point x="507" y="25"/>
      <point x="453" y="25" type="curve" smooth="yes"/>
      <point x="183" y="25" type="line"/>
      <point x="183" y="270" type="line"/>
      <point x="431" y="270" type="line"/>
      <point x="431" y="295" type="line"/>
      <point x="183" y="295" type="line"/>
      <point x="183" y="511" type="line"/>
      <point x="434" y="511" type="line" smooth="yes"/>
      <point x="478" y="511"/>
      <point x="486" y="495"/>
      <point x="490" y="458" type="curve" smooth="yes"/>
      <point x="493" y="408" type="line"/>
      <point x="513" y="408" type="line"/>
      <point x="506" y="536" type="line"/>
      <point x="52" y="536" type="line"/>
      <point x="52" y="516" type="line"/>
      <point x="97" y="516" type="line" smooth="yes"/>
      <point x="153" y="516"/>
      <point x="155" y="512"/>
      <point x="155" y="444" type="curve" smooth="yes"/>
      <point x="155" y="92" type="line" smooth="yes"/>
      <point x="155" y="22"/>
      <point x="151" y="20"/>
      <point x="96" y="20" type="curve" smooth="yes"/>
      <point x="52" y="20" type="line"/>
    </contour>
  </outline>
</glyph>
<glyph name="uni1D72" format="2">
  <advance width="492"/>
  <unicode hex="1D72"/>
  <anchor x="297" y="536" name="top"/>
  <anchor x="472" y="536" name="topright"/>
  <anchor x="187" y="0" name="bottom"/>
  <outline>
    <contour>
      <point x="-2" y="210" type="curve"/>
      <point x="18" y="210" type="line"/>
      <point x="22" y="233"/>
      <point x="31" y="271"/>
      <point x="85" y="271" type="curve" smooth="yes"/>
      <point x="153" y="271"/>
      <point x="223" y="229"/>
      <point x="295" y="229" type="curve" smooth="yes"/>
      <point x="354" y="229"/>
      <point x="372" y="263"/>
      <point x="378" y="304" type="curve"/>
      <point x="358" y="304" type="line"/>
      <point x="353" y="281"/>
      <point x="339" y="253"/>
      <point x="295" y="253" type="curve" smooth="yes"/>
      <point x="226" y="253"/>
      <point x="170" y="295"/>
      <point x="89" y="295" type="curve" smooth="yes"/>
      <point x="26" y="295"/>
      <point x="3" y="242"/>
    </contour>
    <component base="r"/>
  </outline>
</glyph>
<glyph name="uni1D7C" format="2">
  <advance width="330"/>
  <unicode hex="1D7C"/>
  <anchor x="165" y="536" name="top"/>
  <anchor x="165" y="0" name="bottom"/>
  <outline>
    <contour>
      <point x="9" y="305" type="line"/>
      <point x="298" y="305" type="line"/>
      <point x="298" y="330" type="line"/>
      <point x="9" y="330" type="line"/>
    </contour>
    <component base="iotaLatin"/>
  </outline>
</glyph>
<glyph name="uni1D7D" format="2">
  <advance width="706"/>
  <unicode hex="1D7D"/>
  <anchor x="352" y="536" name="top"/>
  <anchor x="665" y="536" name="topright"/>
  <anchor x="352" y="-240" name="bottom"/>
  <outline>
    <contour>
      <point x="32" y="263" type="line"/>
      <point x="720" y="263" type="line"/>
      <point x="720" y="288" type="line"/>
      <point x="32" y="288" type="line"/>
    </contour>
    <component base="p"/>
  </outline>
</glyph>
<glyph name="uni1D7E" format="2">
  <advance width="787"/>
  <unicode hex="1D7E"/>
  <outline>
    <contour>
      <point x="389" y="-10" type="curve" smooth="yes"/>
      <point x="531" y="-10"/>
      <point x="600" y="44"/>
      <point x="600" y="219" type="curve" smooth="yes"/>
      <point x="600" y="279" type="line"/>
      <point x="711" y="279" type="line"/>
      <point x="711" y="304" type="line"/>
      <point x="600" y="304" type="line"/>
      <point x="600" y="429" type="line" smooth="yes"/>
      <point x="600" y="513"/>
      <point x="602" y="516"/>
      <point x="692" y="516" type="curve" smooth="yes"/>
      <point x="712" y="516" type="line"/>
      <point x="712" y="536" type="line"/>
      <point x="461" y="536" type="line"/>
      <point x="461" y="516" type="line"/>
      <point x="472" y="516" type="line" smooth="yes"/>
      <point x="568" y="516"/>
      <point x="569" y="513"/>
      <point x="569" y="429" type="curve" smooth="yes"/>
      <point x="569" y="304" type="line"/>
      <point x="217" y="304" type="line"/>
      <point x="217" y="536" type="line"/>
      <point x="51" y="536" type="line"/>
      <point x="51" y="516" type="line"/>
      <point x="96" y="516" type="line" smooth="yes"/>
      <point x="186" y="516"/>
      <point x="189" y="512"/>
      <point x="189" y="427" type="curve" smooth="yes"/>
      <point x="189" y="304" type="line"/>
      <point x="74" y="304" type="line"/>
      <point x="74" y="279" type="line"/>
      <point x="189" y="279" type="line"/>
      <point x="189" y="209" type="line" smooth="yes"/>
      <point x="189" y="65"/>
      <point x="243" y="-10"/>
    </contour>
    <contour>
      <point x="386" y="15" type="curve" smooth="yes"/>
      <point x="233" y="15"/>
      <point x="217" y="115"/>
      <point x="217" y="206" type="curve" smooth="yes"/>
      <point x="217" y="279" type="line"/>
      <point x="569" y="279" type="line"/>
      <point x="569" y="212" type="line" smooth="yes"/>
      <point x="569" y="87"/>
      <point x="531" y="15"/>
    </contour>
  </outline>
</glyph>
<glyph name="uni1D8B" format="2">
  <advance width="560"/>
  <unicode hex="1D8B"/>
  <anchor x="190" y="766" name="top"/>
  <anchor x="190" y="-238" name="bottom"/>
  <outline>
    <contour>
      <point x="410" y="-199" type="curve" smooth="yes"/>
      <point x="489" y="-199"/>
      <point x="499" y="-131"/>
      <point x="499" y="-124" type="curve" smooth="yes"/>
      <point x="499" y="117" type="line"/>
      <point x="172" y="117" type="line"/>
      <point x="172" y="92" type="line"/>
      <point x="475" y="92" type="line"/>
      <point x="475" y="-112" type="line" smooth="yes"/>
      <point x="475" y="-162"/>
      <point x="450" y="-176"/>
      <point x="406" y="-176" type="curve" smooth="yes"/>
      <point x="378" y="-176"/>
      <point x="370" y="-159"/>
      <point x="358" y="-161" type="curve"/>
      <point x="344" y="-160"/>
      <point x="339" y="-167"/>
      <point x="339" y="-176" type="curve" smooth="yes"/>
      <point x="339" y="-187"/>
      <point x="372" y="-199"/>
    </contour>
    <component base="uni0283"/>
  </outline>
</glyph>
<glyph name="uni1D95" format="2">
  <advance width="629"/>
  <unicode hex="1D95"/>
  <anchor x="300" y="536" name="top"/>
  <anchor x="300" y="0" name="bottom"/>
  <outline>
    <contour>
      <point x="609" y="-199" type="curve" smooth="yes"/>
      <point x="647" y="-199"/>
      <point x="680" y="-187"/>
      <point x="680" y="-176" type="curve" smooth="yes"/>
      <point x="680" y="-167"/>
      <point x="675" y="-160"/>
      <point x="661" y="-161" type="curve"/>
      <point x="649" y="-159"/>
      <point x="641" y="-176"/>
      <point x="613" y="-176" type="curve" smooth="yes"/>
      <point x="568" y="-176"/>
      <point x="543" y="-162"/>
      <point x="543" y="-112" type="curve" smooth="yes"/>
      <point x="543" y="250" type="line"/>
      <point x="519" y="250" type="line"/>
      <point x="519" y="-124" type="line" smooth="yes"/>
      <point x="519" y="-131"/>
      <point x="529" y="-199"/>
    </contour>
    <component base="uni0259"/>
  </outline>
</glyph>
<glyph name="uni1D99" format="2">
  <advance width="736"/>
  <unicode hex="1D99"/>
  <anchor x="369" y="536" name="top"/>
  <anchor x="616" y="536" name="topright"/>
  <anchor x="369" y="0" name="bottom"/>
  <outline>
    <contour>
      <point x="776" y="-199" type="curve" smooth="yes"/>
      <point x="814" y="-199"/>
      <point x="847" y="-187"/>
      <point x="847" y="-176" type="curve" smooth="yes"/>
      <point x="847" y="-167"/>
      <point x="842" y="-160"/>
      <point x="828" y="-161" type="curve"/>
      <point x="816" y="-159"/>
      <point x="808" y="-176"/>
      <point x="780" y="-176" type="curve" smooth="yes"/>
      <point x="736" y="-176"/>
      <point x="711" y="-162"/>
      <point x="711" y="-112" type="curve" smooth="yes"/>
      <point x="711" y="20" type="line"/>
      <point x="687" y="20" type="line"/>
      <point x="687" y="-124" type="line" smooth="yes"/>
      <point x="687" y="-131"/>
      <point x="697" y="-199"/>
    </contour>
    <component base="u"/>
  </outline>
</glyph>
<glyph name="uni1D9A" format="2">
  <advance width="507"/>
  <unicode hex="1D9A"/>
  <outline>
    <contour>
      <point x="131" y="-199" type="curve" smooth="yes"/>
      <point x="169" y="-199"/>
      <point x="202" y="-187"/>
      <point x="202" y="-176" type="curve" smooth="yes"/>
      <point x="202" y="-167"/>
      <point x="197" y="-160"/>
      <point x="183" y="-161" type="curve"/>
      <point x="171" y="-159"/>
      <point x="163" y="-176"/>
      <point x="135" y="-176" type="curve" smooth="yes"/>
      <point x="91" y="-176"/>
      <point x="66" y="-162"/>
      <point x="66" y="-112" type="curve" smooth="yes"/>
      <point x="66" y="39" type="line"/>
      <point x="94" y="8"/>
      <point x="150" y="-12"/>
      <point x="233" y="-12" type="curve" smooth="yes"/>
      <point x="339" y="-12"/>
      <point x="455" y="37"/>
      <point x="455" y="155" type="curve" smooth="yes"/>
      <point x="455" y="218"/>
      <point x="431" y="296"/>
      <point x="235" y="298" type="curve"/>
      <point x="472" y="520" type="line"/>
      <point x="472" y="536" type="line"/>
      <point x="87" y="536" type="line"/>
      <point x="75" y="411" type="line"/>
      <point x="95" y="411" type="line"/>
      <point x="102" y="460" type="line" smooth="yes"/>
      <point x="108" y="500"/>
      <point x="130" y="514"/>
      <point x="168" y="514" type="curve" smooth="yes"/>
      <point x="426" y="514" type="line"/>
      <point x="199" y="296" type="line"/>
      <point x="199" y="276" type="line"/>
      <point x="233" y="276" type="line" smooth="yes"/>
      <point x="380" y="276"/>
      <point x="427" y="228"/>
      <point x="427" y="158" type="curve" smooth="yes"/>
      <point x="427" y="62"/>
      <point x="331" y="11"/>
      <point x="230" y="11" type="curve" smooth="yes"/>
      <point x="123" y="11"/>
      <point x="67" y="58"/>
      <point x="67" y="117" type="curve"/>
      <point x="49" y="117"/>
      <point x="42" y="117"/>
      <point x="42" y="103" type="curve" smooth="yes"/>
      <point x="42" y="-124" type="line" smooth="yes"/>
      <point x="42" y="-131"/>
      <point x="52" y="-199"/>
    </contour>
  </outline>
</glyph>
<glyph name="macronacutecomb" format="2">
  <unicode hex="1DC4"/>
  <anchor x="21" y="536" name="_top"/>
  <anchor x="21" y="745" name="top"/>
  <outline>
    <contour>
      <point x="-149" y="663" type="line"/>
      <point x="48" y="663" type="line"/>
      <point x="189" y="722" type="line"/>
      <point x="180" y="745" type="line"/>
      <point x="38" y="685" type="line"/>
      <point x="-149" y="685" type="line"/>
    </contour>
  </outline>
</glyph>
<glyph name="isbelowcomb" format="2">
  <unicode hex="1DD0"/>
  <anchor x="4" y="0" name="_bottom"/>
  <anchor x="4" y="-255" name="bottom"/>
  <outline>
    <contour>
      <point x="103" y="-255" type="curve" smooth="yes"/>
      <point x="156" y="-255"/>
      <point x="208" y="-236"/>
      <point x="208" y="-187" type="curve" smooth="yes"/>
      <point x="208" y="-154"/>
      <point x="192" y="-134"/>
      <point x="166" y="-112" type="curve"/>
      <point x="146" y="-112" type="line"/>
      <point x="165" y="-129"/>
      <point x="177" y="-159"/>
      <point x="177" y="-168" type="curve" smooth="yes"/>
      <point x="177" y="-233"/>
      <point x="147" y="-233"/>
      <point x="109" y="-233" type="curve" smooth="yes"/>
      <point x="73" y="-233"/>
      <point x="52" y="-223"/>
      <point x="3" y="-194" type="curve" smooth="yes"/>
      <point x="-30" y="-175"/>
      <point x="-46" y="-167"/>
      <point x="-89" y="-167" type="curve" smooth="yes"/>
      <point x="-119" y="-167"/>
      <point x="-143" y="-177"/>
      <point x="-164" y="-188" type="curve"/>
      <point x="-99" y="0" type="line"/>
      <point x="-119" y="0" type="line"/>
      <point x="-201" y="-245" type="line"/>
      <point x="-185" y="-245" type="line"/>
      <point x="-169" y="-207"/>
      <point x="-127" y="-192"/>
      <point x="-87" y="-192" type="curve" smooth="yes"/>
      <point x="-59" y="-192"/>
      <point x="-39" y="-201"/>
      <point x="1" y="-222" type="curve" smooth="yes"/>
      <point x="39" y="-241"/>
      <point x="60" y="-255"/>
    </contour>
  </outline>
</glyph>
<glyph name="V.middleWelsh" format="2">
  <advance width="662"/>
  <unicode hex="1EFC"/>
  <anchor x="331" y="0" name="bottom"/>
  <anchor x="331" y="714" name="top"/>
  <outline>
    <contour>
      <point x="332" y="-10" type="curve" smooth="yes"/>
      <point x="491" y="-10"/>
      <point x="592" y="80"/>
      <point x="592" y="220" type="curve" smooth="yes"/>
      <point x="592" y="340"/>
      <point x="511" y="424"/>
      <point x="401" y="424" type="curve" smooth="yes"/>
      <point x="371" y="424"/>
      <point x="325" y="423"/>
      <point x="325" y="401" type="curve" smooth="yes"/>
      <point x="325" y="399"/>
      <point x="326" y="392"/>
      <point x="332" y="392" type="curve"/>
      <point x="367" y="402"/>
      <point x="375" y="398"/>
      <point x="404" y="398" type="curve" smooth="yes"/>
      <point x="475" y="398"/>
      <point x="564" y="345"/>
      <point x="564" y="220" type="curve" smooth="yes"/>
      <point x="564" y="89"/>
      <point x="470" y="15"/>
      <point x="331" y="15" type="curve" smooth="yes"/>
      <point x="155" y="15"/>
      <point x="100" y="157"/>
      <point x="100" y="275" type="curve" smooth="yes"/>
      <point x="100" y="510"/>
      <point x="323" y="657"/>
      <point x="529" y="700" type="curve"/>
      <point x="529" y="724" type="line"/>
      <point x="276" y="664"/>
      <point x="72" y="501"/>
      <point x="72" y="270" type="curve" smooth="yes"/>
      <point x="72" y="76"/>
      <point x="181" y="-10"/>
    </contour>
  </outline>
</glyph>
<glyph name="uni1FCF" format="2">
  <advance width="496"/>
  <unicode hex="1FCF"/>
  <anchor x="246" y="536" name="_top"/>
  <anchor x="246" y="799" name="top"/>
  <outline>
    <contour>
      <point x="59" y="715" type="curve"/>
      <point x="78" y="715" type="line"/>
      <point x="84" y="738"/>
      <point x="93" y="775"/>
      <point x="146" y="775" type="curve" smooth="yes"/>
      <point x="215" y="775"/>
      <point x="282" y="735"/>
      <point x="352" y="735" type="curve" smooth="yes"/>
      <point x="409" y="735"/>
      <point x="430" y="769"/>
      <point x="434" y="809" type="curve"/>
      <point x="415" y="809" type="line"/>
      <point x="410" y="785"/>
      <point x="399" y="759"/>
      <point x="353" y="759" type="curve" smooth="yes"/>
      <point x="292" y="759"/>
      <point x="235" y="799"/>
      <point x="151" y="799" type="curve" smooth="yes"/>
      <point x="90" y="799"/>
      <point x="63" y="748"/>
    </contour>
    <contour>
      <point x="159" y="589" type="line"/>
      <point x="241" y="584"/>
      <point x="277" y="624"/>
      <point x="277" y="662" type="curve" smooth="yes"/>
      <point x="277" y="683"/>
      <point x="264" y="710"/>
      <point x="235" y="710" type="curve" smooth="yes"/>
      <point x="213" y="710"/>
      <point x="205" y="700"/>
      <point x="205" y="687" type="curve" smooth="yes"/>
      <point x="205" y="658"/>
      <point x="243" y="670"/>
      <point x="243" y="645" type="curve" smooth="yes"/>
      <point x="243" y="617"/>
      <point x="204" y="606"/>
      <point x="159" y="610" type="curve"/>
    </contour>
  </outline>
</glyph>
<glyph name="uni2034" format="2">
  <advance width="427"/>
  <unicode hex="2034"/>
  <outline>
    <contour>
      <point x="312" y="479" type="line"/>
      <point x="318" y="479" type="line"/>
      <point x="407" y="714" type="line"/>
      <point x="365" y="714" type="line"/>
    </contour>
    <contour>
      <point x="20" y="479" type="line"/>
      <point x="26" y="479" type="line"/>
      <point x="115" y="714" type="line"/>
      <point x="73" y="714" type="line"/>
    </contour>
    <contour>
      <point x="166" y="479" type="line"/>
      <point x="172" y="479" type="line"/>
      <point x="261" y="714" type="line"/>
      <point x="219" y="714" type="line"/>
    </contour>
  </outline>
</glyph>
<glyph name="reversedparagraph" format="2">
  <advance width="749"/>
  <unicode hex="204B"/>
  <outline>
    <contour>
      <point x="45" y="-111" type="line"/>
      <point x="191" y="-111" type="line"/>
      <point x="191" y="745" type="line"/>
      <point x="385" y="745" type="line"/>
      <point x="385" y="-111" type="line"/>
      <point x="531" y="-111" type="line"/>
      <point x="531" y="-91" type="line"/>
      <point x="480" y="-91" type="line" smooth="yes"/>
      <point x="455" y="-91"/>
      <point x="413" y="-74"/>
      <point x="413" y="-53" type="curve" smooth="yes"/>
      <point x="413" y="386" type="line"/>
      <point x="523" y="386" type="line" smooth="yes"/>
      <point x="646" y="386"/>
      <point x="691" y="478"/>
      <point x="691" y="582" type="curve" smooth="yes"/>
      <point x="691" y="689"/>
      <point x="638" y="760"/>
      <point x="521" y="760" type="curve" smooth="yes"/>
      <point x="45" y="760" type="line"/>
      <point x="45" y="740" type="line"/>
      <point x="65" y="740" type="line" smooth="yes"/>
      <point x="95" y="740"/>
      <point x="163" y="728"/>
      <point x="163" y="672" type="curve" smooth="yes"/>
      <point x="163" y="-37" type="line" smooth="yes"/>
      <point x="163" y="-75"/>
      <point x="131" y="-91"/>
      <point x="87" y="-91" type="curve" smooth="yes"/>
      <point x="45" y="-91" type="line"/>
    </contour>
  </outline>
</glyph>
<glyph name="closeup" format="2">
  <advance width="836"/>
  <unicode hex="2050"/>
  <outline>
    <contour>
      <point x="77" y="532" type="curve"/>
      <point x="107" y="532" type="line"/>
      <point x="165" y="674"/>
      <point x="288" y="705"/>
      <point x="423" y="705" type="curve" smooth="yes"/>
      <point x="560" y="705"/>
      <point x="677" y="672"/>
      <point x="734" y="532" type="curve"/>
      <point x="764" y="532" type="line"/>
      <point x="698" y="681"/>
      <point x="584" y="727"/>
      <point x="423" y="727" type="curve" smooth="yes"/>
      <point x="263" y="727"/>
      <point x="143" y="681"/>
    </contour>
    <contour>
      <point x="423" y="-10" type="curve" smooth="yes"/>
      <point x="584" y="-10"/>
      <point x="698" y="45"/>
      <point x="764" y="192" type="curve"/>
      <point x="734" y="192" type="line"/>
      <point x="677" y="51"/>
      <point x="560" y="12"/>
      <point x="423" y="12" type="curve" smooth="yes"/>
      <point x="288" y="12"/>
      <point x="165" y="50"/>
      <point x="107" y="192" type="curve"/>
      <point x="77" y="192" type="line"/>
      <point x="143" y="45"/>
      <point x="263" y="-10"/>
    </contour>
  </outline>
</glyph>
<glyph name="threedotpunctuation" format="2">
  <advance width="663"/>
  <unicode hex="2056"/>
  <outline>
    <contour>
      <point x="496" y="255" type="curve" smooth="yes"/>
      <point x="514" y="255"/>
      <point x="527" y="263"/>
      <point x="527" y="296" type="curve" smooth="yes"/>
      <point x="527" y="326"/>
      <point x="514" y="332"/>
      <point x="496" y="332" type="curve" smooth="yes"/>
      <point x="483" y="332"/>
      <point x="468" y="326"/>
      <point x="468" y="296" type="curve" smooth="yes"/>
      <point x="468" y="263"/>
      <point x="483" y="255"/>
    </contour>
    <contour>
      <point x="164" y="132" type="curve" smooth="yes"/>
      <point x="182" y="132"/>
      <point x="195" y="140"/>
      <point x="195" y="173" type="curve" smooth="yes"/>
      <point x="195" y="203"/>
      <point x="182" y="209"/>
      <point x="164" y="209" type="curve" smooth="yes"/>
      <point x="151" y="209"/>
      <point x="136" y="203"/>
      <point x="136" y="173" type="curve" smooth="yes"/>
      <point x="136" y="140"/>
      <point x="151" y="132"/>
    </contour>
    <contour>
      <point x="496" y="-11" type="curve" smooth="yes"/>
      <point x="514" y="-11"/>
      <point x="527" y="-3"/>
      <point x="527" y="30" type="curve" smooth="yes"/>
      <point x="527" y="60"/>
      <point x="514" y="66"/>
      <point x="496" y="66" type="curve" smooth="yes"/>
      <point x="483" y="66"/>
      <point x="468" y="60"/>
      <point x="468" y="30" type="curve" smooth="yes"/>
      <point x="468" y="-3"/>
      <point x="483" y="-11"/>
    </contour>
  </outline>
</glyph>
<glyph name="zerosuperior" format="2">
  <advance width="497"/>
  <unicode hex="2070"/>
  <outline>
    <contour>
      <point x="248" y="382" type="curve" smooth="yes"/>
      <point x="360" y="382"/>
      <point x="427" y="479"/>
      <point x="427" y="605" type="curve" smooth="yes"/>
      <point x="427" y="749"/>
      <point x="359" y="826"/>
      <point x="253" y="826" type="curve" smooth="yes"/>
      <point x="133" y="826"/>
      <point x="70" y="753"/>
      <point x="70" y="605" type="curve" smooth="yes"/>
      <point x="70" y="476"/>
      <point x="131" y="382"/>
    </contour>
    <contour>
      <point x="248" y="408" type="curve" smooth="yes"/>
      <point x="159" y="408"/>
      <point x="98" y="485"/>
      <point x="98" y="613" type="curve" smooth="yes"/>
      <point x="98" y="751"/>
      <point x="157" y="801"/>
      <point x="250" y="801" type="curve" smooth="yes"/>
      <point x="345" y="801"/>
      <point x="399" y="749"/>
      <point x="399" y="613" type="curve" smooth="yes"/>
      <point x="399" y="485"/>
      <point x="349" y="408"/>
    </contour>
  </outline>
</glyph>
<glyph name="sixsuperior" format="2">
  <advance width="497"/>
  <unicode hex="2076"/>
  <outline>
    <contour>
      <point x="260" y="382" type="curve" smooth="yes"/>
      <point x="326" y="382"/>
      <point x="405" y="440"/>
      <point x="405" y="514" type="curve" smooth="yes"/>
      <point x="405" y="615"/>
      <point x="341" y="644"/>
      <point x="277" y="644" type="curve" smooth="yes"/>
      <point x="203" y="644"/>
      <point x="150" y="606"/>
      <point x="112" y="584" type="curve"/>
      <point x="128" y="764"/>
      <point x="172" y="802"/>
      <point x="272" y="802" type="curve" smooth="yes"/>
      <point x="341" y="802"/>
      <point x="357" y="784"/>
      <point x="357" y="747" type="curve"/>
      <point x="376" y="747"/>
      <point x="384" y="753"/>
      <point x="384" y="761" type="curve" smooth="yes"/>
      <point x="384" y="794"/>
      <point x="339" y="827"/>
      <point x="269" y="827" type="curve" smooth="yes"/>
      <point x="149" y="827"/>
      <point x="88" y="716"/>
      <point x="88" y="584" type="curve" smooth="yes"/>
      <point x="88" y="424"/>
      <point x="184" y="382"/>
    </contour>
    <contour>
      <point x="258" y="407" type="curve" smooth="yes"/>
      <point x="167" y="407"/>
      <point x="115" y="466"/>
      <point x="116" y="571" type="curve"/>
      <point x="153" y="587"/>
      <point x="213" y="619"/>
      <point x="269" y="619" type="curve" smooth="yes"/>
      <point x="345" y="619"/>
      <point x="381" y="577"/>
      <point x="381" y="513" type="curve" smooth="yes"/>
      <point x="381" y="460"/>
      <point x="326" y="407"/>
    </contour>
  </outline>
</glyph>
<glyph name="ninesuperior" format="2">
  <advance width="497"/>
  <unicode hex="2079"/>
  <outline>
    <contour>
      <point x="223" y="382" type="curve" smooth="yes"/>
      <point x="323" y="382"/>
      <point x="407" y="479"/>
      <point x="407" y="612" type="curve" smooth="yes"/>
      <point x="407" y="771"/>
      <point x="331" y="827"/>
      <point x="236" y="827" type="curve" smooth="yes"/>
      <point x="169" y="827"/>
      <point x="90" y="774"/>
      <point x="90" y="696" type="curve" smooth="yes"/>
      <point x="90" y="596"/>
      <point x="156" y="574"/>
      <point x="223" y="574" type="curve" smooth="yes"/>
      <point x="286" y="574"/>
      <point x="344" y="607"/>
      <point x="383" y="627" type="curve"/>
      <point x="383" y="481"/>
      <point x="312" y="407"/>
      <point x="219" y="407" type="curve" smooth="yes"/>
      <point x="167" y="407"/>
      <point x="141" y="432"/>
      <point x="141" y="473" type="curve"/>
      <point x="121" y="473"/>
      <point x="114" y="467"/>
      <point x="114" y="459" type="curve" smooth="yes"/>
      <point x="114" y="426"/>
      <point x="145" y="382"/>
    </contour>
    <contour>
      <point x="227" y="597" type="curve" smooth="yes"/>
      <point x="147" y="597"/>
      <point x="114" y="631"/>
      <point x="114" y="701" type="curve" smooth="yes"/>
      <point x="114" y="754"/>
      <point x="168" y="802"/>
      <point x="233" y="802" type="curve" smooth="yes"/>
      <point x="324" y="802"/>
      <point x="379" y="752"/>
      <point x="379" y="644" type="curve"/>
      <point x="351" y="633"/>
      <point x="283" y="597"/>
    </contour>
  </outline>
</glyph>
<glyph name="equalsuperior" format="2">
  <advance width="476"/>
  <unicode hex="207C"/>
  <outline>
    <contour>
      <point x="49" y="541" type="line"/>
      <point x="425" y="541" type="line"/>
      <point x="425" y="563" type="line"/>
      <point x="49" y="563" type="line"/>
    </contour>
    <contour>
      <point x="49" y="390" type="line"/>
      <point x="425" y="390" type="line"/>
      <point x="425" y="412" type="line"/>
      <point x="49" y="412" type="line"/>
    </contour>
  </outline>
</glyph>
<glyph name="uni20B5" format="2">
  <advance width="676"/>
  <unicode hex="20B5"/>
  <anchor x="376" y="714" name="top"/>
  <anchor x="653" y="714" name="topright"/>
  <anchor x="376" y="0" name="bottom"/>
  <outline>
    <contour>
      <point x="375" y="-80" type="line"/>
      <point x="406" y="-80" type="line"/>
      <point x="406" y="780" type="line"/>
      <point x="375" y="780" type="line"/>
    </contour>
    <component base="C"/>
  </outline>
</glyph>
<glyph name="spesmilo" format="2">
  <advance width="695"/>
  <unicode hex="20B7"/>
  <outline>
    <contour>
      <point x="208" y="-89" type="line"/>
      <point x="228" y="-89" type="line"/>
      <point x="228" y="-8" type="line"/>
      <point x="255" y="-13"/>
      <point x="288" y="-16"/>
      <point x="331" y="-18" type="curve"/>
      <point x="331" y="-89" type="line"/>
      <point x="351" y="-89" type="line"/>
      <point x="351" y="-19" type="line"/>
      <point x="387" y="-18"/>
      <point x="420" y="-15"/>
      <point x="452" y="-7" type="curve"/>
      <point x="452" y="-89" type="line"/>
      <point x="472" y="-89" type="line"/>
      <point x="472" y="-2" type="line"/>
      <point x="553" y="24"/>
      <point x="592" y="88"/>
      <point x="592" y="179" type="curve" smooth="yes"/>
      <point x="592" y="302"/>
      <point x="463" y="371"/>
      <point x="341" y="404" type="curve" smooth="yes"/>
      <point x="208" y="441"/>
      <point x="159" y="459"/>
      <point x="159" y="556" type="curve" smooth="yes"/>
      <point x="159" y="656"/>
      <point x="253" y="699"/>
      <point x="352" y="699" type="curve" smooth="yes"/>
      <point x="457" y="699"/>
      <point x="548" y="663"/>
      <point x="548" y="577" type="curve"/>
      <point x="549" y="577"/>
      <point x="573" y="574"/>
      <point x="573" y="622" type="curve" smooth="yes"/>
      <point x="573" y="654"/>
      <point x="474" y="724"/>
      <point x="352" y="724" type="curve" smooth="yes"/>
      <point x="245" y="724"/>
      <point x="131" y="669"/>
      <point x="131" y="563" type="curve" smooth="yes"/>
      <point x="131" y="455"/>
      <point x="177" y="429"/>
      <point x="306" y="391" type="curve" smooth="yes"/>
      <point x="455" y="345"/>
      <point x="564" y="282"/>
      <point x="564" y="186" type="curve" smooth="yes"/>
      <point x="564" y="101"/>
      <point x="536" y="48"/>
      <point x="472" y="22" type="curve"/>
      <point x="472" y="92" type="line" smooth="yes"/>
      <point x="472" y="132"/>
      <point x="458" y="154"/>
      <point x="420" y="154" type="curve" smooth="yes"/>
      <point x="374" y="154"/>
      <point x="360" y="138"/>
      <point x="341" y="111" type="curve"/>
      <point x="339" y="111" type="line"/>
      <point x="336" y="133"/>
      <point x="322" y="154"/>
      <point x="290" y="154" type="curve" smooth="yes"/>
      <point x="252" y="154"/>
      <point x="235" y="138"/>
      <point x="218" y="113" type="curve"/>
      <point x="215" y="113" type="line"/>
      <point x="209" y="133"/>
      <point x="201" y="154"/>
      <point x="151" y="154" type="curve" smooth="yes"/>
      <point x="119" y="154"/>
      <point x="89" y="126"/>
      <point x="89" y="96" type="curve" smooth="yes"/>
      <point x="89" y="59"/>
      <point x="120" y="17"/>
      <point x="208" y="-7" type="curve"/>
    </contour>
    <contour>
      <point x="208" y="16" type="line"/>
      <point x="140" y="35"/>
      <point x="116" y="66"/>
      <point x="116" y="98" type="curve" smooth="yes"/>
      <point x="116" y="124"/>
      <point x="127" y="135"/>
      <point x="152" y="135" type="curve" smooth="yes"/>
      <point x="183" y="135"/>
      <point x="208" y="119"/>
      <point x="208" y="67" type="curve" smooth="yes"/>
    </contour>
    <contour>
      <point x="331" y="5" type="line"/>
      <point x="290" y="7"/>
      <point x="255" y="9"/>
      <point x="228" y="14" type="curve"/>
      <point x="228" y="49" type="line" smooth="yes"/>
      <point x="228" y="109"/>
      <point x="260" y="135"/>
      <point x="292" y="135" type="curve" smooth="yes"/>
      <point x="313" y="135"/>
      <point x="331" y="110"/>
      <point x="331" y="67" type="curve" smooth="yes"/>
    </contour>
    <contour>
      <point x="351" y="4" type="curve"/>
      <point x="351" y="63" type="line" smooth="yes"/>
      <point x="351" y="111"/>
      <point x="381" y="135"/>
      <point x="415" y="135" type="curve" smooth="yes"/>
      <point x="439" y="135"/>
      <point x="453" y="123"/>
      <point x="453" y="89" type="curve" smooth="yes"/>
      <point x="453" y="17" type="line"/>
      <point x="422" y="9"/>
      <point x="390" y="3"/>
    </contour>
  </outline>
</glyph>
<glyph name="afii61289" format="2">
  <advance width="517"/>
  <unicode hex="2113"/>
  <outline>
    <contour>
      <point x="322" y="-11" type="curve" smooth="yes"/>
      <point x="396" y="-11"/>
      <point x="451" y="71"/>
      <point x="464" y="156" type="curve"/>
      <point x="439" y="156" type="line"/>
      <point x="414" y="54"/>
      <point x="369" y="14"/>
      <point x="323" y="14" type="curve" smooth="yes"/>
      <point x="227" y="14"/>
      <point x="240" y="116"/>
      <point x="240" y="148" type="curve" smooth="yes"/>
      <point x="240" y="286" type="line"/>
      <point x="386" y="324"/>
      <point x="430" y="466"/>
      <point x="430" y="571" type="curve" smooth="yes"/>
      <point x="430" y="691"/>
      <point x="375" y="733"/>
      <point x="317" y="733" type="curve" smooth="yes"/>
      <point x="253" y="733"/>
      <point x="212" y="677"/>
      <point x="212" y="597" type="curve" smooth="yes"/>
      <point x="212" y="303" type="line"/>
      <point x="172" y="294"/>
      <point x="130" y="286"/>
      <point x="84" y="278" type="curve"/>
      <point x="84" y="253" type="line"/>
      <point x="128" y="260"/>
      <point x="171" y="268"/>
      <point x="212" y="277" type="curve"/>
      <point x="212" y="130" type="line" smooth="yes"/>
      <point x="212" y="7"/>
      <point x="247" y="-11"/>
    </contour>
    <contour>
      <point x="240" y="311" type="curve"/>
      <point x="240" y="626" type="line" smooth="yes"/>
      <point x="240" y="686"/>
      <point x="273" y="706"/>
      <point x="318" y="706" type="curve" smooth="yes"/>
      <point x="366" y="706"/>
      <point x="402" y="661"/>
      <point x="402" y="572" type="curve" smooth="yes"/>
      <point x="402" y="481"/>
      <point x="376" y="359"/>
    </contour>
  </outline>
</glyph>
<glyph name="afii61352" format="2">
  <advance width="1324"/>
  <unicode hex="2116"/>
  <outline>
    <contour>
      <point x="84" y="0" type="line"/>
      <point x="343" y="0" type="line"/>
      <point x="343" y="20" type="line"/>
      <point x="293" y="20" type="line" smooth="yes"/>
      <point x="241" y="20"/>
      <point x="233" y="31"/>
      <point x="233" y="108" type="curve" smooth="yes"/>
      <point x="233" y="667" type="line"/>
      <point x="727" y="0" type="line"/>
      <point x="752" y="0" type="line"/>
      <point x="752" y="606" type="line" smooth="yes"/>
      <point x="752" y="683"/>
      <point x="764" y="694"/>
      <point x="812" y="694" type="curve" smooth="yes"/>
      <point x="872" y="694" type="line"/>
      <point x="872" y="714" type="line"/>
      <point x="617" y="714" type="line"/>
      <point x="617" y="694" type="line"/>
      <point x="675" y="694" type="line" smooth="yes"/>
      <point x="719" y="694"/>
      <point x="727" y="683"/>
      <point x="727" y="604" type="curve" smooth="yes"/>
      <point x="727" y="43" type="line"/>
      <point x="229" y="714" type="line"/>
      <point x="84" y="714" type="line"/>
      <point x="84" y="694" type="line"/>
      <point x="156" y="694" type="line" smooth="yes"/>
      <point x="206" y="694"/>
      <point x="208" y="673"/>
      <point x="208" y="604" type="curve" smooth="yes"/>
      <point x="208" y="108" type="line" smooth="yes"/>
      <point x="208" y="31"/>
      <point x="200" y="20"/>
      <point x="158" y="20" type="curve" smooth="yes"/>
      <point x="84" y="20" type="line"/>
    </contour>
    <contour>
      <point x="931" y="0" type="line"/>
      <point x="1199" y="0" type="line"/>
      <point x="1199" y="22" type="line"/>
      <point x="931" y="22" type="line"/>
    </contour>
    <contour>
      <point x="1056" y="133" type="curve" smooth="yes"/>
      <point x="1138" y="133"/>
      <point x="1222" y="184"/>
      <point x="1222" y="303" type="curve" smooth="yes"/>
      <point x="1222" y="422"/>
      <point x="1140" y="472"/>
      <point x="1059" y="472" type="curve" smooth="yes"/>
      <point x="976" y="472"/>
      <point x="896" y="422"/>
      <point x="896" y="303" type="curve" smooth="yes"/>
      <point x="896" y="184"/>
      <point x="977" y="133"/>
    </contour>
    <contour>
      <point x="1057" y="158" type="curve" smooth="yes"/>
      <point x="963" y="158"/>
      <point x="924" y="233"/>
      <point x="924" y="304" type="curve" smooth="yes"/>
      <point x="924" y="374"/>
      <point x="963" y="447"/>
      <point x="1056" y="447" type="curve" smooth="yes"/>
      <point x="1152" y="447"/>
      <point x="1194" y="374"/>
      <point x="1194" y="304" type="curve" smooth="yes"/>
      <point x="1194" y="233"/>
      <point x="1153" y="158"/>
    </contour>
  </outline>
</glyph>
<glyph name="telephone" format="2">
  <advance width="1092"/>
  <unicode hex="2121"/>
  <outline>
    <contour>
      <point x="103" y="368" type="line"/>
      <point x="234" y="368" type="line"/>
      <point x="234" y="386" type="line"/>
      <point x="217" y="386" type="line" smooth="yes"/>
      <point x="207" y="386"/>
      <point x="181" y="388"/>
      <point x="181" y="410" type="curve" smooth="yes"/>
      <point x="181" y="702" type="line"/>
      <point x="243" y="702" type="line" smooth="yes"/>
      <point x="268" y="702"/>
      <point x="286" y="679"/>
      <point x="287" y="667" type="curve" smooth="yes"/>
      <point x="290" y="634" type="line"/>
      <point x="304" y="634" type="line"/>
      <point x="300" y="714" type="line"/>
      <point x="37" y="714" type="line"/>
      <point x="33" y="634" type="line"/>
      <point x="47" y="634" type="line"/>
      <point x="54" y="667" type="line" smooth="yes"/>
      <point x="59" y="680"/>
      <point x="70" y="702"/>
      <point x="97" y="702" type="curve" smooth="yes"/>
      <point x="157" y="702" type="line"/>
      <point x="157" y="404" type="line" smooth="yes"/>
      <point x="157" y="388"/>
      <point x="130" y="386"/>
      <point x="119" y="386" type="curve" smooth="yes"/>
      <point x="103" y="386" type="line"/>
    </contour>
    <contour>
      <point x="357" y="368" type="line"/>
      <point x="662" y="368" type="line"/>
      <point x="668" y="447" type="line"/>
      <point x="654" y="447" type="line"/>
      <point x="645" y="403" type="line" smooth="yes"/>
      <point x="641" y="391"/>
      <point x="628" y="385"/>
      <point x="601" y="385" type="curve" smooth="yes"/>
      <point x="449" y="385" type="line"/>
      <point x="449" y="539" type="line"/>
      <point x="596" y="539" type="line"/>
      <point x="596" y="564" type="line"/>
      <point x="449" y="564" type="line"/>
      <point x="449" y="702" type="line"/>
      <point x="589" y="702" type="line" smooth="yes"/>
      <point x="619" y="702"/>
      <point x="621" y="690"/>
      <point x="625" y="686" type="curve" smooth="yes"/>
      <point x="634" y="635" type="line"/>
      <point x="646" y="635" type="line"/>
      <point x="643" y="714" type="line"/>
      <point x="357" y="714" type="line"/>
      <point x="357" y="698" type="line"/>
      <point x="384" y="698" type="line" smooth="yes"/>
      <point x="409" y="698"/>
      <point x="423" y="695"/>
      <point x="423" y="673" type="curve" smooth="yes"/>
      <point x="423" y="411" type="line" smooth="yes"/>
      <point x="423" y="392"/>
      <point x="413" y="388"/>
      <point x="388" y="388" type="curve" smooth="yes"/>
      <point x="357" y="388" type="line"/>
    </contour>
    <contour>
      <point x="711" y="368" type="line"/>
      <point x="1015" y="368" type="line"/>
      <point x="1021" y="471" type="line"/>
      <point x="1007" y="471" type="line"/>
      <point x="995" y="417" type="line" smooth="yes"/>
      <point x="991" y="409"/>
      <point x="981" y="385"/>
      <point x="954" y="385" type="curve" smooth="yes"/>
      <point x="803" y="385" type="line"/>
      <point x="803" y="673" type="line" smooth="yes"/>
      <point x="803" y="693"/>
      <point x="818" y="696"/>
      <point x="842" y="696" type="curve" smooth="yes"/>
      <point x="870" y="696" type="line"/>
      <point x="870" y="714" type="line"/>
      <point x="711" y="714" type="line"/>
      <point x="711" y="696" type="line"/>
      <point x="744" y="696" type="line" smooth="yes"/>
      <point x="767" y="696"/>
      <point x="777" y="693"/>
      <point x="777" y="671" type="curve" smooth="yes"/>
      <point x="777" y="399" type="line" smooth="yes"/>
      <point x="777" y="391"/>
      <point x="763" y="388"/>
      <point x="740" y="388" type="curve" smooth="yes"/>
      <point x="711" y="388" type="line"/>
    </contour>
  </outline>
</glyph>
<glyph name="trademark" format="2">
  <advance width="844"/>
  <unicode hex="2122"/>
  <outline>
    <contour>
      <point x="381" y="368" type="line"/>
      <point x="502" y="368" type="line"/>
      <point x="502" y="386" type="line"/>
      <point x="481" y="386"/>
      <point x="454" y="391"/>
      <point x="454" y="412" type="curve" smooth="yes"/>
      <point x="454" y="697" type="line"/>
      <point x="584" y="368" type="line"/>
      <point x="595" y="368" type="line"/>
      <point x="711" y="702" type="line"/>
      <point x="711" y="404" type="line" smooth="yes"/>
      <point x="711" y="392"/>
      <point x="687" y="386"/>
      <point x="672" y="386" type="curve"/>
      <point x="672" y="368" type="line"/>
      <point x="787" y="368" type="line"/>
      <point x="787" y="386" type="line"/>
      <point x="774" y="386" type="line" smooth="yes"/>
      <point x="759" y="386"/>
      <point x="735" y="390"/>
      <point x="735" y="410" type="curve" smooth="yes"/>
      <point x="735" y="674" type="line" smooth="yes"/>
      <point x="735" y="692"/>
      <point x="759" y="695"/>
      <point x="774" y="695" type="curve" smooth="yes"/>
      <point x="787" y="695" type="line"/>
      <point x="787" y="714" type="line"/>
      <point x="700" y="714" type="line"/>
      <point x="590" y="398" type="line"/>
      <point x="470" y="714" type="line"/>
      <point x="381" y="714" type="line"/>
      <point x="381" y="695" type="line"/>
      <point x="395" y="695" type="line" smooth="yes"/>
      <point x="406" y="695"/>
      <point x="437" y="692"/>
      <point x="437" y="676" type="curve" smooth="yes"/>
      <point x="437" y="409" type="line" smooth="yes"/>
      <point x="437" y="391"/>
      <point x="406" y="386"/>
      <point x="395" y="386" type="curve" smooth="yes"/>
      <point x="381" y="386" type="line"/>
    </contour>
    <contour>
      <point x="103" y="368" type="line"/>
      <point x="234" y="368" type="line"/>
      <point x="234" y="386" type="line"/>
      <point x="217" y="386" type="line" smooth="yes"/>
      <point x="207" y="386"/>
      <point x="181" y="388"/>
      <point x="181" y="410" type="curve" smooth="yes"/>
      <point x="181" y="702" type="line"/>
      <point x="245" y="702" type="line" smooth="yes"/>
      <point x="270" y="702"/>
      <point x="288" y="679"/>
      <point x="289" y="667" type="curve" smooth="yes"/>
      <point x="292" y="634" type="line"/>
      <point x="304" y="634" type="line"/>
      <point x="300" y="714" type="line"/>
      <point x="37" y="714" type="line"/>
      <point x="33" y="634" type="line"/>
      <point x="45" y="634" type="line"/>
      <point x="52" y="667" type="line" smooth="yes"/>
      <point x="57" y="680"/>
      <point x="68" y="702"/>
      <point x="95" y="702" type="curve" smooth="yes"/>
      <point x="157" y="702" type="line"/>
      <point x="157" y="406" type="line" smooth="yes"/>
      <point x="157" y="390"/>
      <point x="130" y="386"/>
      <point x="119" y="386" type="curve" smooth="yes"/>
      <point x="103" y="386" type="line"/>
    </contour>
  </outline>
</glyph>
<glyph name="daletsymbol" format="2">
  <advance width="449"/>
  <unicode hex="2138"/>
  <outline>
    <contour>
      <point x="337" y="0" type="line"/>
      <point x="361" y="0" type="line"/>
      <point x="361" y="557" type="line"/>
      <point x="460" y="557" type="line"/>
      <point x="460" y="582" type="line"/>
      <point x="2" y="582" type="line"/>
      <point x="2" y="557" type="line"/>
      <point x="337" y="557" type="line"/>
    </contour>
  </outline>
</glyph>
